<svg xmlns="http://www.w3.org/2000/svg" width="162.261" height="239.947" viewBox="0 0 162.261 239.947"><defs><style>.a{fill:#fff;}.b{fill:#fcdc4a;}.c{fill:#211715;}</style></defs><path class="a" d="M19.231,155.547c3.288-28.579,7.707-49.417,18.385-76.366C33.6,68.417,31.1,56.886,31.884,45.406A48.789,48.789,0,0,1,44.577,16.2C51.878,8.1,64.2,2.4,81.364,2.4c16.079,0,29.045,5.7,36.346,13.8a48.69,48.69,0,0,1,12.606,29.207c.786,11.519-1.731,23.088-5.772,33.883,10.648,26.9,15.06,47.718,18.344,76.259,1.1,12.077,1.213,18.906.181,29.967-.614,6.578-2.148,14.247-5.212,20.314a28.862,28.862,0,0,1-5.63,7.618c-5.711,5.427-12.462,7.973-20.153,9.584-2.494,1.17-20.478,2.617-25.951,2.614-1.238,0-3.941-.007-5.179-.013s-3.941.012-5.179.013c-5.872,0-26.559-1.945-25.25-2.532-7.853-1.608-14.735-4.148-20.542-9.666a28.862,28.862,0,0,1-5.63-7.618c-3.064-6.067-4.6-13.736-5.212-20.314-1.032-11.061-.92-17.89.181-29.967"></path><path class="b" d="M81.1,53.993c-5.062,0-9.969,2.261-12.495,6.881-.867,1.48-1.023,3.659-.079,4.84a4.808,4.808,0,0,0,2.347,1.609,50.975,50.975,0,0,0,10.227.855,49.432,49.432,0,0,0,10.227-.856,4.8,4.8,0,0,0,2.347-1.608c.945-1.181.788-3.36-.079-4.84C91.07,56.254,86.014,53.993,81.1,53.993Z" style="fill: rgb(252, 220, 74);"></path><path class="b" d="M107.063,224.019l-.01-.072c6.762-1.089,12.886-2.538,18.3-5.5l.534.966c2.775,2.241,4.83,4.275,5.385,8.088a7.2,7.2,0,0,1-.966,5.056c-.76,1.017-3.319,3.319-8.457,4.357a33.6,33.6,0,0,1-11.736.205,22.524,22.524,0,0,1-5.169-2.034A30.6,30.6,0,0,1,95.06,225.2C99.161,224.9,103.682,224.482,107.063,224.019Z" style="fill: rgb(252, 220, 74);"></path><path class="b" d="M55.137,224.029c3.319.4,7.882.833,12.013,1.151a30.593,30.593,0,0,1-9.9,9.907,22.421,22.421,0,0,1-5.179,2.034,33.542,33.542,0,0,1-11.726-.205c-5.138-1.038-7.7-3.34-8.457-4.357a7.2,7.2,0,0,1-.966-5.056c.555-3.813,2.6-5.847,5.385-8.088l.534-.966c5.416,2.96,11.54,4.409,18.3,5.5Z" style="fill: rgb(252, 220, 74);"></path><path class="c" d="M141.091,97.455a121.861,121.861,0,0,0-15.733-20.412q-.395,1.128-.814,2.245c10.736,27.119,15.132,48.062,18.425,76.968a105.574,105.574,0,0,1,3.8,10.514c1.11,3.679,2.991,8.211,6.834,8.262,2.22.041,4.172-1.654,5.107-3.668a15.819,15.819,0,0,0,1.08-6.5A125.8,125.8,0,0,0,141.091,97.455Z"></path><path class="c" d="M19.257,156.175a107.533,107.533,0,0,0-3.822,10.6c-1.11,3.679-2.991,8.211-6.834,8.262-2.22.041-4.172-1.654-5.107-3.668a15.8,15.8,0,0,1-1.079-6.5A125.669,125.669,0,0,1,36.842,77.042q.377,1.076.774,2.139c-10.678,26.949-15.1,47.787-18.385,76.366"></path><path class="c" d="M68.732,3.544c-10.716,2.05-18.79,6.7-24.155,12.655A48.789,48.789,0,0,0,31.884,45.406q-.2,2.847-.128,5.7c-.126-7.264,3.521-13.724,6.683-16.02,5.423-3.939,14.75-4.174,21.594,1.273,7.583,6.042,10.23,11.461,11.884,20.625A14.905,14.905,0,0,1,81.1,53.993,15.08,15.08,0,0,1,90.282,57c1.651-9.179,4.3-14.6,11.886-20.649,6.844-5.447,16.17-5.212,21.593-1.273,3.154,2.291,6.792,8.726,6.684,15.969q.06-2.82-.129-5.645A48.69,48.69,0,0,0,117.71,16.2C110.409,8.1,97.443,2.4,81.364,2.4A67.213,67.213,0,0,0,68.732,3.544Z"></path><path class="c" d="M21.631,155.547a340.206,340.206,0,0,1,5.969-36.57A260.936,260.936,0,0,1,38.244,84.161a42.188,42.188,0,0,0,1.686-4.342,4.3,4.3,0,0,0-.481-2.589q-.474-1.317-.914-2.647a96.335,96.335,0,0,1-2.724-9.911,68.259,68.259,0,0,1-1.5-19.679A45.674,45.674,0,0,1,48.528,15.622c7.315-6.729,17.394-9.837,27.152-10.6,11.08-.867,22.733.726,32.411,6.472,9.041,5.369,15.343,14.856,18.207,24.857,3.551,12.4,1.422,25.845-2.518,37.883q-.4,1.225-.83,2.439a8.573,8.573,0,0,0-.806,2.616,7.1,7.1,0,0,0,.775,2.393q.507,1.3,1,2.6,1.711,4.506,3.279,9.063,2.943,8.574,5.278,17.339a288.386,288.386,0,0,1,6.853,35.517q.626,4.666,1.157,9.345a2.473,2.473,0,0,0,2.4,2.4,2.416,2.416,0,0,0,2.4-2.4c-2.342-20.284-5.863-40.34-12.221-59.782C131.18,90,129.089,84.3,126.859,78.65v1.276c5.506-14.8,8.586-31.867,3.333-47.19A52.158,52.158,0,0,0,119,14.058a42.278,42.278,0,0,0-15.027-9.905A59.427,59.427,0,0,0,83.122.026a64.826,64.826,0,0,0-21.49,2.847,45.016,45.016,0,0,0-15.609,8.564,48.355,48.355,0,0,0-11.9,16.18c-6.83,14.7-5.5,31.322-.785,46.463.6,1.931,1.263,3.843,1.967,5.739V78.543a273.2,273.2,0,0,0-16.028,58.683c-.947,6.088-1.737,12.2-2.443,18.321a2.414,2.414,0,0,0,2.4,2.4,2.458,2.458,0,0,0,2.4-2.4Z"></path><path class="c" d="M47.232,88.633A62.281,62.281,0,0,0,60.311,93.49,84.251,84.251,0,0,0,73.8,95.354a97.923,97.923,0,0,0,25.513-1.3A60.645,60.645,0,0,0,114.03,89.1a2.422,2.422,0,0,0,.861-3.284,2.452,2.452,0,0,0-3.283-.861c-7.69,3.669-15.809,5.116-24.25,5.678a90.738,90.738,0,0,1-23.853-1.337,56.132,56.132,0,0,1-13.851-4.8c-2.755-1.377-5.189,2.762-2.422,4.145Z"></path><path class="c" d="M81.1,51.593a16.781,16.781,0,0,0-13.193,6.034c-1.658,2.113-2.883,4.69-2.255,7.437.618,2.7,3.1,4.351,5.7,4.8a60.6,60.6,0,0,0,17.43.3c2.72-.331,5.454-.864,7.055-3.364,1.453-2.271.949-5.257-.351-7.464-2.974-5.049-8.653-7.682-14.383-7.744-3.09-.034-3.092,4.766,0,4.8a12.353,12.353,0,0,1,8.852,3.532c.9.93,2.318,2.589,1.944,4.013-.323,1.228-2.265,1.32-3.308,1.45a64.917,64.917,0,0,1-13.483.144c-1.266-.108-3.551-.033-4.472-1.071s.138-2.683.829-3.631c2.217-3.046,5.984-4.4,9.638-4.437C84.187,56.36,84.2,51.56,81.1,51.593Z"></path><path class="c" d="M101.746,52.155a6.257,6.257,0,0,1,1.547-5.03,4.789,4.789,0,0,1,3.274-1.4,5.129,5.129,0,0,1,4.289,2.011,6.3,6.3,0,0,1-.134,7.342,4.889,4.889,0,0,1-6.589,1.075A5.365,5.365,0,0,1,101.746,52.155Z"></path><path class="c" d="M50.279,52.155a6.265,6.265,0,0,1,1.547-5.03,4.783,4.783,0,0,1,3.274-1.4,5.131,5.131,0,0,1,4.29,2.01,6.3,6.3,0,0,1-.135,7.342,4.888,4.888,0,0,1-6.589,1.075A5.371,5.371,0,0,1,50.279,52.155Z"></path><path class="c" d="M34.614,217.718c-3.448,2.792-6.1,6.264-6.176,10.893-.069,4.038,2.188,6.837,5.61,8.63a28.027,28.027,0,0,0,14.3,2.655A21.71,21.71,0,0,0,58.392,237.2a33.65,33.65,0,0,0,10.83-10.811c1.709-2.584-2.446-4.991-4.144-2.423a29.484,29.484,0,0,1-7.376,7.936,16.173,16.173,0,0,1-7.2,3.014,28.683,28.683,0,0,1-11.809-.91,13.782,13.782,0,0,1-3.887-1.935c-.4-.291-.142-.113-.061-.046-.1-.087-.214-.174-.312-.268-.15-.143-.3-.288-.446-.432-.253-.245-.241-.359-.025.019a5.066,5.066,0,0,1-.539-1.089c-1.152-3.856,1.883-6.96,4.583-9.146a2.416,2.416,0,0,0,0-3.394,2.457,2.457,0,0,0-3.394,0Z"></path><path class="c" d="M124.192,221.112c2.559,2.08,4.825,4.357,4.768,7.881a5.2,5.2,0,0,1-.523,2.056c-.282.655.236-.14-.12.166-.192.164-.368.37-.552.545-.073.07-.154.134-.231.2-.277.24.276-.2-.045.043-.239.18-.489.347-.742.508a13.475,13.475,0,0,1-1.943,1.031,25.706,25.706,0,0,1-11.822,1.5,14.892,14.892,0,0,1-7.168-2.244,29.639,29.639,0,0,1-8.681-8.806c-1.7-2.564-5.858-.163-4.145,2.422a35.681,35.681,0,0,0,9.41,9.865,20.54,20.54,0,0,0,10.085,3.522,29.967,29.967,0,0,0,14.463-1.99c3.174-1.377,6.076-3.6,6.648-7.216.85-5.362-2.031-9.643-6.008-12.875a2.472,2.472,0,0,0-3.394,0,2.418,2.418,0,0,0,0,3.394Z"></path><path class="c" d="M33.91,76.656A128.336,128.336,0,0,0,.7,150.028,121.241,121.241,0,0,0,0,163.62c.025,4.7.412,10.2,4.963,12.828,4.6,2.659,9.1-.494,11.131-4.7a52.142,52.142,0,0,0,2.358-6.579q1.386-4.24,3.118-8.355a2.414,2.414,0,0,0-1.677-2.952,2.462,2.462,0,0,0-2.952,1.676c-1.714,4.094-2.921,8.326-4.447,12.481-.783,2.129-2.606,5.921-5.264,4.189-1.513-.987-2.081-2.851-2.283-4.559a48.478,48.478,0,0,1-.137-6.3A121.619,121.619,0,0,1,5.615,149,123.69,123.69,0,0,1,20.922,102.5,120.862,120.862,0,0,1,37.3,80.05c2.095-2.265-1.291-5.668-3.394-3.394Z"></path><path class="c" d="M124.9,80.05a122.283,122.283,0,0,1,25.315,41.925,126.174,126.174,0,0,1,6.007,24.189,116.587,116.587,0,0,1,1.088,12.092q.123,3.093.085,6.19c-.024,2,.015,4.209-.922,6.039-.709,1.385-2.2,2.614-3.723,1.966-1.173-.5-2.074-2.178-2.641-3.433a60.368,60.368,0,0,1-1.951-5.794q-1.3-3.9-2.9-7.687a2.48,2.48,0,0,0-2.952-1.676,2.416,2.416,0,0,0-1.677,2.952q1.5,3.575,2.748,7.242c.7,2.059,1.244,4.176,2.071,6.189,1.482,3.609,4.134,7.4,8.52,7.179,5.383-.273,7.773-5.673,8.133-10.341a88.126,88.126,0,0,0-.274-13.562,129.267,129.267,0,0,0-15.594-52.006A126.209,126.209,0,0,0,128.29,76.656c-2.1-2.272-5.491,1.128-3.394,3.394Z"></path><path class="c" d="M34.163,51.354A20.228,20.228,0,0,1,37.9,39.038a11.51,11.51,0,0,1,8.166-4.346c8.024-.97,15.33,4.4,19.428,10.944A33.576,33.576,0,0,1,69.6,57.62,2.421,2.421,0,0,0,72.556,59.3a2.452,2.452,0,0,0,1.676-2.952,37.89,37.89,0,0,0-4.271-12.6A33.955,33.955,0,0,0,60.605,33.8c-7.158-5.2-19.392-5.953-25.613,1.237a24.532,24.532,0,0,0-5.629,16.322c.058,3.085,4.859,3.095,4.8,0Z"></path><path class="c" d="M132.838,51.354a24.792,24.792,0,0,0-4.486-14.869A16.027,16.027,0,0,0,117.8,30.117a21.9,21.9,0,0,0-14.553,2.6,32.628,32.628,0,0,0-10.17,9.709c-2.82,4.151-4.214,9.033-5.108,13.918A2.466,2.466,0,0,0,89.644,59.3,2.421,2.421,0,0,0,92.6,57.62,35.3,35.3,0,0,1,96,46.844a28.993,28.993,0,0,1,7.552-8.542A17.113,17.113,0,0,1,114.739,34.6a14.893,14.893,0,0,1,5.327,1.127,9.125,9.125,0,0,1,3.554,2.483c3.137,3.473,4.5,8.563,4.418,13.148-.059,3.09,4.741,3.09,4.8,0Z"></path><path class="c" d="M16.912,155.547a158.209,158.209,0,0,0-.526,25.844c.65,8.927,1.886,18.205,6.176,26.207,4.018,7.493,11.154,12.937,19.07,15.781,6.735,2.419,13.992,3.2,21.077,3.847a201.843,201.843,0,0,0,35.684.113c3.114-.266,6.225-.581,9.323-1,1.113-.151,2.227-.308,3.328-.532.355-.072.713-.147,1.062-.249.122-.036.245-.072.365-.114.057-.02.112-.044.168-.065q.8-.5.525-.18-.15.151.153.018c8.331-1.683,16.728-5.383,22.37-11.931,6.064-7.039,8.4-16.334,9.52-25.359a134.417,134.417,0,0,0,.647-25.305c-.155-2.36-.353-4.717-.566-7.073a2.465,2.465,0,0,0-2.4-2.4,2.417,2.417,0,0,0-2.4,2.4,158.065,158.065,0,0,1,.6,24.814c-.553,8.325-1.549,17.131-5.493,24.628-3.87,7.355-10.859,11.978-18.662,14.342-1.988.6-4.144.875-6.068,1.627.74-.289.135-.074-.215.019-.4.108-.814.189-1.223.267-.492.093-.987.174-1.482.25-.659.1-1.175.171-1.489.211q-2.072.259-4.148.469a197.058,197.058,0,0,1-33.655.737,133.553,133.553,0,0,1-19.379-2.379c-7.278-1.583-14.053-4.657-19.079-10.315-5.609-6.315-7.654-15.322-8.541-23.507a139.215,139.215,0,0,1-.492-24.3c.152-2.29.345-4.577.552-6.862a2.417,2.417,0,0,0-2.4-2.4,2.451,2.451,0,0,0-2.4,2.4Z"></path></svg>