<svg width="461.48mm" height="199.32mm" viewBox="0 0 461.48 199.32" xmlns="http://www.w3.org/2000/svg" version="1.1" preserveAspectRatio="xMidYMid meet"><g id="svgGroup" stroke-linecap="round" fill-rule="evenodd" font-size="9pt" stroke="#000" stroke-width="0.25mm" fill="none" style="stroke:#000;stroke-width:0.25mm;fill:none"><path d="M 23.847 196.32 L 37.563 196.32 L 37.563 199.32 L 51.598 199.32 L 51.598 196.32 L 65.313 196.32 L 65.313 199.32 L 79.348 199.32 L 79.348 196.32 L 93.063 196.32 L 93.063 199.32 L 107.098 199.32 L 107.098 196.32 L 120.813 196.32 L 120.813 199.32 L 134.848 199.32 L 134.848 196.32 L 148.563 196.32 L 148.563 199.32 L 162.598 199.32 L 162.598 196.32 L 176.313 196.32 L 176.313 199.32 L 200.16 199.32 L 200.16 184.848 L 197.16 184.848 L 197.16 171.133 L 200.16 171.133 L 200.16 157.098 L 197.16 157.098 L 197.16 143.383 L 200.16 143.383 L 200.16 129.348 L 197.16 129.348 L 197.16 115.633 L 200.16 115.633 L 200.16 101.16 L 176.313 101.16 L 176.313 104.16 L 162.598 104.16 L 162.598 101.16 L 148.563 101.16 L 148.563 104.16 L 134.848 104.16 L 134.848 101.16 L 120.813 101.16 L 120.813 104.16 L 107.098 104.16 L 107.098 101.16 L 93.063 101.16 L 93.063 104.16 L 79.348 104.16 L 79.348 101.16 L 65.313 101.16 L 65.313 104.16 L 51.598 104.16 L 51.598 101.16 L 37.563 101.16 L 37.563 104.16 L 23.847 104.16 L 23.847 101.16 L 0 101.16 L 0 115.633 L 3 115.633 L 3 129.348 L 0 129.348 L 0 143.383 L 3 143.383 L 3 157.098 L 0 157.098 L 0 171.133 L 3 171.133 L 3 184.848 L 0 184.848 L 0 199.32 L 23.847 199.32 L 23.847 196.32 Z" id="front_outsideCutPath" stroke="#FF0000" stroke-width="0.1" style="stroke:#FF0000;stroke-width:0.1" vector-effect="non-scaling-stroke"/><path d="M 114.387 157.655 L 112.796 157.655 L 112.796 150.858 A 4.498 4.498 0 0 0 112.744 150.153 Q 112.622 149.386 112.211 148.941 A 1.794 1.794 0 0 0 111.475 148.471 Q 111.186 148.369 110.831 148.331 A 4.219 4.219 0 0 0 110.38 148.308 Q 109.294 148.308 108.591 148.695 A 2.244 2.244 0 0 0 107.964 149.2 Q 107.198 150.091 107.198 152.143 L 107.198 157.655 L 105.606 157.655 L 105.606 147.148 L 106.9 147.148 L 107.159 148.586 L 107.236 148.586 A 3.222 3.222 0 0 1 108.498 147.438 A 3.875 3.875 0 0 1 108.607 147.383 A 4.309 4.309 0 0 1 110.14 146.974 A 5.21 5.21 0 0 1 110.572 146.957 A 6.283 6.283 0 0 1 111.641 147.042 Q 112.762 147.236 113.428 147.872 Q 114.158 148.568 114.332 149.9 A 6.944 6.944 0 0 1 114.387 150.801 L 114.387 157.655 Z M 83.817 147.148 L 83.817 148.385 L 81.143 148.385 L 81.143 157.655 L 79.552 157.655 L 79.552 148.385 L 77.673 148.385 L 77.673 147.666 L 79.552 147.091 L 79.552 146.506 A 6.449 6.449 0 0 1 79.702 145.045 Q 80.168 143.051 82.073 142.706 A 4.837 4.837 0 0 1 82.936 142.633 A 5.124 5.124 0 0 1 83.661 142.689 Q 84.013 142.739 84.406 142.836 A 10.301 10.301 0 0 1 84.891 142.969 L 84.479 144.244 Q 83.825 144.033 83.307 143.972 A 3.422 3.422 0 0 0 82.907 143.947 A 2.146 2.146 0 0 0 82.389 144.005 A 1.378 1.378 0 0 0 81.574 144.546 A 1.841 1.841 0 0 0 81.331 145.037 Q 81.169 145.516 81.147 146.228 A 7.513 7.513 0 0 0 81.143 146.468 L 81.143 147.148 L 83.817 147.148 Z M 122.487 156.341 L 122.487 157.559 Q 122.253 157.671 121.82 157.749 A 5.951 5.951 0 0 1 121.725 157.765 A 6.897 6.897 0 0 1 121.275 157.823 Q 121.063 157.843 120.873 157.846 A 4.08 4.08 0 0 1 120.819 157.846 A 4.156 4.156 0 0 1 119.594 157.681 Q 117.771 157.119 117.771 154.635 L 117.771 148.385 L 116.266 148.385 L 116.266 147.618 L 117.771 146.957 L 118.442 144.713 L 119.362 144.713 L 119.362 147.148 L 122.41 147.148 L 122.41 148.385 L 119.362 148.385 L 119.362 154.568 A 3.204 3.204 0 0 0 119.408 155.131 Q 119.464 155.439 119.585 155.684 A 1.543 1.543 0 0 0 119.813 156.025 A 1.478 1.478 0 0 0 120.721 156.509 A 2.127 2.127 0 0 0 121.049 156.533 Q 121.471 156.533 121.864 156.471 A 8.608 8.608 0 0 0 122.094 156.431 Q 122.313 156.39 122.466 156.347 A 2.39 2.39 0 0 0 122.487 156.341 Z M 91.783 147.072 L 91.563 148.548 Q 90.911 148.404 90.413 148.404 A 2.757 2.757 0 0 0 88.376 149.284 A 3.772 3.772 0 0 0 88.232 149.439 A 3.634 3.634 0 0 0 87.355 151.48 A 4.83 4.83 0 0 0 87.326 152.018 L 87.326 157.655 L 85.735 157.655 L 85.735 147.148 L 87.048 147.148 L 87.23 149.094 L 87.307 149.094 A 5.374 5.374 0 0 1 87.908 148.236 A 4.105 4.105 0 0 1 88.716 147.513 A 3.172 3.172 0 0 1 90.528 146.957 A 7.305 7.305 0 0 1 91.182 146.984 A 5.332 5.332 0 0 1 91.783 147.072 Z M 101.523 156.404 A 4.439 4.439 0 0 0 102.051 155.677 Q 102.817 154.368 102.817 152.392 Q 102.817 149.89 101.518 148.423 A 4.166 4.166 0 0 0 99.584 147.176 A 5.347 5.347 0 0 0 98.014 146.957 A 6.18 6.18 0 0 0 96.904 147.052 A 4.209 4.209 0 0 0 94.448 148.39 A 4.396 4.396 0 0 0 93.908 149.138 Q 93.492 149.863 93.309 150.794 A 8.262 8.262 0 0 0 93.164 152.392 A 7.96 7.96 0 0 0 93.264 153.681 A 5.887 5.887 0 0 0 93.758 155.287 Q 94.352 156.523 95.445 157.185 A 4.431 4.431 0 0 0 96.462 157.637 A 5.11 5.11 0 0 0 97.947 157.846 A 6.179 6.179 0 0 0 99.026 157.756 A 4.242 4.242 0 0 0 101.523 156.404 Z M 94.813 152.392 A 8.058 8.058 0 0 0 94.889 153.543 Q 95.061 154.73 95.618 155.459 A 2.608 2.608 0 0 0 97.316 156.46 A 3.952 3.952 0 0 0 97.985 156.514 A 3.696 3.696 0 0 0 98.961 156.393 A 2.572 2.572 0 0 0 100.358 155.464 Q 100.96 154.684 101.115 153.365 A 8.382 8.382 0 0 0 101.168 152.392 Q 101.168 151.107 100.835 150.218 A 3.276 3.276 0 0 0 100.358 149.348 A 2.618 2.618 0 0 0 98.731 148.377 A 4.013 4.013 0 0 0 97.966 148.308 A 3.787 3.787 0 0 0 97.023 148.419 A 2.534 2.534 0 0 0 95.608 149.334 Q 95.035 150.072 94.875 151.332 A 8.409 8.409 0 0 0 94.813 152.392 Z" id="front_labelLayer" stroke="#777777" fill="#777777" style="stroke:#777777;fill:#777777" vector-effect="non-scaling-stroke"/><path d="M 223.883 196.32 L 237.598 196.32 L 237.598 199.32 L 255.32 199.32 L 255.32 185.008 L 258.32 185.008 L 258.32 170.973 L 255.32 170.973 L 255.32 157.258 L 258.32 157.258 L 258.32 143.223 L 255.32 143.223 L 255.32 129.508 L 258.32 129.508 L 258.32 115.473 L 255.32 115.473 L 255.32 101.16 L 237.598 101.16 L 237.598 104.16 L 223.883 104.16 L 223.883 101.16 L 206.16 101.16 L 206.16 115.473 L 203.16 115.473 L 203.16 129.508 L 206.16 129.508 L 206.16 143.223 L 203.16 143.223 L 203.16 157.258 L 206.16 157.258 L 206.16 170.973 L 203.16 170.973 L 203.16 185.008 L 206.16 185.008 L 206.16 199.32 L 223.883 199.32 L 223.883 196.32 Z" id="left_outsideCutPath" stroke="#FF0000" stroke-width="0.1" style="stroke:#FF0000;stroke-width:0.1" vector-effect="non-scaling-stroke"/><path d="M 234.664 148.503 L 234.664 149.198 L 233.161 149.198 L 233.161 154.407 L 232.267 154.407 L 232.267 149.198 L 231.211 149.198 L 231.211 148.794 L 232.267 148.47 L 232.267 148.142 A 3.624 3.624 0 0 1 232.352 147.32 Q 232.613 146.2 233.684 146.006 A 2.718 2.718 0 0 1 234.169 145.966 A 2.88 2.88 0 0 1 234.576 145.997 Q 234.774 146.025 234.995 146.079 A 5.788 5.788 0 0 1 235.268 146.154 L 235.036 146.87 Q 234.669 146.752 234.377 146.718 A 1.923 1.923 0 0 0 234.152 146.704 A 1.206 1.206 0 0 0 233.862 146.736 A 0.774 0.774 0 0 0 233.404 147.04 A 1.035 1.035 0 0 0 233.267 147.316 Q 233.176 147.585 233.163 147.986 A 4.222 4.222 0 0 0 233.161 148.12 L 233.161 148.503 L 234.664 148.503 Z M 230.479 151.051 L 230.479 151.616 L 226.412 151.616 Q 226.43 152.326 226.669 152.803 A 1.679 1.679 0 0 0 226.937 153.194 Q 227.435 153.733 228.34 153.733 Q 229.294 153.733 230.226 153.335 L 230.226 154.132 A 5.368 5.368 0 0 1 229.736 154.317 A 4.105 4.105 0 0 1 229.329 154.425 A 3.754 3.754 0 0 1 228.956 154.483 Q 228.663 154.514 228.308 154.514 Q 226.999 154.514 226.242 153.717 Q 225.485 152.92 225.485 151.503 Q 225.485 150.34 225.952 149.566 A 2.648 2.648 0 0 1 226.188 149.235 A 2.291 2.291 0 0 1 227.858 148.402 A 3.161 3.161 0 0 1 228.076 148.395 A 2.724 2.724 0 0 1 228.843 148.498 A 2.073 2.073 0 0 1 229.832 149.125 A 2.5 2.5 0 0 1 230.399 150.267 A 3.639 3.639 0 0 1 230.479 151.051 Z M 238.456 153.669 L 238.456 154.353 A 0.88 0.88 0 0 1 238.352 154.394 Q 238.223 154.437 238.028 154.468 Q 237.764 154.511 237.549 154.514 A 2.291 2.291 0 0 1 237.519 154.514 Q 235.806 154.514 235.806 152.71 L 235.806 149.198 L 234.96 149.198 L 234.96 148.767 L 235.806 148.395 L 236.183 147.134 L 236.7 147.134 L 236.7 148.503 L 238.413 148.503 L 238.413 149.198 L 236.7 149.198 L 236.7 152.672 A 1.801 1.801 0 0 0 236.726 152.988 Q 236.757 153.162 236.825 153.299 A 0.867 0.867 0 0 0 236.954 153.491 A 0.831 0.831 0 0 0 237.464 153.763 A 1.195 1.195 0 0 0 237.648 153.776 Q 237.885 153.776 238.106 153.741 Q 238.317 153.708 238.444 153.672 A 1.344 1.344 0 0 0 238.456 153.669 Z M 223.918 146.025 L 223.918 154.407 L 223.024 154.407 L 223.024 146.025 L 223.918 146.025 Z M 226.433 150.889 L 229.52 150.889 A 3.047 3.047 0 0 0 229.483 150.399 Q 229.44 150.136 229.347 149.926 A 1.383 1.383 0 0 0 229.143 149.593 A 1.225 1.225 0 0 0 228.405 149.174 A 1.838 1.838 0 0 0 228.065 149.144 A 1.763 1.763 0 0 0 227.556 149.214 A 1.362 1.362 0 0 0 226.932 149.607 A 1.766 1.766 0 0 0 226.58 150.199 Q 226.491 150.443 226.451 150.736 A 3.378 3.378 0 0 0 226.433 150.889 Z" id="left_labelLayer" stroke="#777777" fill="#777777" style="stroke:#777777;fill:#777777" vector-effect="non-scaling-stroke"/><path d="M 299.042 196.32 L 312.758 196.32 L 312.758 199.32 L 326.792 199.32 L 326.792 196.32 L 340.508 196.32 L 340.508 199.32 L 354.542 199.32 L 354.542 196.32 L 368.258 196.32 L 368.258 199.32 L 382.292 199.32 L 382.292 196.32 L 396.008 196.32 L 396.008 199.32 L 410.042 199.32 L 410.042 196.32 L 423.758 196.32 L 423.758 199.32 L 437.792 199.32 L 437.792 196.32 L 458.48 196.32 L 458.48 178.758 L 461.48 178.758 L 461.48 164.723 L 458.48 164.723 L 458.48 147.16 L 437.792 147.16 L 437.792 144.16 L 423.758 144.16 L 423.758 147.16 L 410.042 147.16 L 410.042 144.16 L 396.008 144.16 L 396.008 147.16 L 382.292 147.16 L 382.292 144.16 L 368.258 144.16 L 368.258 147.16 L 354.542 147.16 L 354.542 144.16 L 340.508 144.16 L 340.508 147.16 L 326.792 147.16 L 326.792 144.16 L 312.758 144.16 L 312.758 147.16 L 299.042 147.16 L 299.042 144.16 L 285.008 144.16 L 285.008 147.16 L 264.32 147.16 L 264.32 164.723 L 261.32 164.723 L 261.32 178.758 L 264.32 178.758 L 264.32 196.32 L 285.008 196.32 L 285.008 199.32 L 299.042 199.32 L 299.042 196.32 Z" id="top_outsideCutPath" stroke="#FF0000" stroke-width="0.1" style="stroke:#FF0000;stroke-width:0.1" vector-effect="non-scaling-stroke"/><path d="M 365.365 173.291 L 365.3 173.291 A 8.462 8.462 0 0 1 365.355 173.917 A 7.091 7.091 0 0 1 365.365 174.272 L 365.365 176.701 L 364.47 176.701 L 364.47 168.147 L 365.198 168.147 L 365.321 168.955 L 365.365 168.955 A 2.407 2.407 0 0 1 365.713 168.56 A 1.861 1.861 0 0 1 366.167 168.255 A 2.239 2.239 0 0 1 366.809 168.067 A 2.898 2.898 0 0 1 367.218 168.039 A 2.741 2.741 0 0 1 367.992 168.143 A 2.026 2.026 0 0 1 369.03 168.842 A 2.685 2.685 0 0 1 369.488 169.736 Q 369.607 170.122 369.647 170.586 A 5.823 5.823 0 0 1 369.669 171.094 Q 369.669 172.548 369.019 173.353 A 2.117 2.117 0 0 1 367.515 174.144 A 3.033 3.033 0 0 1 367.218 174.159 Q 366.641 174.159 366.165 173.946 Q 365.688 173.733 365.365 173.291 Z M 356.627 173.313 L 356.627 173.997 A 0.88 0.88 0 0 1 356.523 174.038 Q 356.394 174.081 356.199 174.113 Q 355.935 174.156 355.72 174.158 A 2.291 2.291 0 0 1 355.69 174.159 Q 353.977 174.159 353.977 172.354 L 353.977 168.842 L 353.131 168.842 L 353.131 168.411 L 353.977 168.039 L 354.354 166.779 L 354.871 166.779 L 354.871 168.147 L 356.584 168.147 L 356.584 168.842 L 354.871 168.842 L 354.871 172.316 A 1.801 1.801 0 0 0 354.897 172.633 Q 354.928 172.806 354.996 172.943 A 0.867 0.867 0 0 0 355.124 173.135 A 0.831 0.831 0 0 0 355.635 173.407 A 1.195 1.195 0 0 0 355.819 173.421 Q 356.056 173.421 356.277 173.386 Q 356.488 173.352 356.615 173.316 A 1.344 1.344 0 0 0 356.627 173.313 Z M 362.176 173.348 A 2.494 2.494 0 0 0 362.473 172.94 Q 362.903 172.204 362.903 171.094 A 5.248 5.248 0 0 0 362.901 170.952 Q 362.866 169.646 362.173 168.863 A 2.341 2.341 0 0 0 361.086 168.163 A 3.005 3.005 0 0 0 360.204 168.039 A 3.473 3.473 0 0 0 359.58 168.093 A 2.365 2.365 0 0 0 358.2 168.845 Q 357.721 169.379 357.56 170.196 A 4.643 4.643 0 0 0 357.478 171.094 A 4.473 4.473 0 0 0 357.535 171.818 A 3.308 3.308 0 0 0 357.812 172.72 A 2.939 2.939 0 0 0 357.877 172.848 A 2.421 2.421 0 0 0 358.76 173.787 A 2.49 2.49 0 0 0 359.332 174.041 A 2.872 2.872 0 0 0 360.166 174.159 Q 361.448 174.159 362.176 173.348 Z M 358.595 172.335 A 1.876 1.876 0 0 0 358.857 172.817 Q 359.31 173.41 360.188 173.41 A 2.077 2.077 0 0 0 360.736 173.342 A 1.445 1.445 0 0 0 361.521 172.82 A 1.92 1.92 0 0 0 361.82 172.238 Q 361.908 171.969 361.946 171.64 A 4.71 4.71 0 0 0 361.976 171.094 Q 361.976 169.968 361.521 169.383 A 1.471 1.471 0 0 0 360.607 168.838 A 2.255 2.255 0 0 0 360.177 168.799 A 2.128 2.128 0 0 0 359.647 168.861 A 1.424 1.424 0 0 0 358.852 169.375 A 1.849 1.849 0 0 0 358.565 169.931 Q 358.405 170.411 358.405 171.094 Q 358.405 171.828 358.595 172.335 Z M 365.365 170.894 L 365.365 171.094 A 5.912 5.912 0 0 0 365.394 171.705 Q 365.458 172.321 365.664 172.696 A 1.349 1.349 0 0 0 365.779 172.874 Q 366.151 173.354 366.926 173.404 A 2.875 2.875 0 0 0 367.11 173.41 A 1.507 1.507 0 0 0 367.696 173.3 Q 368.033 173.159 368.275 172.837 A 1.783 1.783 0 0 0 368.308 172.79 A 2.162 2.162 0 0 0 368.605 172.159 Q 368.742 171.695 368.742 171.083 A 4.512 4.512 0 0 0 368.7 170.443 Q 368.653 170.119 368.555 169.855 A 1.896 1.896 0 0 0 368.308 169.389 A 1.391 1.391 0 0 0 367.291 168.809 A 1.924 1.924 0 0 0 367.088 168.799 Q 366.183 168.799 365.779 169.3 Q 365.375 169.801 365.365 170.894 Z" id="top_labelLayer" stroke="#777777" fill="#777777" style="stroke:#777777;fill:#777777" vector-effect="non-scaling-stroke"/><path d="M 23.847 95.16 L 37.563 95.16 L 37.563 98.16 L 51.598 98.16 L 51.598 95.16 L 65.313 95.16 L 65.313 98.16 L 79.348 98.16 L 79.348 95.16 L 93.063 95.16 L 93.063 98.16 L 107.098 98.16 L 107.098 95.16 L 120.813 95.16 L 120.813 98.16 L 134.848 98.16 L 134.848 95.16 L 148.563 95.16 L 148.563 98.16 L 162.598 98.16 L 162.598 95.16 L 176.313 95.16 L 176.313 98.16 L 200.16 98.16 L 200.16 83.687 L 197.16 83.687 L 197.16 69.972 L 200.16 69.972 L 200.16 55.937 L 197.16 55.937 L 197.16 42.223 L 200.16 42.223 L 200.16 28.188 L 197.16 28.188 L 197.16 14.472 L 200.16 14.472 L 200.16 0 L 176.313 0 L 176.313 3 L 162.598 3 L 162.598 0 L 148.563 0 L 148.563 3 L 134.848 3 L 134.848 0 L 120.813 0 L 120.813 3 L 107.098 3 L 107.098 0 L 93.063 0 L 93.063 3 L 79.348 3 L 79.348 0 L 65.313 0 L 65.313 3 L 51.598 3 L 51.598 0 L 37.563 0 L 37.563 3 L 23.847 3 L 23.847 0 L 0 0 L 0 14.472 L 3 14.472 L 3 28.188 L 0 28.188 L 0 42.223 L 3 42.223 L 3 55.937 L 0 55.937 L 0 69.972 L 3 69.972 L 3 83.687 L 0 83.687 L 0 98.16 L 23.847 98.16 L 23.847 95.16 Z" id="back_outsideCutPath" stroke="#FF0000" stroke-width="0.1" style="stroke:#FF0000;stroke-width:0.1" vector-effect="non-scaling-stroke"/><path d="M 113.519 51.064 L 113.596 51.064 A 9.42 9.42 0 0 1 113.829 50.749 Q 114.097 50.401 114.48 49.955 A 34.191 34.191 0 0 1 114.852 49.53 L 118.245 45.936 L 120.134 45.936 L 115.878 50.412 L 120.431 56.442 L 118.504 56.442 L 114.794 51.476 L 113.596 52.512 L 113.596 56.442 L 112.024 56.442 L 112.024 41.526 L 113.596 41.526 L 113.596 49.435 A 10.603 10.603 0 0 1 113.591 49.734 Q 113.577 50.225 113.522 51.024 A 65.875 65.875 0 0 1 113.519 51.064 Z M 81.32 55.09 L 81.205 55.09 L 80.87 56.442 L 79.729 56.442 L 79.729 41.526 L 81.32 41.526 L 81.32 45.15 A 33.177 33.177 0 0 1 81.302 46.271 Q 81.284 46.801 81.248 47.273 A 19.872 19.872 0 0 1 81.244 47.335 L 81.32 47.335 A 3.618 3.618 0 0 1 83.961 45.802 A 5.435 5.435 0 0 1 84.618 45.763 A 4.863 4.863 0 0 1 85.987 45.946 A 3.641 3.641 0 0 1 87.834 47.177 Q 88.751 48.309 88.934 50.195 A 10.214 10.214 0 0 1 88.979 51.179 Q 88.979 53.767 87.824 55.201 Q 86.669 56.634 84.618 56.634 A 4.827 4.827 0 0 1 83.405 56.486 A 4.2 4.2 0 0 1 82.744 56.255 A 3.524 3.524 0 0 1 81.32 55.09 Z M 99.399 56.442 L 98.22 56.442 L 97.904 54.946 L 97.827 54.946 A 6.597 6.597 0 0 1 97.294 55.544 Q 97.006 55.826 96.72 56.023 A 2.932 2.932 0 0 1 96.26 56.284 Q 95.616 56.572 94.708 56.623 A 7.161 7.161 0 0 1 94.309 56.634 Q 93.059 56.634 92.242 56.118 A 2.74 2.74 0 0 1 91.86 55.828 A 2.616 2.616 0 0 1 91.071 54.449 A 4.004 4.004 0 0 1 90.973 53.537 Q 90.973 50.355 96.063 50.201 L 97.846 50.144 L 97.846 49.492 A 4.57 4.57 0 0 0 97.802 48.831 Q 97.693 48.085 97.314 47.666 Q 96.89 47.196 96.06 47.101 A 3.932 3.932 0 0 0 95.613 47.076 A 5.181 5.181 0 0 0 94.421 47.225 Q 93.874 47.355 93.278 47.597 A 10.657 10.657 0 0 0 92.641 47.882 L 92.152 46.664 A 7.337 7.337 0 0 1 93.568 46.082 A 8.352 8.352 0 0 1 93.854 46.003 A 7.369 7.369 0 0 1 95.709 45.763 A 6.721 6.721 0 0 1 96.732 45.836 Q 97.855 46.009 98.494 46.597 A 2.52 2.52 0 0 1 99.144 47.6 Q 99.296 48.012 99.357 48.524 A 6.261 6.261 0 0 1 99.399 49.272 L 99.399 56.442 Z M 109.685 46.29 L 109.196 47.642 A 7.079 7.079 0 0 0 108.428 47.387 A 8.455 8.455 0 0 0 108.046 47.292 Q 107.513 47.173 107.085 47.156 A 3.527 3.527 0 0 0 106.944 47.153 A 3.53 3.53 0 0 0 105.51 47.422 Q 104.008 48.085 103.782 50.375 A 8.793 8.793 0 0 0 103.742 51.237 Q 103.742 52.507 104.078 53.39 A 3.301 3.301 0 0 0 104.523 54.208 A 2.527 2.527 0 0 0 106.16 55.187 A 3.85 3.85 0 0 0 106.838 55.244 A 6.661 6.661 0 0 0 108.676 54.976 A 8.225 8.225 0 0 0 109.532 54.678 L 109.532 56.087 Q 108.626 56.556 107.318 56.623 A 8.726 8.726 0 0 1 106.876 56.634 A 5.947 5.947 0 0 1 105.43 56.468 A 4.033 4.033 0 0 1 103.344 55.229 A 4.603 4.603 0 0 1 102.387 53.471 Q 102.176 52.773 102.116 51.934 A 9.622 9.622 0 0 1 102.093 51.256 Q 102.093 49.347 102.759 48.067 A 4.387 4.387 0 0 1 103.363 47.182 Q 104.633 45.744 106.982 45.744 A 7.181 7.181 0 0 1 108.496 45.907 A 7.943 7.943 0 0 1 108.938 46.014 Q 109.389 46.139 109.685 46.29 Z M 84.388 47.096 A 4.472 4.472 0 0 0 83.522 47.174 Q 83.029 47.271 82.654 47.491 A 2.116 2.116 0 0 0 82.039 48.03 A 2.724 2.724 0 0 0 81.645 48.781 Q 81.379 49.527 81.331 50.66 A 12.26 12.26 0 0 0 81.32 51.179 A 10.521 10.521 0 0 0 81.372 52.267 Q 81.487 53.364 81.853 54.031 A 2.4 2.4 0 0 0 82.058 54.347 Q 82.72 55.202 84.098 55.291 A 5.117 5.117 0 0 0 84.426 55.301 A 3.172 3.172 0 0 0 85.327 55.181 A 2.288 2.288 0 0 0 86.612 54.232 A 3.653 3.653 0 0 0 87.064 53.255 Q 87.331 52.381 87.331 51.16 A 9.401 9.401 0 0 0 87.274 50.089 Q 87.139 48.917 86.685 48.21 A 2.64 2.64 0 0 0 86.612 48.102 A 2.321 2.321 0 0 0 85.134 47.167 A 3.68 3.68 0 0 0 84.388 47.096 Z M 97.808 52.224 L 97.808 51.275 L 96.217 51.342 Q 94.632 51.398 93.786 51.772 A 2.444 2.444 0 0 0 93.48 51.932 Q 92.641 52.454 92.641 53.557 A 2.274 2.274 0 0 0 92.698 54.078 Q 92.792 54.479 93.045 54.755 A 1.417 1.417 0 0 0 93.164 54.87 Q 93.615 55.259 94.377 55.312 A 3.579 3.579 0 0 0 94.626 55.32 A 4.381 4.381 0 0 0 95.572 55.224 Q 96.231 55.078 96.717 54.712 A 2.657 2.657 0 0 0 96.96 54.506 A 2.665 2.665 0 0 0 97.703 53.175 Q 97.808 52.74 97.808 52.224 Z" id="back_labelLayer" stroke="#777777" fill="#777777" style="stroke:#777777;fill:#777777" vector-effect="non-scaling-stroke"/><path d="M 223.883 95.16 L 237.598 95.16 L 237.598 98.16 L 255.32 98.16 L 255.32 83.847 L 258.32 83.847 L 258.32 69.813 L 255.32 69.813 L 255.32 56.098 L 258.32 56.098 L 258.32 42.062 L 255.32 42.062 L 255.32 28.347 L 258.32 28.347 L 258.32 14.313 L 255.32 14.313 L 255.32 0 L 237.598 0 L 237.598 3 L 223.883 3 L 223.883 0 L 206.16 0 L 206.16 14.313 L 203.16 14.313 L 203.16 28.347 L 206.16 28.347 L 206.16 42.062 L 203.16 42.062 L 203.16 56.098 L 206.16 56.098 L 206.16 69.813 L 203.16 69.813 L 203.16 83.847 L 206.16 83.847 L 206.16 98.16 L 223.883 98.16 L 223.883 95.16 Z" id="right_outsideCutPath" stroke="#FF0000" stroke-width="0.1" style="stroke:#FF0000;stroke-width:0.1" vector-effect="non-scaling-stroke"/><path d="M 237.6 51.946 L 236.706 51.946 L 236.706 48.127 Q 236.706 47.666 236.572 47.355 A 1.064 1.064 0 0 0 236.377 47.049 Q 236.049 46.694 235.348 46.694 A 2.706 2.706 0 0 0 234.842 46.738 Q 234.562 46.791 234.346 46.91 A 1.252 1.252 0 0 0 233.988 47.2 Q 233.56 47.706 233.56 48.859 L 233.56 51.946 L 232.666 51.946 L 232.666 43.564 L 233.56 43.564 L 233.56 46.101 Q 233.56 46.431 233.538 46.679 A 3.498 3.498 0 0 1 233.517 46.861 L 233.571 46.861 A 1.787 1.787 0 0 1 234.197 46.258 A 2.183 2.183 0 0 1 234.322 46.19 Q 234.81 45.945 235.435 45.945 A 3.628 3.628 0 0 1 236.044 45.993 Q 236.682 46.102 237.059 46.459 Q 237.6 46.974 237.6 48.094 L 237.6 51.946 Z M 229.412 46.042 L 231.454 46.042 L 231.454 46.607 L 230.36 46.737 A 1.453 1.453 0 0 1 230.486 46.924 Q 230.563 47.058 230.63 47.23 A 1.72 1.72 0 0 1 230.731 47.641 A 2.209 2.209 0 0 1 230.748 47.916 Q 230.748 48.784 230.156 49.301 A 1.983 1.983 0 0 1 229.375 49.712 Q 229.08 49.795 228.729 49.813 A 3.884 3.884 0 0 1 228.529 49.818 A 2.874 2.874 0 0 1 228.196 49.799 A 2.427 2.427 0 0 1 228.033 49.775 A 1.591 1.591 0 0 0 227.777 49.941 Q 227.644 50.048 227.567 50.17 A 0.673 0.673 0 0 0 227.462 50.534 A 0.463 0.463 0 0 0 227.486 50.686 Q 227.529 50.81 227.649 50.885 A 0.496 0.496 0 0 0 227.661 50.893 A 0.627 0.627 0 0 0 227.801 50.95 Q 228.001 51.008 228.346 51.008 L 229.391 51.008 A 3.66 3.66 0 0 1 229.947 51.048 Q 230.51 51.135 230.864 51.412 A 1.308 1.308 0 0 1 231.35 52.246 A 1.965 1.965 0 0 1 231.378 52.587 Q 231.378 53.548 230.622 54.061 A 2.127 2.127 0 0 1 230.592 54.082 Q 230.043 54.44 229.144 54.549 A 7.087 7.087 0 0 1 228.297 54.596 A 5.01 5.01 0 0 1 227.625 54.554 Q 226.943 54.461 226.511 54.165 Q 225.924 53.762 225.886 53.048 A 1.888 1.888 0 0 1 225.884 52.948 A 1.367 1.367 0 0 1 226.229 52.016 A 1.561 1.561 0 0 1 226.765 51.625 A 2.213 2.213 0 0 1 227.198 51.482 A 0.928 0.928 0 0 1 226.838 51.191 A 1.102 1.102 0 0 1 226.818 51.165 A 0.829 0.829 0 0 1 226.666 50.717 A 1.027 1.027 0 0 1 226.665 50.664 A 1.023 1.023 0 0 1 226.716 50.334 A 0.906 0.906 0 0 1 226.837 50.098 Q 226.968 49.915 227.212 49.741 A 2.809 2.809 0 0 1 227.381 49.629 A 1.568 1.568 0 0 1 226.7 49.084 A 1.943 1.943 0 0 1 226.635 48.988 A 1.849 1.849 0 0 1 226.352 48.098 A 2.256 2.256 0 0 1 226.347 47.954 A 2.583 2.583 0 0 1 226.415 47.343 A 1.7 1.7 0 0 1 226.929 46.459 A 1.899 1.899 0 0 1 227.658 46.057 Q 227.947 45.969 228.296 45.944 A 3.949 3.949 0 0 1 228.577 45.934 Q 229.04 45.934 229.412 46.042 Z M 242.152 51.208 L 242.152 51.892 A 0.88 0.88 0 0 1 242.047 51.933 Q 241.918 51.976 241.724 52.008 Q 241.459 52.05 241.245 52.053 A 2.291 2.291 0 0 1 241.214 52.053 Q 239.501 52.053 239.501 50.249 L 239.501 46.737 L 238.656 46.737 L 238.656 46.306 L 239.501 45.934 L 239.879 44.674 L 240.396 44.674 L 240.396 46.042 L 242.109 46.042 L 242.109 46.737 L 240.396 46.737 L 240.396 50.211 A 1.801 1.801 0 0 0 240.422 50.527 Q 240.453 50.701 240.521 50.838 A 0.867 0.867 0 0 0 240.649 51.03 A 0.831 0.831 0 0 0 241.16 51.302 A 1.195 1.195 0 0 0 241.344 51.315 Q 241.581 51.315 241.802 51.28 Q 242.012 51.247 242.14 51.211 A 1.344 1.344 0 0 0 242.152 51.208 Z M 222.727 45.999 L 222.603 46.828 A 3.941 3.941 0 0 0 222.32 46.776 Q 222.179 46.756 222.053 46.75 A 2.097 2.097 0 0 0 221.957 46.748 A 1.549 1.549 0 0 0 220.812 47.242 A 2.12 2.12 0 0 0 220.731 47.329 Q 220.222 47.911 220.222 48.778 L 220.222 51.946 L 219.328 51.946 L 219.328 46.042 L 220.066 46.042 L 220.169 47.135 L 220.212 47.135 A 3.02 3.02 0 0 1 220.549 46.653 A 2.307 2.307 0 0 1 221.004 46.247 A 1.783 1.783 0 0 1 222.022 45.934 A 4.105 4.105 0 0 1 222.389 45.95 A 2.996 2.996 0 0 1 222.727 45.999 Z M 224.726 46.042 L 224.726 51.946 L 223.832 51.946 L 223.832 46.042 L 224.726 46.042 Z M 229.105 51.811 L 228.033 51.811 A 2.056 2.056 0 0 0 227.663 51.842 Q 227.313 51.906 227.085 52.102 A 0.942 0.942 0 0 0 226.776 52.636 A 1.431 1.431 0 0 0 226.746 52.937 A 0.898 0.898 0 0 0 226.805 53.27 Q 226.9 53.511 227.15 53.664 A 1.432 1.432 0 0 0 227.502 53.815 Q 227.834 53.911 228.301 53.912 A 4.505 4.505 0 0 0 228.308 53.912 Q 229.434 53.912 229.975 53.575 Q 230.516 53.239 230.516 52.662 A 1.21 1.21 0 0 0 230.494 52.422 Q 230.466 52.284 230.403 52.181 A 0.564 0.564 0 0 0 230.22 51.997 Q 229.995 51.855 229.466 51.822 A 5.69 5.69 0 0 0 229.105 51.811 Z M 227.231 47.933 A 1.745 1.745 0 0 0 227.266 48.298 Q 227.315 48.525 227.43 48.696 A 0.957 0.957 0 0 0 227.581 48.87 Q 227.931 49.188 228.556 49.188 A 1.948 1.948 0 0 0 229.066 49.127 Q 229.649 48.968 229.807 48.395 A 1.811 1.811 0 0 0 229.865 47.916 A 1.923 1.923 0 0 0 229.799 47.39 Q 229.57 46.586 228.54 46.586 A 1.876 1.876 0 0 0 228.157 46.622 Q 227.923 46.671 227.744 46.785 A 1.029 1.029 0 0 0 227.57 46.925 A 1.073 1.073 0 0 0 227.31 47.363 Q 227.255 47.532 227.238 47.738 A 2.352 2.352 0 0 0 227.231 47.933 Z M 223.769 44.278 A 0.991 0.991 0 0 0 223.756 44.442 A 1.056 1.056 0 0 0 223.761 44.543 Q 223.783 44.77 223.907 44.892 A 0.502 0.502 0 0 0 224.088 45.007 A 0.568 0.568 0 0 0 224.284 45.04 A 0.522 0.522 0 0 0 224.656 44.892 A 0.436 0.436 0 0 0 224.741 44.779 Q 224.812 44.645 224.812 44.442 Q 224.812 44.14 224.656 43.995 Q 224.499 43.849 224.284 43.849 A 0.683 0.683 0 0 0 224.239 43.851 A 0.517 0.517 0 0 0 223.907 43.992 A 0.418 0.418 0 0 0 223.815 44.123 Q 223.783 44.192 223.769 44.278 Z" id="right_labelLayer" stroke="#777777" fill="#777777" style="stroke:#777777;fill:#777777" vector-effect="non-scaling-stroke"/><path d="M 299.042 138.16 L 312.758 138.16 L 312.758 141.16 L 326.792 141.16 L 326.792 138.16 L 340.508 138.16 L 340.508 141.16 L 354.542 141.16 L 354.542 138.16 L 368.258 138.16 L 368.258 141.16 L 382.292 141.16 L 382.292 138.16 L 396.008 138.16 L 396.008 141.16 L 410.042 141.16 L 410.042 138.16 L 423.758 138.16 L 423.758 141.16 L 437.792 141.16 L 437.792 138.16 L 458.48 138.16 L 458.48 120.598 L 461.48 120.598 L 461.48 106.563 L 458.48 106.563 L 458.48 89 L 437.792 89 L 437.792 86 L 423.758 86 L 423.758 89 L 410.042 89 L 410.042 86 L 396.008 86 L 396.008 89 L 382.292 89 L 382.292 86 L 368.258 86 L 368.258 89 L 354.542 89 L 354.542 86 L 340.508 86 L 340.508 89 L 326.792 89 L 326.792 86 L 312.758 86 L 312.758 89 L 299.042 89 L 299.042 86 L 285.008 86 L 285.008 89 L 264.32 89 L 264.32 106.563 L 261.32 106.563 L 261.32 120.598 L 264.32 120.598 L 264.32 138.16 L 285.008 138.16 L 285.008 141.16 L 299.042 141.16 L 299.042 138.16 Z" id="bottom_outsideCutPath" stroke="#FF0000" stroke-width="0.1" style="stroke:#FF0000;stroke-width:0.1" vector-effect="non-scaling-stroke"/><path d="M 379.548 117.717 L 378.654 117.717 L 378.654 113.876 Q 378.654 113.17 378.352 112.818 A 0.941 0.941 0 0 0 377.915 112.535 Q 377.759 112.484 377.569 112.47 A 2.076 2.076 0 0 0 377.415 112.465 A 2.301 2.301 0 0 0 376.946 112.509 Q 376.458 112.611 376.181 112.944 A 1.478 1.478 0 0 0 375.931 113.398 Q 375.784 113.81 375.783 114.411 A 5.011 5.011 0 0 0 375.783 114.42 L 375.783 117.717 L 374.888 117.717 L 374.888 113.876 Q 374.888 113.17 374.587 112.818 Q 374.285 112.465 373.644 112.465 Q 373.058 112.465 372.69 112.71 A 1.172 1.172 0 0 0 372.413 112.968 A 1.5 1.5 0 0 0 372.191 113.391 Q 372.047 113.799 372.026 114.41 A 6.226 6.226 0 0 0 372.023 114.619 L 372.023 117.717 L 371.128 117.717 L 371.128 111.813 L 371.856 111.813 L 372.001 112.621 L 372.044 112.621 A 1.757 1.757 0 0 1 372.758 111.948 Q 373.218 111.705 373.789 111.705 A 2.928 2.928 0 0 1 374.448 111.774 Q 375.285 111.968 375.599 112.707 L 375.642 112.707 A 1.867 1.867 0 0 1 376.346 112.009 A 2.243 2.243 0 0 1 376.407 111.975 A 2.263 2.263 0 0 1 377.238 111.722 A 2.822 2.822 0 0 1 377.549 111.705 Q 378.225 111.705 378.671 111.939 A 1.474 1.474 0 0 1 379.05 112.22 Q 379.412 112.594 379.511 113.296 A 4.101 4.101 0 0 1 379.548 113.865 L 379.548 117.717 Z M 344.146 116.957 L 344.082 116.957 L 343.893 117.717 L 343.252 117.717 L 343.252 109.335 L 344.146 109.335 L 344.146 111.371 Q 344.146 112.055 344.103 112.599 L 344.146 112.599 A 2.033 2.033 0 0 1 345.63 111.738 A 3.054 3.054 0 0 1 345.999 111.716 A 2.733 2.733 0 0 1 346.768 111.819 A 2.046 2.046 0 0 1 347.807 112.511 Q 348.322 113.147 348.425 114.206 A 5.74 5.74 0 0 1 348.45 114.76 Q 348.45 116.214 347.801 117.019 A 2.117 2.117 0 0 1 346.297 117.81 A 3.033 3.033 0 0 1 345.999 117.825 Q 345.423 117.825 344.946 117.612 Q 344.47 117.399 344.146 116.957 Z M 359.391 116.979 L 359.391 117.663 A 0.88 0.88 0 0 1 359.286 117.704 Q 359.157 117.747 358.962 117.779 Q 358.698 117.822 358.484 117.824 A 2.291 2.291 0 0 1 358.453 117.825 Q 356.74 117.825 356.74 116.02 L 356.74 112.508 L 355.895 112.508 L 355.895 112.077 L 356.74 111.705 L 357.118 110.445 L 357.635 110.445 L 357.635 111.813 L 359.348 111.813 L 359.348 112.508 L 357.635 112.508 L 357.635 115.982 A 1.801 1.801 0 0 0 357.661 116.299 Q 357.692 116.472 357.76 116.609 A 0.867 0.867 0 0 0 357.888 116.801 A 0.831 0.831 0 0 0 358.398 117.073 A 1.195 1.195 0 0 0 358.583 117.087 Q 358.82 117.087 359.041 117.052 Q 359.251 117.018 359.379 116.982 A 1.344 1.344 0 0 0 359.391 116.979 Z M 363.285 116.979 L 363.285 117.663 A 0.88 0.88 0 0 1 363.181 117.704 Q 363.052 117.747 362.857 117.779 Q 362.593 117.822 362.378 117.824 A 2.291 2.291 0 0 1 362.348 117.825 Q 360.635 117.825 360.635 116.02 L 360.635 112.508 L 359.789 112.508 L 359.789 112.077 L 360.635 111.705 L 361.012 110.445 L 361.529 110.445 L 361.529 111.813 L 363.242 111.813 L 363.242 112.508 L 361.529 112.508 L 361.529 115.982 A 1.801 1.801 0 0 0 361.555 116.299 Q 361.586 116.472 361.654 116.609 A 0.867 0.867 0 0 0 361.782 116.801 A 0.831 0.831 0 0 0 362.293 117.073 A 1.195 1.195 0 0 0 362.477 117.087 Q 362.714 117.087 362.935 117.052 Q 363.146 117.018 363.273 116.982 A 1.344 1.344 0 0 0 363.285 116.979 Z M 354.381 117.014 A 2.494 2.494 0 0 0 354.678 116.606 Q 355.108 115.87 355.108 114.76 A 5.248 5.248 0 0 0 355.106 114.618 Q 355.071 113.312 354.378 112.529 A 2.341 2.341 0 0 0 353.292 111.829 A 3.005 3.005 0 0 0 352.41 111.705 A 3.473 3.473 0 0 0 351.786 111.759 A 2.365 2.365 0 0 0 350.406 112.511 Q 349.926 113.045 349.765 113.862 A 4.643 4.643 0 0 0 349.684 114.76 A 4.473 4.473 0 0 0 349.74 115.484 A 3.308 3.308 0 0 0 350.018 116.386 A 2.939 2.939 0 0 0 350.083 116.514 A 2.421 2.421 0 0 0 350.966 117.453 A 2.49 2.49 0 0 0 351.537 117.707 A 2.872 2.872 0 0 0 352.372 117.825 Q 353.654 117.825 354.381 117.014 Z M 368.834 117.014 A 2.494 2.494 0 0 0 369.131 116.606 Q 369.561 115.87 369.561 114.76 A 5.248 5.248 0 0 0 369.559 114.618 Q 369.524 113.312 368.831 112.529 A 2.341 2.341 0 0 0 367.744 111.829 A 3.005 3.005 0 0 0 366.862 111.705 A 3.473 3.473 0 0 0 366.238 111.759 A 2.365 2.365 0 0 0 364.858 112.511 Q 364.379 113.045 364.218 113.862 A 4.643 4.643 0 0 0 364.136 114.76 A 4.473 4.473 0 0 0 364.193 115.484 A 3.308 3.308 0 0 0 364.47 116.386 A 2.939 2.939 0 0 0 364.535 116.514 A 2.421 2.421 0 0 0 365.418 117.453 A 2.49 2.49 0 0 0 365.99 117.707 A 2.872 2.872 0 0 0 366.824 117.825 Q 368.106 117.825 368.834 117.014 Z M 350.801 116.001 A 1.876 1.876 0 0 0 351.063 116.483 Q 351.515 117.076 352.393 117.076 A 2.077 2.077 0 0 0 352.941 117.008 A 1.445 1.445 0 0 0 353.727 116.486 A 1.92 1.92 0 0 0 354.025 115.904 Q 354.113 115.635 354.152 115.306 A 4.71 4.71 0 0 0 354.182 114.76 Q 354.182 113.634 353.727 113.049 A 1.471 1.471 0 0 0 352.812 112.504 A 2.255 2.255 0 0 0 352.383 112.465 A 2.128 2.128 0 0 0 351.853 112.527 A 1.424 1.424 0 0 0 351.057 113.041 A 1.849 1.849 0 0 0 350.77 113.597 Q 350.61 114.077 350.61 114.76 Q 350.61 115.494 350.801 116.001 Z M 365.253 116.001 A 1.876 1.876 0 0 0 365.515 116.483 Q 365.968 117.076 366.846 117.076 A 2.077 2.077 0 0 0 367.394 117.008 A 1.445 1.445 0 0 0 368.179 116.486 A 1.92 1.92 0 0 0 368.478 115.904 Q 368.566 115.635 368.604 115.306 A 4.71 4.71 0 0 0 368.634 114.76 Q 368.634 113.634 368.179 113.049 A 1.471 1.471 0 0 0 367.265 112.504 A 2.255 2.255 0 0 0 366.835 112.465 A 2.128 2.128 0 0 0 366.305 112.527 A 1.424 1.424 0 0 0 365.51 113.041 A 1.849 1.849 0 0 0 365.223 113.597 Q 365.063 114.077 365.063 114.76 Q 365.063 115.494 365.253 116.001 Z M 345.87 112.465 Q 344.954 112.465 344.55 112.99 Q 344.146 113.515 344.146 114.76 A 5.912 5.912 0 0 0 344.176 115.371 Q 344.24 115.987 344.446 116.362 A 1.349 1.349 0 0 0 344.561 116.54 Q 344.933 117.02 345.707 117.07 A 2.875 2.875 0 0 0 345.892 117.076 A 1.783 1.783 0 0 0 346.398 117.008 A 1.286 1.286 0 0 0 347.12 116.475 A 2.053 2.053 0 0 0 347.374 115.926 Q 347.524 115.435 347.524 114.749 Q 347.524 113.596 347.12 113.03 A 1.304 1.304 0 0 0 346.29 112.505 A 2.068 2.068 0 0 0 345.87 112.465 Z" id="bottom_labelLayer" stroke="#777777" fill="#777777" style="stroke:#777777;fill:#777777" vector-effect="non-scaling-stroke"/></g></svg>