0
SECTION
2
HEADER
9
$INSUNITS
70
4
9
$ACADVER
1
AC1014
9
$HANDSEED
5
FFFF
0
ENDSEC
0
SECTION
2
TABLES
0
TABLE
2
VPORT
5
8
100
AcDbSymbolTable
0
ENDTAB
0
TABLE
2
LTYPE
5
5
100
AcDbSymbolTable
0
LTYPE
5
14
100
AcDbSymbolTableRecord
100
AcDbLinetypeTableRecord
2
BYBLOCK
70
0
0
LTYPE
5
15
100
AcDbSymbolTableRecord
100
AcDbLinetypeTableRecord
2
BYLAYER
70
0
0
ENDTAB
0
TABLE
2
LAYER
5
2
100
AcDbSymbolTable
70
2
0
LAYER
5
50
100
AcDbSymbolTableRecord
100
AcDbLayerTableRecord
2
0
70
0
6
CONTINUOUS
0
ENDTAB
0
TABLE
2
STYLE
5
3
100
AcDbSymbolTable
70
1
0
STYLE
5
11
100
AcDbSymbolTableRecord
100
AcDbTextStyleTableRecord
2
STANDARD
70
0
0
ENDTAB
0
TABLE
2
VIEW
5
6
100
AcDbSymbolTable
70
0
0
ENDTAB
0
TABLE
2
UCS
5
7
100
AcDbSymbolTable
70
0
0
ENDTAB
0
TABLE
2
APPID
5
9
100
AcDbSymbolTable
70
2
0
APPID
5
12
100
AcDbSymbolTableRecord
100
AcDbRegAppTableRecord
2
ACAD
70
0
0
ENDTAB
0
TABLE
2
DIMSTYLE
5
A
100
AcDbSymbolTable
70
1
0
ENDTAB
0
TABLE
2
BLOCK_RECORD
5
1
100
AcDbSymbolTable
70
1
0
BLOCK_RECORD
5
1F
100
AcDbSymbolTableRecord
100
AcDbBlockTableRecord
2
*MODEL_SPACE
0
BLOCK_RECORD
5
1B
100
AcDbSymbolTableRecord
100
AcDbBlockTableRecord
2
*PAPER_SPACE
0
ENDTAB
0
ENDSEC
0
SECTION
2
BLOCKS
0
BLOCK
5
20
100
AcDbEntity
100
AcDbBlockBegin
2
*MODEL_SPACE
0
ENDBLK
5
21
100
AcDbEntity
100
AcDbBlockEnd
0
BLOCK
5
1C
100
AcDbEntity
100
AcDbBlockBegin
2
*PAPER_SPACE
0
ENDBLK
5
1D
100
AcDbEntity
100
AcDbBlockEnd
0
ENDSEC
0
SECTION
2
ENTITIES
0
LWPOLYLINE
5
100
100
AcDbEntity
8
0
100
AcDbPolyline
90
28
70
1
43
0.0
10
104.96043053516081
20
143.31606259835135
10
104.96043053516081
20
153.57975285468777
10
87.691222005885351
20
153.57975285468777
10
87.691222005885351
20
155.76351673901468
10
64.124045898247843
20
155.76351673901468
10
64.124045898247843
20
153.57975285468777
10
40.836384636912939
20
153.57975285468777
10
40.836384636912939
20
155.76351673901468
10
17.269205197116179
20
155.76351673901468
10
17.269205197116172
20
153.57975285468774
10
-3.3306690738754696e-14
20
153.57975285468774
10
-3.1822558499061975e-14
20
143.31606259835132
10
2.183763884326865
20
143.31606259835132
10
2.1837638843268703
20
120.02840133701642
10
-2.6645352591003757e-14
20
120.02840133701642
10
-2.4372661906619794e-14
20
109.76471108068
10
17.269205197116186
20
109.76471108068003
10
17.269205197116186
20
107.58094719635312
10
40.836384636912939
20
107.58094719635312
10
40.836384636912946
20
109.76471108068004
10
64.124045898247857
20
109.76471108068004
10
64.124045898247857
20
107.58094719635315
10
87.691222005885379
20
107.58094719635315
10
87.691222005885379
20
109.76471108068004
10
104.96043053516082
20
109.76471108068004
10
104.96043053516082
20
120.02840133701646
10
102.7766666508339
20
120.02840133701645
10
102.7766666508339
20
143.31606259835135
0
LWPOLYLINE
5
101
100
AcDbEntity
8
0
100
AcDbPolyline
90
4
70
1
43
0.0
10
225
20
0
10
225
20
300
10
0
20
300
10
0
20
0
0
LINE
5
102
100
AcDbEntity
8
0
100
AcDbLine
10
134.90857164369274
20
210.52531475778648
30
0
11
134.90857164369274
21
210.97692896489491
31
0
0
LWPOLYLINE
5
103
100
AcDbEntity
8
0
100
AcDbPolyline
90
28
70
1
43
0.0
10
113.55572198499858
20
222.50806596981786
10
115.73948586932548
20
222.50806596981786
10
115.73948586932548
20
199.22041803711994
10
113.5557219849986
20
199.22041803711994
10
113.5557219849986
20
175.65322860084547
10
115.73948586932551
20
175.65322860084541
10
115.73948586932551
20
160.56779728453387
10
125.86341203819211
20
160.56779728453387
10
125.86341203819211
20
158.38403340020696
10
149.43060147446661
20
158.38403340020696
10
149.43060147446661
20
160.56779728453387
10
159.55452764333324
20
160.56779728453387
10
159.55452764333324
20
175.65322860084541
10
161.73829152766012
20
175.65322860084541
10
161.73829152766012
20
199.22041803711991
10
159.55452764333324
20
199.22041803711994
10
159.55452764333324
20
222.50806596981786
10
161.73829152766012
20
222.50806596981786
10
161.73829152766012
20
246.07524207745539
10
159.55452764333319
20
246.07524207745539
10
159.55452764333322
20
261.16070005104092
10
149.43060147446661
20
261.16070005104092
10
149.43060147446661
20
263.3444639353678
10
125.8634120381921
20
263.3444639353678
10
125.8634120381921
20
261.16070005104092
10
115.73948586932548
20
261.16070005104092
10
115.73948586932548
20
246.07524207745539
10
113.55572198499858
20
246.07524207745539
0
LWPOLYLINE
5
104
100
AcDbEntity
8
0
100
AcDbPolyline
90
28
70
1
43
0.0
10
124.85014239699156
20
153.5797528546878
10
107.58094719635309
20
153.5797528546878
10
107.58094719635309
20
143.31606259835135
10
109.76471108067999
20
143.31606259835135
10
109.76471108067999
20
120.02840133701645
10
107.58094719635309
20
120.02840133701645
10
107.58094719635309
20
109.76471108068003
10
124.85014239699157
20
109.76471108068004
10
124.85014239699157
20
107.58094719635316
10
148.41733183326608
20
107.58094719635316
10
148.41733183326608
20
109.76471108068006
10
171.70499309460098
20
109.76471108068006
10
171.70499309460095
20
107.58094719635316
10
195.27216920223847
20
107.58094719635316
10
195.27216920223847
20
109.76471108068006
10
212.54137773151393
20
109.76471108068006
10
212.54137773151393
20
120.0284013370165
10
210.35761384718705
20
120.02840133701648
10
210.35761384718705
20
143.31606259835138
10
212.54137773151393
20
143.31606259835138
10
212.54137773151393
20
153.5797528546878
10
195.27216920223847
20
153.5797528546878
10
195.27216920223847
20
155.76351673901468
10
171.70499309460095
20
155.76351673901468
10
171.70499309460095
20
153.5797528546878
10
148.41733183326602
20
153.5797528546878
10
148.41733183326605
20
155.76351673901468
10
124.85014239699154
20
155.76351673901468
0
LWPOLYLINE
5
105
100
AcDbEntity
8
0
100
AcDbPolyline
90
36
70
1
43
0.0
10
2.1837638843268827
20
64.263803321399166
10
-1.4155343563970746e-14
20
64.26380332139918
10
-9.0364657715730035e-15
20
40.696623881602427
10
2.1837638843268876
20
40.69662388160242
10
2.1837638843268929
20
17.408965952426762
10
-3.8857805861880479e-15
20
17.408965952426762
10
0
20
0
10
17.408965952426762
20
3.8655669670599209e-15
10
17.408965952426762
20
2.1837638843269009
10
40.69662388160242
20
2.1837638843269063
10
40.69662388160242
20
9.1593399531575415e-15
10
64.263803321399166
20
1.4269430819479993e-14
10
64.26380332139918
20
2.1837638843269112
10
87.551464582734084
20
2.1837638843269165
10
87.551464582734084
20
1.9428902930940239e-14
10
104.96043053516084
20
2.3305897330940978e-14
10
104.96043053516084
20
17.408965952426783
10
102.77666665083395
20
17.408965952426783
10
102.77666665083395
20
40.696623881602434
10
104.96043053516082
20
40.696623881602449
10
104.96043053516082
20
64.263803321399209
10
102.77666665083393
20
64.263803321399209
10
102.77666665083393
20
87.551464582734127
10
104.96043053516082
20
87.551464582734098
10
104.96043053516082
20
104.96043053516087
10
87.55146458273407
20
104.96043053516087
10
87.55146458273407
20
102.77666665083396
10
64.263803321399152
20
102.77666665083396
10
64.263803321399152
20
104.96043053516087
10
40.696623881602392
20
104.96043053516087
10
40.696623881602392
20
102.77666665083396
10
17.408965952426737
20
102.77666665083396
10
17.408965952426737
20
104.96043053516084
10
-2.2204460492503131e-14
20
104.96043053516084
10
-1.9440330363881058e-14
20
87.551464582734084
10
2.1837638843268774
20
87.551464582734084
0
SPLINE
5
106
100
AcDbEntity
8
0
100
AcDbSpline
70
0
71
2
72
6
73
3
74
0
42
0.000000001
43
0.0000000001
44
0.0000000001
40
0
40
0
40
0
40
1
40
1
40
1
10
52.296776568855911
20
128.91281758042612
30
0
10
52.57455202803142
20
129.21854985568669
30
0
10
52.57455202803142
20
129.76449082676842
30
0
0
ARC
5
107
100
AcDbEntity
8
0
100
AcDbCircle
10
-157.7839858950548
20
134.74018367899862
30
0
40
0.90407821895495355
210
-0
220
0
230
-1
100
AcDbArc
50
287.83934284692816
51
304.96085447974531
0
ARC
5
108
100
AcDbEntity
8
0
100
AcDbCircle
10
-51.940319929803564
20
129.73579431578776
30
0
40
1.6386964596178546
210
-0
220
0
230
-1
100
AcDbArc
50
-11.254997982232737
51
0.51449772026056739
0
SPLINE
5
109
100
AcDbEntity
8
0
100
AcDbSpline
70
0
71
2
72
6
73
3
74
0
42
0.000000001
43
0.0000000001
44
0.0000000001
40
0
40
0
40
0
40
1
40
1
40
1
10
48.428896082860753
20
126.49408315461487
30
0
10
48.165095699568532
20
126.49408315461487
30
0
10
48.038436994418461
20
126.35782449867327
30
0
0
LINE
5
110
100
AcDbEntity
8
0
100
AcDbLine
10
54.983679838732641
20
134.1355106983134
30
0
11
54.983679838732641
21
133.3545991857473
31
0
0
SPLINE
5
111
100
AcDbEntity
8
0
100
AcDbSpline
70
0
71
2
72
6
73
3
74
0
42
0.000000001
43
0.0000000001
44
0.0000000001
40
0
40
0
40
0
40
1
40
1
40
1
10
157.1174396843877
20
135.42480308292539
30
0
10
157.01436933454946
20
135.10423603469573
30
0
10
156.98467313133727
20
134.84916590863151
30
0
0
LINE
5
112
100
AcDbEntity
8
0
100
AcDbLine
10
139.77836244001432
20
210.19600412369184
30
0
11
136.71060336464609
21
210.19600412369184
31
0
0
LINE
5
113
100
AcDbEntity
8
0
100
AcDbLine
10
54.983679838732641
20
133.3545991857473
30
0
11
47.661956314018695
21
133.3545991857473
31
0
0
ARC
5
114
100
AcDbEntity
8
0
100
AcDbCircle
10
-159.63618263181149
20
64.69039218940469
30
0
40
2.9489546860840141
210
0
220
0
230
-1
100
AcDbArc
50
44.389807058895485
51
70.615981697367218
0
LWPOLYLINE
5
115
100
AcDbEntity
8
0
100
AcDbPolyline
90
36
70
1
43
0.0
10
195.13240511476866
20
104.9604305351609
10
195.13240511476866
20
102.77666665083399
10
171.84474385343376
20
102.77666665083399
10
171.84474385343378
20
104.96043053516088
10
148.27756774579626
20
104.96043053516088
10
148.27756774579629
20
102.77666665083399
10
124.98990648446137
20
102.77666665083399
10
124.98990648446137
20
104.96043053516088
10
107.58094719635309
20
104.96043053516088
10
107.58094719635311
20
87.551464582734098
10
109.76471108068
20
87.551464582734098
10
109.76471108068
20
64.263803321399195
10
107.58094719635311
20
64.263803321399209
10
107.58094719635311
20
40.696623881602449
10
109.76471108068
20
40.696623881602449
10
109.76471108068
20
17.40896595242679
10
107.58094719635312
20
17.408965952426783
10
107.58094719635312
20
2.4424906541753444e-14
10
124.98990648446139
20
2.7753334404958834e-14
10
124.98990648446139
20
2.1837638843269245
10
148.27756774579629
20
2.1837638843269298
10
148.27756774579629
20
3.3029134982598407e-14
10
171.84474385343381
20
3.8157198257378907e-14
10
171.84474385343381
20
2.1837638843269351
10
195.13240511476874
20
2.1837638843269405
10
195.13240511476869
20
4.3298697960381105e-14
10
212.54137773151396
20
4.7193666248615864e-14
10
212.54137773151396
20
17.408965952426808
10
210.35761384718708
20
17.408965952426808
10
210.35761384718708
20
40.696623881602463
10
212.54137773151399
20
40.696623881602463
10
212.54137773151396
20
64.263803321399223
10
210.35761384718705
20
64.263803321399223
10
210.35761384718708
20
87.551464582734141
10
212.54137773151393
20
87.551464582734141
10
212.54137773151393
20
104.9604305351609
0
LINE
5
116
100
AcDbEntity
8
0
100
AcDbLine
10
50.541904897729935
20
134.09795059927757
30
0
11
50.54190489772995
21
134.14512064558269
31
0
0
ARC
5
117
100
AcDbEntity
8
0
100
AcDbCircle
10
-55.318392172703398
20
130.4904675661069
30
0
40
1.8579463944232253
210
0
220
0
230
-1
100
AcDbArc
50
144.50887237574614
51
145.49535250078293
0
LINE
5
118
100
AcDbEntity
8
0
100
AcDbLine
10
158.07742143490506
20
69.78697723157326
30
0
11
157.25720377185752
21
69.78697723157326
31
0
0
ARC
5
119
100
AcDbEntity
8
0
100
AcDbCircle
10
-165.15488425122911
20
74.817139943739363
30
0
40
1.6500520418128162
210
0
220
0
230
-1
100
AcDbArc
50
228.58303200751661
51
243.84593256709661
0
SPLINE
5
120
100
AcDbEntity
8
0
100
AcDbSpline
70
0
71
2
72
6
73
3
74
0
42
0.000000001
43
0.0000000001
44
0.0000000001
40
0
40
0
40
0
40
1
40
1
40
1
10
163.11231405761308
20
129.57581064154792
30
0
10
163.11231405761308
20
130.40914368339293
30
0
10
162.76466321902117
20
131.22324350206236
30
0
0
SPLINE
5
121
100
AcDbEntity
8
0
100
AcDbSpline
70
0
71
2
72
6
73
3
74
0
42
0.000000001
43
0.0000000001
44
0.0000000001
40
0
40
0
40
0
40
1
40
1
40
1
10
161.26309896171762
20
127.89169737203891
30
0
10
161.88329376946672
20
127.90741183504927
30
0
10
162.29994696175223
20
128.11619160484969
30
0
0
ARC
5
122
100
AcDbEntity
8
0
100
AcDbCircle
10
-161.50582649095486
20
33.238947955558572
30
0
40
8.2624887128519617
210
0
220
0
230
-1
100
AcDbArc
50
13.415804918732526
51
18.04233739677424
0
LINE
5
123
100
AcDbEntity
8
0
100
AcDbLine
10
136.10352393569445
20
209.07181356546633
30
0
11
136.71060336464609
21
209.07181356546633
31
0
0
ARC
5
124
100
AcDbEntity
8
0
100
AcDbCircle
10
-55.416145869679909
20
131.07530616299582
30
0
40
1.1425452367895297
210
0
220
0
230
-1
100
AcDbArc
50
38.115481021108309
51
81.422105350044461
0
LINE
5
125
100
AcDbEntity
8
0
100
AcDbLine
10
136.71060336464609
20
210.97692896489494
30
0
11
139.74516080527397
21
210.97692896489491
31
0
0
LINE
5
126
100
AcDbEntity
8
0
100
AcDbLine
10
136.10352393569445
20
210.97692896489491
30
0
11
136.10352393569445
21
212.47324173922468
31
0
0
ARC
5
127
100
AcDbEntity
8
0
100
AcDbCircle
10
-51.484198693762835
20
129.3261320907383
30
0
40
1.5819185486429557
210
0
220
0
230
-1
100
AcDbArc
50
89.248605578183572
51
104.55924033999855
0
LWPOLYLINE
5
128
100
AcDbEntity
8
0
100
AcDbPolyline
90
28
70
1
43
0.0
10
212.54137773151393
20
175.65322860084541
10
212.54137773151393
20
199.22041803711991
10
210.35761384718705
20
199.22041803711994
10
210.35761384718705
20
222.50806596981786
10
212.54137773151393
20
222.50806596981786
10
212.54137773151393
20
246.07524207745539
10
210.35761384718697
20
246.07524207745539
10
210.357613847187
20
261.16070005104092
10
200.23367434968338
20
261.16070005104092
10
200.23367434968338
20
263.3444639353678
10
176.66649824204586
20
263.3444639353678
10
176.66649824204586
20
261.16070005104092
10
166.54257207317926
20
261.16070005104092
10
166.54257207317926
20
246.07524207745539
10
164.35880818885238
20
246.07524207745539
10
164.35880818885238
20
222.50806596981786
10
166.54257207317931
20
222.50806596981786
10
166.54257207317929
20
199.22041803711994
10
164.35880818885238
20
199.22041803711994
10
164.35880818885241
20
175.65322860084547
10
166.54257207317931
20
175.65322860084541
10
166.54257207317929
20
160.56779728453387
10
176.66649824204592
20
160.56779728453387
10
176.66649824204592
20
158.38403340020696
10
200.23367434968344
20
158.38403340020696
10
200.23367434968344
20
160.56779728453387
10
210.35761384718705
20
160.56779728453387
10
210.35761384718705
20
175.65322860084541
0
SPLINE
5
129
100
AcDbEntity
8
0
100
AcDbSpline
70
0
71
2
72
6
73
3
74
0
42
0.000000001
43
0.0000000001
44
0.0000000001
40
0
40
0
40
0
40
1
40
1
40
1
10
156.35486837631888
20
135.02299799224596
30
0
10
156.37932642519425
20
135.19595038581912
30
0
10
156.42649647149938
20
135.38898903533516
30
0
0
LINE
5
130
100
AcDbEntity
8
0
100
AcDbLine
10
44.402907972739285
20
65.251735223683085
30
0
11
44.402907972739285
21
66.932363054619387
31
0
0
SPLINE
5
131
100
AcDbEntity
8
0
100
AcDbSpline
70
0
71
2
72
6
73
3
74
0
42
0.000000001
43
0.0000000001
44
0.0000000001
40
0
40
0
40
0
40
1
40
1
40
1
10
156.06836932423391
20
30.529892795044699
30
0
10
151.92794820124081
20
30.529892795044699
30
0
10
151.92794820124081
20
34.147951305790166
30
0
0
SPLINE
5
132
100
AcDbEntity
8
0
100
AcDbSpline
70
0
71
2
72
6
73
3
74
0
42
0.000000001
43
0.0000000001
44
0.0000000001
40
0
40
0
40
0
40
1
40
1
40
1
10
158.65743040213144
20
67.472186181323053
30
0
10
159.48376590955706
20
67.778791482306417
30
0
10
160.66037799706152
20
67.778791482306417
30
0
0
ARC
5
133
100
AcDbEntity
8
0
100
AcDbCircle
10
-49.732166805390563
20
129.74347952888868
30
0
40
3.392695625670898
210
0
220
0
230
-1
100
AcDbArc
50
177.09179985221331
51
180.0433524809379
0
SPLINE
5
134
100
AcDbEntity
8
0
100
AcDbSpline
70
0
71
2
72
6
73
3
74
0
42
0.000000001
43
0.0000000001
44
0.0000000001
40
0
40
0
40
0
40
1
40
1
40
1
10
49.783702050434385
20
136.3053061710755
30
0
10
49.878915168767442
20
136.86260314087212
30
0
10
50.190755291928355
20
137.19191377496676
30
0
0
LINE
5
135
100
AcDbEntity
8
0
100
AcDbLine
10
158.07742143490506
20
76.357488779092535
30
0
11
158.07742143490506
21
73.098437105653872
31
0
0
ARC
5
136
100
AcDbEntity
8
0
100
AcDbCircle
10
-51.796227006330263
20
123.99080807657164
30
0
40
1.3530601243879703
210
-0
220
0
230
-1
100
AcDbArc
50
-47.073416493996881
51
0.39891547722796311
0
SPLINE
5
137
100
AcDbEntity
8
0
100
AcDbSpline
70
0
71
2
72
6
73
3
74
0
42
0.000000001
43
0.0000000001
44
0.0000000001
40
0
40
0
40
0
40
1
40
1
40
1
10
52.859315025148568
20
66.932363054619401
30
0
10
53.422726507164022
20
66.932363054619401
30
0
10
54.601957671836843
20
66.851125012169618
30
0
0
LINE
5
138
100
AcDbEntity
8
0
100
AcDbLine
10
51.618938738287312
20
137.66448059942238
30
0
11
54.983679838732641
21
137.66448059942238
31
0
0
LINE
5
139
100
AcDbEntity
8
0
100
AcDbLine
10
54.164331869248656
20
129.58104879588467
30
0
11
54.164331869248656
21
130.49387382873388
31
0
0
ARC
5
140
100
AcDbEntity
8
0
100
AcDbCircle
10
-158.8434616196086
20
134.65471751436431
30
0
40
2.5156960947093658
210
0
220
0
230
-1
100
AcDbArc
50
0.29074511962705046
51
8.4179571932178554
0
ARC
5
141
100
AcDbEntity
8
0
100
AcDbCircle
10
-163.26853542759739
20
63.74020063806821
30
0
40
6.7181312004146134
210
-0
220
0
230
-1
100
AcDbArc
50
-0.35443244031140669
51
9.4399434766732977
0
LINE
5
142
100
AcDbEntity
8
0
100
AcDbLine
10
50.781243899987565
20
122.43840550559973
30
0
11
50.781243899987565
21
122.47596560463558
31
0
0
LINE
5
143
100
AcDbEntity
8
0
100
AcDbLine
10
136.71060336464609
20
212.4732417392247
30
0
11
136.71060336464609
21
210.97692896489494
31
0
0
SPLINE
5
144
100
AcDbEntity
8
0
100
AcDbSpline
70
0
71
2
72
6
73
3
74
0
42
0.000000001
43
0.0000000001
44
0.0000000001
40
0
40
0
40
0
40
1
40
1
40
1
10
48.150247597962448
20
125.623203342371
30
0
10
48.210519694428065
20
125.59525319060444
30
0
10
48.285639892499759
20
125.58301750184826
30
0
0
LINE
5
145
100
AcDbEntity
8
0
100
AcDbLine
10
136.33412268424632
20
209.45702450309409
30
0
11
136.00918384308417
21
210.19600412369184
31
0
0
ARC
5
146
100
AcDbEntity
8
0
100
AcDbCircle
10
-51.107998564584946
20
129.56583149098802
30
0
40
6.1905337659894339
210
0
220
0
230
-1
100
AcDbArc
50
173.39295572163968
51
180.25527316876213
0
ARC
5
147
100
AcDbEntity
8
0
100
AcDbCircle
10
-160.666745263275
20
129.47071959111497
30
0
40
2.3130427079451241
210
-0
220
0
230
-1
100
AcDbArc
50
301.08761070026623
51
309.89224318978177
0
LWPOLYLINE
5
148
100
AcDbEntity
8
0
100
AcDbPolyline
90
4
70
1
43
0.0
10
54.983679838732641
20
126.41896295654318
10
54.983679838732641
20
125.63805144397708
10
49.826503635966262
20
125.63805144397708
10
49.826503635966269
20
126.41896295654318
0
ARC
5
149
100
AcDbEntity
8
0
100
AcDbCircle
10
-155.62628728393469
20
34.09835932721947
30
0
40
2.294699171288618
210
-0
220
0
230
-1
100
AcDbArc
50
-13.454353794359577
51
0.47489659701662795
0
LINE
5
150
100
AcDbEntity
8
0
100
AcDbLine
10
162.76466321902117
20
131.22324350206236
30
0
11
163.46084458624628
21
131.22324350206236
31
0
0
ARC
5
151
100
AcDbEntity
8
0
100
AcDbCircle
10
-55.534596160877065
20
130.51311410680725
30
0
40
1.7164384422373304
210
0
220
0
230
-1
100
AcDbArc
50
80.311389399898204
51
90.300529002548856
0
ARC
5
152
100
AcDbEntity
8
0
100
AcDbCircle
10
-51.67331741094636
20
124.29895634038238
30
0
40
2.0151772441476092
210
-0
220
0
230
-1
100
AcDbArc
50
310.66280629408493
51
325.85211485047517
0
SPLINE
5
153
100
AcDbEntity
8
0
100
AcDbSpline
70
0
71
2
72
6
73
3
74
0
42
0.000000001
43
0.0000000001
44
0.0000000001
40
0
40
0
40
0
40
1
40
1
40
1
10
56.70099474298199
20
129.54786048978133
30
0
10
56.70099474298199
20
130.53143392776971
30
0
10
56.406618466436321
20
131.00400075222535
30
0
0
ARC
5
154
100
AcDbEntity
8
0
100
AcDbCircle
10
-158.0258171281526
20
134.64065371934345
30
0
40
1.0534476719750532
210
-0
220
0
230
-1
100
AcDbArc
50
-13.243966525129524
51
0.65094533050371572
0
ARC
5
155
100
AcDbEntity
8
0
100
AcDbCircle
10
-52.765853312363227
20
129.54480156759229
30
0
40
3.9351426195218489
210
0
220
0
230
-1
100
AcDbArc
50
179.95546200840508
51
180.04453799159492
0
ARC
5
156
100
AcDbEntity
8
0
100
AcDbCircle
10
-48.546721455638995
20
126.09460738767456
30
0
40
0.3808484122631805
210
0
220
0
230
-1
100
AcDbArc
50
117.61675327103269
51
136.2800945856641
0
LINE
5
157
100
AcDbEntity
8
0
100
AcDbLine
10
54.983679838732641
20
136.8835557582193
30
0
11
51.647761915776684
21
136.8835557582193
31
0
0
LINE
5
158
100
AcDbEntity
8
0
100
AcDbLine
10
160.76956619127782
20
131.44424563198194
30
0
11
161.26309896171762
21
131.44424563198194
31
0
0
ARC
5
159
100
AcDbEntity
8
0
100
AcDbCircle
10
-53.317901346021728
20
124.0612529538494
30
0
40
3.5857403147255567
210
-0
220
0
230
-1
100
AcDbArc
50
-0.06782085000611543
51
5.0612443134702838
0
ARC
5
160
100
AcDbEntity
8
0
100
AcDbCircle
10
-160.20838177933061
20
129.69898498072149
30
0
40
3.5857403147255615
210
0
220
0
230
-1
100
AcDbArc
50
162.1984556541737
51
168.07833600922194
0
ARC
5
161
100
AcDbEntity
8
0
100
AcDbCircle
10
-51.440881426370112
20
129.22831511359203
30
0
40
1.67975116066434
210
0
220
0
230
-1
100
AcDbArc
50
74.924378568284382
51
90.769950249349804
0
SPLINE
5
162
100
AcDbEntity
8
0
100
AcDbSpline
70
0
71
2
72
6
73
3
74
0
42
0.000000001
43
0.0000000001
44
0.0000000001
40
0
40
0
40
0
40
1
40
1
40
1
10
51.463453523488639
20
131.6792161734663
30
0
10
52.221656370784217
20
131.6792161734663
30
0
10
52.67325724925567
20
131.16210504419243
30
0
0
ARC
5
163
100
AcDbEntity
8
0
100
AcDbCircle
10
-158.19304548271543
20
136.17145383042808
30
0
40
3.165584190031272
210
0
220
0
230
-1
100
AcDbArc
50
269.35752275485163
51
282.45105815509362
0
LINE
5
164
100
AcDbEntity
8
0
100
AcDbLine
10
157.34805176157658
20
136.87831760388252
30
0
11
158.54388374361957
21
136.87831760388252
31
0
0
ARC
5
165
100
AcDbEntity
8
0
100
AcDbCircle
10
-52.922258875431112
20
129.51712073581359
30
0
40
4.3762630241206608
210
0
220
0
230
-1
100
AcDbArc
50
179.72335907532326
51
187.42930967467149
0
ARC
5
166
100
AcDbEntity
8
0
100
AcDbCircle
10
-160.74794511524175
20
128.265632508208
30
0
40
3.1786866567116698
210
0
220
0
230
-1
100
AcDbArc
50
77.957278035667883
51
90.389722577807191
0
LINE
5
167
100
AcDbEntity
8
0
100
AcDbLine
10
136.71060336464609
20
210.19600412369184
30
0
11
136.71060336464609
21
209.45702450309409
31
0
0
SPLINE
5
168
100
AcDbEntity
8
0
100
AcDbSpline
70
0
71
2
72
6
73
3
74
0
42
0.000000001
43
0.0000000001
44
0.0000000001
40
0
40
0
40
0
40
1
40
1
40
1
10
51.003988749193496
20
130.85025492455378
30
0
10
50.301689537590299
20
130.65023206925537
30
0
10
50.301689537590299
20
129.75050908656664
30
0
0
ARC
5
169
100
AcDbEntity
8
0
100
AcDbCircle
10
-160.54003939705331
20
129.4926607066017
30
0
40
1.5426108362118784
210
-0
220
0
230
-1
100
AcDbArc
50
289.49042172228843
51
311.980376755718
0
SPLINE
5
170
100
AcDbEntity
8
0
100
AcDbSpline
70
0
71
2
72
6
73
3
74
0
42
0.000000001
43
0.0000000001
44
0.0000000001
40
0
40
0
40
0
40
1
40
1
40
1
10
50.467657725381059
20
124.31731680470735
30
0
10
50.450187214447332
20
124.19414687028925
30
0
10
50.444945727951293
20
124.0840789860316
30
0
0
LINE
5
171
100
AcDbEntity
8
0
100
AcDbLine
10
47.661956314018695
20
133.3545991857473
30
0
11
47.661956314018695
21
134.1355106983134
31
0
0
SPLINE
5
172
100
AcDbEntity
8
0
100
AcDbSpline
70
0
71
2
72
6
73
3
74
0
42
0.000000001
43
0.0000000001
44
0.0000000001
40
0
40
0
40
0
40
1
40
1
40
1
10
49.878042143044645
20
134.1355106983134
30
0
10
50.166297243052981
20
134.1355106983134
30
0
10
50.382927580040075
20
134.11629080377483
30
0
0
LINE
5
173
100
AcDbEntity
8
0
100
AcDbLine
10
44.4029079727393
20
30.719442673828755
30
0
11
44.4029079727393
21
32.421033118589989
31
0
0
ARC
5
174
100
AcDbEntity
8
0
100
AcDbCircle
10
-51.289604473948749
20
124.0492218886975
30
0
40
1.5574603956376387
210
-0
220
0
230
-1
100
AcDbArc
50
-34.468376233037496
51
0.28645557656999371
0
SPLINE
5
175
100
AcDbEntity
8
0
100
AcDbSpline
70
0
71
2
72
6
73
3
74
0
42
0.000000001
43
0.0000000001
44
0.0000000001
40
0
40
0
40
0
40
1
40
1
40
1
10
53.032270750880961
20
130.4798920885321
30
0
10
53.104768539625013
20
130.22220954961799
30
0
10
53.120492999113139
20
129.9156109129531
30
0
0
SPLINE
5
176
100
AcDbEntity
8
0
100
AcDbSpline
70
0
71
2
72
6
73
3
74
0
42
0.000000001
43
0.0000000001
44
0.0000000001
40
0
40
0
40
0
40
1
40
1
40
1
10
56.616264597641013
20
128.84381522673254
30
0
10
56.700121717259194
20
129.1338197103457
30
0
10
56.70099474298199
20
129.54174264540325
30
0
0
ARC
5
177
100
AcDbEntity
8
0
100
AcDbCircle
10
-52.17404673093759
20
124.31953322846935
30
0
40
1.8518316739444338
210
-0
220
0
230
-1
100
AcDbArc
50
311.34657706561825
51
314.55945028425197
0
ARC
5
178
100
AcDbEntity
8
0
100
AcDbCircle
10
-51.462157018760493
20
129.74964274421131
30
0
40
1.9295738648238456
210
0
220
0
230
-1
100
AcDbArc
50
82.887411957983971
51
90.038497751231603
0
SPLINE
5
179
100
AcDbEntity
8
0
100
AcDbSpline
70
0
71
2
72
6
73
3
74
0
42
0.000000001
43
0.0000000001
44
0.0000000001
40
0
40
0
40
0
40
1
40
1
40
1
10
162.64149328460306
20
128.35028245629275
30
0
10
163.11231405761308
20
128.78528918171253
30
0
10
163.11231405761308
20
129.57581064154792
30
0
0
LINE
5
180
100
AcDbEntity
8
0
100
AcDbLine
10
158.54388374361957
20
136.87831760388252
30
0
11
158.54388374361957
21
138.37463037821232
31
0
0
ARC
5
181
100
AcDbEntity
8
0
100
AcDbCircle
10
-188.68632444584472
20
206.40570985254226
30
0
40
1.1739914483863876
210
0
220
0
230
-1
100
AcDbArc
50
165.73459180689991
51
166.2615389490642
0
ARC
5
182
100
AcDbEntity
8
0
100
AcDbCircle
10
-163.75048374171683
20
74.588149905533669
30
0
40
4.4443961007706507
210
0
220
0
230
-1
100
AcDbArc
50
179.12653142596417
51
196.22264292682658
0
LINE
5
183
100
AcDbEntity
8
0
100
AcDbLine
10
185.21724538706547
20
204.38021331705471
30
0
11
184.11663318767404
21
204.70952395114935
31
0
0
ARC
5
184
100
AcDbEntity
8
0
100
AcDbCircle
10
-160.52499223025944
20
129.23543782967292
30
0
40
2.1837638843268761
210
0
220
0
230
-1
100
AcDbArc
50
48.821929834627305
51
78.369338263984133
0
SPLINE
5
185
100
AcDbEntity
8
0
100
AcDbSpline
70
0
71
2
72
6
73
3
74
0
42
0.000000001
43
0.0000000001
44
0.0000000001
40
0
40
0
40
0
40
1
40
1
40
1
10
163.09833231741129
20
127.74320302734111
30
0
10
162.40215095018618
20
127.08195601766494
30
0
10
161.16440040481183
20
127.08195601766494
30
0
0
ARC
5
186
100
AcDbEntity
8
0
100
AcDbCircle
10
-51.546640293578996
20
135.34237778690888
30
0
40
1.0936289307788247
210
-0
220
0
230
-1
100
AcDbArc
50
310.38718635363728
51
331.59170476516522
0
LINE
5
187
100
AcDbEntity
8
0
100
AcDbLine
10
160.62806938099939
20
127.91003757653618
30
0
11
160.62806938099939
21
130.60655412584146
31
0
0
ARC
5
188
100
AcDbEntity
8
0
100
AcDbCircle
10
-158.65217817836421
20
134.64670386307009
30
0
40
1.6797511606643403
210
0
220
0
230
-1
100
AcDbArc
50
0.20186031094385942
51
6.9227476493198683
0
ARC
5
189
100
AcDbEntity
8
0
100
AcDbCircle
10
-160.64371311513187
20
129.32088611225015
30
0
40
1.5399903012238167
210
-0
220
0
230
-1
100
AcDbArc
50
-16.209966738493272
51
0.54751512522838619
0
LINE
5
190
100
AcDbEntity
8
0
100
AcDbLine
10
158.07742143490506
20
71.396849993051873
30
0
11
158.07742143490506
21
69.78697723157326
31
0
0
LINE
5
191
100
AcDbEntity
8
0
100
AcDbLine
10
47.661956314018695
20
134.1355106983134
30
0
11
49.878042143044645
21
134.1355106983134
31
0
0
ARC
5
192
100
AcDbEntity
8
0
100
AcDbCircle
10
-52.910801303043009
20
135.79119850282729
30
0
40
3.1690781672620587
210
-0
220
0
230
-1
100
AcDbArc
50
-0.32299244087582285
51
9.3361394421407802
0
SPLINE
5
193
100
AcDbEntity
8
0
100
AcDbSpline
70
0
71
2
72
6
73
3
74
0
42
0.000000001
43
0.0000000001
44
0.0000000001
40
0
40
0
40
0
40
1
40
1
40
1
10
60.557522562421539
20
46.30976942361351
30
0
10
60.557522562421539
20
44.638754872105729
30
0
10
59.696246033128453
20
43.691002146026072
30
0
0
LINE
5
194
100
AcDbEntity
8
0
100
AcDbLine
10
161.26309896171762
20
131.44424563198194
30
0
11
161.26309896171762
21
127.89169737203891
31
0
0
ARC
5
195
100
AcDbEntity
8
0
100
AcDbCircle
10
-48.455121222078674
20
126.02837734307067
30
0
40
0.49615117076334864
210
0
220
0
230
-1
100
AcDbArc
50
179.48090974295272
51
199.63391835568234
0
SPLINE
5
196
100
AcDbEntity
8
0
100
AcDbSpline
70
0
71
2
72
6
73
3
74
0
42
0.000000001
43
0.0000000001
44
0.0000000001
40
0
40
0
40
0
40
1
40
1
40
1
10
51.647761915776684
20
136.8835557582193
30
0
10
51.245077135055951
20
136.8835557582193
30
0
10
50.973416188099286
20
136.76651699681625
30
0
0
LINE
5
197
100
AcDbEntity
8
0
100
AcDbLine
10
136.71060336464609
20
209.07181356546633
30
0
11
136.71060336464609
21
207.57548746249955
31
0
0
SPLINE
5
198
100
AcDbEntity
8
0
100
AcDbSpline
70
0
71
2
72
6
73
3
74
0
42
0.000000001
43
0.0000000001
44
0.0000000001
40
0
40
0
40
0
40
1
40
1
40
1
10
50.706123701915871
20
136.59617701609301
30
0
10
50.396029630200559
20
136.30966463537104
30
0
10
50.396029630200559
20
135.69734705208259
30
0
0
SPLINE
5
199
100
AcDbEntity
8
0
100
AcDbSpline
70
0
71
2
72
6
73
3
74
0
42
0.000000001
43
0.0000000001
44
0.0000000001
40
0
40
0
40
0
40
1
40
1
40
1
10
50.434462754959206
20
135.25534279224343
30
0
10
50.480759775541543
20
135.01076230348977
30
0
10
50.584706483261847
20
134.82208211826924
30
0
0
ARC
5
200
100
AcDbEntity
8
0
100
AcDbCircle
10
-161.33297736578112
20
134.16912557325955
30
0
40
5.0558502382941217
210
0
220
0
230
-1
100
AcDbArc
50
13.961958203631395
51
16.764939105071665
0
LINE
5
201
100
AcDbEntity
8
0
100
AcDbLine
10
54.983679838732641
20
137.66448059942238
30
0
11
54.983679838732641
21
136.8835557582193
31
0
0
ARC
5
202
100
AcDbEntity
8
0
100
AcDbCircle
10
-188.96357267330802
20
206.73427428214671
30
0
40
1.5731835014360598
210
0
220
0
230
-1
100
AcDbArc
50
260.24503836710988
51
270.37696439270383
0
ARC
5
203
100
AcDbEntity
8
0
100
AcDbCircle
10
-48.425437428167712
20
126.43729859446169
30
0
40
0.86564400083152904
210
0
220
0
230
-1
100
AcDbArc
50
269.77107581896814
51
279.29370601520918
0
ARC
5
204
100
AcDbEntity
8
0
100
AcDbCircle
10
-52.353280576975756
20
124.15035352674292
30
0
40
2.6170226839614985
210
0
220
0
230
-1
100
AcDbArc
50
4.9812497925189403
51
11.516256647400581
0
LINE
5
205
100
AcDbEntity
8
0
100
AcDbLine
10
158.77448249217144
20
135.35842647071868
30
0
11
158.44954365100929
21
136.09740609131643
31
0
0
ARC
5
206
100
AcDbEntity
8
0
100
AcDbCircle
10
-160.82978049145683
20
74.427740726532591
30
0
40
7.375007250198097
210
0
220
0
230
-1
100
AcDbArc
50
170.66029260107572
51
174.42517982379752
0
LINE
5
207
100
AcDbEntity
8
0
100
AcDbLine
10
159.15096317257121
20
133.00606865711413
30
0
11
159.15096317257121
21
132.08364700563266
31
0
0
ARC
5
208
100
AcDbEntity
8
0
100
AcDbCircle
10
-160.50600671944665
20
129.77360873388562
30
0
40
3.2791398037211184
210
0
220
0
230
-1
100
AcDbArc
50
168.27984279844142
51
174.04364789414058
0
ARC
5
209
100
AcDbEntity
8
0
100
AcDbCircle
10
-53.873914602473405
20
123.81920071688879
30
0
40
3.4424853739242782
210
0
220
0
230
-1
100
AcDbArc
50
8.319713035135937
51
12.503729820324025
0
LINE
5
210
100
AcDbEntity
8
0
100
AcDbLine
10
156.75494074418972
20
76.35748877909252
30
0
11
158.07742143490506
21
76.357488779092535
31
0
0
SPLINE
5
211
100
AcDbEntity
8
0
100
AcDbSpline
70
0
71
2
72
6
73
3
74
0
42
0.000000001
43
0.0000000001
44
0.0000000001
40
0
40
0
40
0
40
1
40
1
40
1
10
190.56309511073385
20
205.87652609138448
30
0
10
190.56309511073385
20
204.38021331705471
30
0
10
188.98642398399559
20
204.38021331705471
30
0
0
ARC
5
212
100
AcDbEntity
8
0
100
AcDbCircle
10
-158.20579508339716
20
137.47491903805565
30
0
40
3.6879405544803641
210
0
220
0
230
-1
100
AcDbArc
50
269.94521167930935
51
271.76400956444525
0
SPLINE
5
213
100
AcDbEntity
8
0
100
AcDbSpline
70
0
71
2
72
6
73
3
74
0
42
0.000000001
43
0.0000000001
44
0.0000000001
40
0
40
0
40
0
40
1
40
1
40
1
10
168.16990534911395
20
75.14418961827505
30
0
10
168.19087129509811
20
74.917076308295876
30
0
10
168.19436339798929
20
74.713548021469265
30
0
0
LINE
5
214
100
AcDbEntity
8
0
100
AcDbLine
10
49.826503635966269
20
130.51221403323115
30
0
11
49.826503635966269
21
132.29590554968721
31
0
0
SPLINE
5
215
100
AcDbEntity
8
0
100
AcDbSpline
70
0
71
2
72
6
73
3
74
0
42
0.000000001
43
0.0000000001
44
0.0000000001
40
0
40
0
40
0
40
1
40
1
40
1
10
54.113669720052329
20
129.10498986853787
30
0
10
54.164331869248656
20
129.2797016421936
30
0
10
54.164331869248656
20
129.58104879588467
30
0
0
SPLINE
5
216
100
AcDbEntity
8
0
100
AcDbSpline
70
0
71
2
72
6
73
3
74
0
42
0.000000001
43
0.0000000001
44
0.0000000001
40
0
40
0
40
0
40
1
40
1
40
1
10
189.23012478270795
20
205.18383682705058
30
0
10
189.38124486889265
20
205.21090728877581
30
0
10
189.5009093717826
20
205.27031302383716
30
0
0
LINE
5
217
100
AcDbEntity
8
0
100
AcDbLine
10
49.788943536930425
20
124.67283153912294
30
0
11
50.513078388081347
21
124.5645097063109
31
0
0
ARC
5
218
100
AcDbEntity
8
0
100
AcDbCircle
10
-53.181636870527321
20
129.78273949540335
30
0
40
3.4494733283858237
210
-0
220
0
230
-1
100
AcDbArc
50
-4.0787979416016888
51
0.0015204114622119889
0
ARC
5
219
100
AcDbEntity
8
0
100
AcDbCircle
10
-163.55219908671231
20
49.918497279938414
30
0
40
4.6059945782284144
210
0
220
0
230
-1
100
AcDbArc
50
211.32407445764574
51
242.19809661912458
0
SPLINE
5
220
100
AcDbEntity
8
0
100
AcDbSpline
70
0
71
2
72
6
73
3
74
0
42
0.000000001
43
0.0000000001
44
0.0000000001
40
0
40
0
40
0
40
1
40
1
40
1
10
49.732163543356009
20
129.78283103126569
30
0
10
49.732163543356009
20
130.18726186343204
30
0
10
49.826503635966269
20
130.51221403323115
30
0
0
ARC
5
221
100
AcDbEntity
8
0
100
AcDbCircle
10
-162.50608365454428
20
63.506294396180813
30
0
40
4.510782709455067
210
-0
220
0
230
-1
100
AcDbArc
50
-0.15301546341631186
51
5.9712040049043571
0
LINE
5
222
100
AcDbEntity
8
0
100
AcDbLine
10
156.75494074418972
20
73.098437105653858
30
0
11
156.75494074418972
21
76.35748877909252
31
0
0
SPLINE
5
223
100
AcDbEntity
8
0
100
AcDbSpline
70
0
71
2
72
6
73
3
74
0
42
0.000000001
43
0.0000000001
44
0.0000000001
40
0
40
0
40
0
40
1
40
1
40
1
10
167.96551070088302
20
76.241309714775298
30
0
10
168.0476151047371
20
75.994983174576049
30
0
10
168.10702083979839
20
75.624613674235874
30
0
0
LINE
5
224
100
AcDbEntity
8
0
100
AcDbLine
10
49.826503635966269
20
132.29590554968721
30
0
11
50.320033074246815
21
132.29590554968721
31
0
0
SPLINE
5
225
100
AcDbEntity
8
0
100
AcDbSpline
70
0
71
2
72
6
73
3
74
0
42
0.000000001
43
0.0000000001
44
0.0000000001
40
0
40
0
40
0
40
1
40
1
40
1
10
190.52292259884811
20
206.32114276407353
30
0
10
190.56048269788397
20
206.09053068688468
30
0
10
190.56222874932956
20
205.90273019170542
30
0
0
LINE
5
226
100
AcDbEntity
8
0
100
AcDbLine
10
54.865758055129056
20
130.24404185700644
30
0
11
54.865758055129056
21
129.30765179396016
31
0
0
LINE
5
227
100
AcDbEntity
8
0
100
AcDbLine
10
49.826503635966262
20
121.70378434929746
30
0
11
49.826503635966269
21
122.34842387728494
31
0
0
SPLINE
5
228
100
AcDbEntity
8
0
100
AcDbSpline
70
0
71
2
72
6
73
3
74
0
42
0.000000001
43
0.0000000001
44
0.0000000001
40
0
40
0
40
0
40
1
40
1
40
1
10
157.50702241494795
20
133.87957421084488
30
0
10
157.74200628506929
20
133.8000822198407
30
0
10
158.09226953651111
20
133.78872622112581
30
0
0
ARC
5
229
100
AcDbEntity
8
0
100
AcDbCircle
10
-160.30569186517511
20
129.22879751530314
30
0
40
1.1897145541848206
210
-0
220
0
230
-1
100
AcDbArc
50
312.09036860710216
51
343.50426663848532
0
ARC
5
230
100
AcDbEntity
8
0
100
AcDbCircle
10
-54.749114375517621
20
64.020788165330458
30
0
40
9.388437818120245
210
0
220
0
230
-1
100
AcDbArc
50
269.64531730311688
51
280.11961620587346
0
ARC
5
231
100
AcDbEntity
8
0
100
AcDbCircle
10
-51.399545665502167
20
130.17231904459766
30
0
40
1.5024295774080993
210
0
220
0
230
-1
100
AcDbArc
50
69.126778406526313
51
83.260912084929558
0
LINE
5
232
100
AcDbEntity
8
0
100
AcDbLine
10
189.82411549013614
20
206.69499770298643
30
0
11
190.42158497181848
21
206.69499770298643
31
0
0
ARC
5
233
100
AcDbEntity
8
0
100
AcDbCircle
10
-163.03561797889702
20
50.76157406802934
30
0
40
5.5930559539089444
210
0
220
0
230
-1
100
AcDbArc
50
241.54527475284297
51
244.33891067121547
0
LINE
5
234
100
AcDbEntity
8
0
100
AcDbLine
10
52.21641488428817
20
122.48469586186357
30
0
11
54.983679838732641
21
122.48469586186357
31
0
0
ARC
5
235
100
AcDbEntity
8
0
100
AcDbCircle
10
-160.28042401438196
20
129.51705420623895
30
0
40
1.8107769728979359
210
0
220
0
230
-1
100
AcDbArc
50
15.967651342069573
51
48.779586889912707
0
SPLINE
5
236
100
AcDbEntity
8
0
100
AcDbSpline
70
0
71
2
72
6
73
3
74
0
42
0.000000001
43
0.0000000001
44
0.0000000001
40
0
40
0
40
0
40
1
40
1
40
1
10
161.16440040481183
20
127.08195601766494
30
0
10
160.1485050221244
20
127.08195601766494
30
0
10
159.47240991084215
20
127.48987895272248
30
0
0
SPLINE
5
237
100
AcDbEntity
8
0
100
AcDbSpline
70
0
71
2
72
6
73
3
74
0
42
0.000000001
43
0.0000000001
44
0.0000000001
40
0
40
0
40
0
40
1
40
1
40
1
10
187.88579845596718
20
208.24809047089062
30
0
10
188.52695920970046
20
208.24809047089062
30
0
10
188.96982983094392
20
208.41405865868137
30
0
0
LINE
5
238
100
AcDbEntity
8
0
100
AcDbLine
10
50.320033074246815
20
132.29590554968721
30
0
11
50.433589729236409
21
131.34029559210236
31
0
0
ARC
5
239
100
AcDbEntity
8
0
100
AcDbCircle
10
-52.075103007496807
20
124.77485723598068
30
0
40
2.6379867556060912
210
-0
220
0
230
-1
100
AcDbArc
50
299.3716211378308
51
310.54720490447278
0
LINE
5
240
100
AcDbEntity
8
0
100
AcDbLine
10
158.7980741796425
20
132.08364700563263
30
0
11
158.51505390181171
21
133.00606865711413
31
0
0
ARC
5
241
100
AcDbEntity
8
0
100
AcDbCircle
10
-158.70192149457884
20
134.64998844120038
30
0
40
2.3741880383934775
210
-0
220
0
230
-1
100
AcDbArc
50
-9.8501241908682218
51
0.42220254316923733
0
SPLINE
5
242
100
AcDbEntity
8
0
100
AcDbSpline
70
0
71
2
72
6
73
3
74
0
42
0.000000001
43
0.0000000001
44
0.0000000001
40
0
40
0
40
0
40
1
40
1
40
1
10
57.246062688340942
20
42.742373062064374
30
0
10
53.843754824541278
20
42.742373062064374
30
0
10
53.679536020355357
20
48.185185287670684
30
0
0
LINE
5
243
100
AcDbEntity
8
0
100
AcDbLine
10
158.54388374361957
20
133.78698016968022
30
0
11
158.54388374361957
21
135.09986424176327
31
0
0
ARC
5
244
100
AcDbEntity
8
0
100
AcDbCircle
10
-56.661643457246676
20
129.29536778314099
30
0
40
1.7959274134722094
210
-0
220
0
230
-1
100
AcDbArc
50
-9.9696335490276944
51
0.39190195453962529
0
ARC
5
245
100
AcDbEntity
8
0
100
AcDbCircle
10
-161.04640532493622
20
42.123828581503545
30
0
40
2.9480812438413126
210
-0
220
0
230
-1
100
AcDbArc
50
-47.08879414544451
51
0.37546532306888486
0
LINE
5
246
100
AcDbEntity
8
0
100
AcDbLine
10
156.75494074418972
20
37.141456544491
30
0
11
156.75494074418975
21
38.545178609815366
31
0
0
LINE
5
247
100
AcDbEntity
8
0
100
AcDbLine
10
184.11663318767404
20
205.16112482962083
30
0
11
185.31158547967573
21
205.1611248296208
31
0
0
LINE
5
248
100
AcDbEntity
8
0
100
AcDbLine
10
158.51505390181171
20
133.00606865711413
30
0
11
158.22854152108971
21
133.00606865711413
31
0
0
SPLINE
5
249
100
AcDbEntity
8
0
100
AcDbSpline
70
0
71
2
72
6
73
3
74
0
42
0.000000001
43
0.0000000001
44
0.0000000001
40
0
40
0
40
0
40
1
40
1
40
1
10
160.1493847121657
20
47.151829390527283
30
0
10
160.63505358678182
20
46.990229663509766
30
0
10
161.22903096557297
20
46.914236439715268
30
0
0
ARC
5
250
100
AcDbEntity
8
0
100
AcDbCircle
10
-48.427405605377942
20
126.49408215869445
30
0
40
0.92242185974143598
210
0
220
0
230
-1
100
AcDbArc
50
264.41871555967487
51
269.90741968494825
0
ARC
5
251
100
AcDbEntity
8
0
100
AcDbCircle
10
-48.50747015108265
20
126.03973140629199
30
0
40
0.59660431777278544
210
-0
220
0
230
-1
100
AcDbArc
50
355.56201755364452
51
359.34126382634355
0
ARC
5
252
100
AcDbEntity
8
0
100
AcDbCircle
10
-56.466616271959097
20
128.99213749236685
30
0
40
1.9330678420546472
210
-0
220
0
230
-1
100
AcDbArc
50
335.81019026024774
51
347.63730247539678
0
LINE
5
253
100
AcDbEntity
8
0
100
AcDbLine
10
185.5421842282276
20
203.64122036781995
30
0
11
185.21724538706547
21
204.38021331705471
31
0
0
ARC
5
254
100
AcDbEntity
8
0
100
AcDbCircle
10
-160.70927648241761
20
129.34359626136168
30
0
40
1.6055032594056047
210
-0
220
0
230
-1
100
AcDbArc
50
-0.28529524064328993
51
10.369897199128809
0
ARC
5
255
100
AcDbEntity
8
0
100
AcDbCircle
10
-54.831383970548877
20
64.63667007110557
30
0
40
8.2406514072246217
210
0
220
0
230
-1
100
AcDbArc
50
261.94238368093613
51
270.31367515557901
0
SPLINE
5
256
100
AcDbEntity
8
0
100
AcDbSpline
70
0
71
2
72
6
73
3
74
0
42
0.000000001
43
0.0000000001
44
0.0000000001
40
0
40
0
40
0
40
1
40
1
40
1
10
166.68145647060783
20
76.019441223451409
30
0
10
166.63428642430273
20
76.270139556583146
30
0
10
166.58537032655198
20
76.4395998472651
30
0
0
ARC
5
257
100
AcDbEntity
8
0
100
AcDbCircle
10
-159.16011621243558
20
129.35502278969449
30
0
40
4.6889778390839787
210
0
220
0
230
-1
100
AcDbArc
50
156.52004945498476
51
162.11271422146731
0
LINE
5
258
100
AcDbEntity
8
0
100
AcDbLine
10
185.31158547967573
20
205.1611248296208
30
0
11
185.31158547967573
21
206.65743760395057
31
0
0
LWPOLYLINE
5
259
100
AcDbEntity
8
0
100
AcDbPolyline
90
4
70
1
43
0.0
10
156.37932642519425
20
124.9322601294827
10
156.37932642519425
20
125.71317164204879
10
163.70105328206745
20
125.71317164204879
10
163.70105328206745
20
124.9322601294827
0
SPLINE
5
260
100
AcDbEntity
8
0
100
AcDbSpline
70
0
71
2
72
6
73
3
74
0
42
0.000000001
43
0.0000000001
44
0.0000000001
40
0
40
0
40
0
40
1
40
1
40
1
10
166.24644974518804
20
73.57974085165597
30
0
10
166.78976497478288
20
74.061917623380893
30
0
10
166.78976497478288
20
74.902228206689799
30
0
0
SPLINE
5
261
100
AcDbEntity
8
0
100
AcDbSpline
70
0
71
2
72
6
73
3
74
0
42
0.000000001
43
0.0000000001
44
0.0000000001
40
0
40
0
40
0
40
1
40
1
40
1
10
160.20004686136201
20
130.57423218114238
30
0
10
159.97031447421443
20
130.53667208210652
30
0
10
159.78687244333071
20
130.45543403965675
30
0
0
ARC
5
262
100
AcDbEntity
8
0
100
AcDbCircle
10
-137.97403874127568
20
215.77303453346235
30
0
40
1.2849266312181342
210
0
220
0
230
-1
100
AcDbArc
50
9.6013600118254239
51
52.011954223051362
0
ARC
5
263
100
AcDbEntity
8
0
100
AcDbCircle
10
-53.380778989981749
20
59.280836840790215
30
0
40
4.4059621429721521
210
-0
220
0
230
-1
100
AcDbArc
50
311.69324287369307
51
348.51361011523471
0
LINE
5
264
100
AcDbEntity
8
0
100
AcDbLine
10
157.34805176157658
20
136.42671672541107
30
0
11
157.34805176157658
21
136.87831760388252
31
0
0
ARC
5
265
100
AcDbEntity
8
0
100
AcDbCircle
10
-53.854394942876425
20
129.00623235737967
30
0
40
0.89359618313265132
210
0
220
0
230
-1
100
AcDbArc
50
269.3938920433884
51
288.18004556700515
0
ARC
5
266
100
AcDbEntity
8
0
100
AcDbCircle
10
-51.222306798043959
20
130.34590986497764
30
0
40
1.2692035254196781
210
0
220
0
230
-1
100
AcDbArc
50
51.579598959397543
51
60.47999940959663
0
SPLINE
5
267
100
AcDbEntity
8
0
100
AcDbSpline
70
0
71
2
72
6
73
3
74
0
42
0.000000001
43
0.0000000001
44
0.0000000001
40
0
40
0
40
0
40
1
40
1
40
1
10
54.892835181172821
20
128.98444567560662
30
0
10
54.948738816865195
20
128.67872672898307
30
0
10
55.119948491151987
20
128.47957023508894
30
0
0
SPLINE
5
268
100
AcDbEntity
8
0
100
AcDbSpline
70
0
71
2
72
6
73
3
74
0
42
0.000000001
43
0.0000000001
44
0.0000000001
40
0
40
0
40
0
40
1
40
1
40
1
10
158.8836706863878
20
45.880880542571838
30
0
10
159.65847768321279
20
45.436263869882765
30
0
10
160.65339379127909
20
45.239726453157047
30
0
0
SPLINE
5
269
100
AcDbEntity
8
0
100
AcDbSpline
70
0
71
2
72
6
73
3
74
0
42
0.000000001
43
0.0000000001
44
0.0000000001
40
0
40
0
40
0
40
1
40
1
40
1
10
55.986466506941134
20
56.477373535894053
30
0
10
56.594425625934065
20
56.567348499890322
30
0
10
57.088831422096661
20
56.755148995069561
30
0
0
SPLINE
5
270
100
AcDbEntity
8
0
100
AcDbSpline
70
0
71
2
72
6
73
3
74
0
42
0.000000001
43
0.0000000001
44
0.0000000001
40
0
40
0
40
0
40
1
40
1
40
1
10
52.521267469507436
20
130.20997386086179
30
0
10
52.382379739919685
20
130.71923442294894
30
0
10
51.881862763697498
20
130.85725245897316
30
0
0
ARC
5
271
100
AcDbEntity
8
0
100
AcDbCircle
10
-187.18210028525698
20
209.95723039818824
30
0
40
1.2849266312181342
210
0
220
0
230
-1
100
AcDbArc
50
9.6013600118239371
51
52.011954223051582
0
LINE
5
272
100
AcDbEntity
8
0
100
AcDbLine
10
49.826503635966269
20
122.34842387728494
30
0
11
50.781243899987565
21
122.43840550559973
31
0
0
ARC
5
273
100
AcDbEntity
8
0
100
AcDbCircle
10
-55.838050175236134
20
128.62438597336191
30
0
40
1.1940820777882717
210
0
220
0
230
-1
100
AcDbArc
50
268.99784066571283
51
311.62842037121146
0
SPLINE
5
274
100
AcDbEntity
8
0
100
AcDbSpline
70
0
71
2
72
6
73
3
74
0
42
0.000000001
43
0.0000000001
44
0.0000000001
40
0
40
0
40
0
40
1
40
1
40
1
10
141.31486105486684
20
208.73463903554801
30
0
10
141.35242115390267
20
208.50402695835913
30
0
10
141.35416720534829
20
208.31709282458422
30
0
0
SPLINE
5
275
100
AcDbEntity
8
0
100
AcDbSpline
70
0
71
2
72
6
73
3
74
0
42
0.000000001
43
0.0000000001
44
0.0000000001
40
0
40
0
40
0
40
1
40
1
40
1
10
56.140199005975695
20
128.23497641769831
30
0
10
56.350718162903199
20
128.31796051159367
30
0
10
56.484364405994903
20
128.53633690002636
30
0
0
SPLINE
5
276
100
AcDbEntity
8
0
100
AcDbSpline
70
0
71
2
72
6
73
3
74
0
42
0.000000001
43
0.0000000001
44
0.0000000001
40
0
40
0
40
0
40
1
40
1
40
1
10
190.45739901940874
20
206.60414971326733
30
0
10
190.49495911844457
20
206.49146941615982
30
0
10
190.52292259884811
20
206.32114276407353
30
0
0
ARC
5
277
100
AcDbEntity
8
0
100
AcDbCircle
10
-163.14449128574097
20
63.456145886955191
30
0
40
5.1493152225820271
210
-0
220
0
230
-1
100
AcDbArc
50
-10.36268879020526
51
0.42395912243183775
0
SPLINE
5
278
100
AcDbEntity
8
0
100
AcDbSpline
70
0
71
2
72
6
73
3
74
0
42
0.000000001
43
0.0000000001
44
0.0000000001
40
0
40
0
40
0
40
1
40
1
40
1
10
158.25213320856079
20
43.373044178487099
30
0
10
158.12372511980587
20
42.792162185537926
30
0
10
158.10275917382171
20
42.325713205460389
30
0
0
LINE
5
279
100
AcDbEntity
8
0
100
AcDbLine
10
185.31158547967573
20
206.65743760395057
30
0
11
185.91866490862736
21
206.65743760395057
31
0
0
SPLINE
5
280
100
AcDbEntity
8
0
100
AcDbSpline
70
0
71
2
72
6
73
3
74
0
42
0.000000001
43
0.0000000001
44
0.0000000001
40
0
40
0
40
0
40
1
40
1
40
1
10
49.201947031762415
20
61.951631348317378
30
0
10
49.335593274854126
20
62.433808120042293
30
0
10
49.497193001871651
20
62.750889729699246
30
0
0
ARC
5
281
100
AcDbEntity
8
0
100
AcDbCircle
10
-51.358335010447746
20
130.03455764634967
30
0
40
1.7321615480357648
210
0
220
0
230
-1
100
AcDbArc
50
139.38687162141355
51
165.10209117619712
0
LINE
5
282
100
AcDbEntity
8
0
100
AcDbLine
10
167.98908905971706
20
37.141456544491007
30
0
11
156.75494074418972
21
37.141456544491
31
0
0
ARC
5
283
100
AcDbEntity
8
0
100
AcDbCircle
10
-139.35453503323285
20
211.63930600625292
30
0
40
2.0012011269645678
210
0
220
0
230
-1
100
AcDbArc
50
177.73104510803063
51
178.48170201851704
0
ARC
5
284
100
AcDbEntity
8
0
100
AcDbCircle
10
-164.71346625518089
20
76.524238356603277
30
0
40
3.425888721753179
210
0
220
0
230
-1
100
AcDbArc
50
260.29749453198684
51
270.4094336063618
0
ARC
5
285
100
AcDbEntity
8
0
100
AcDbCircle
10
-162.08943180461239
20
42.138911516858556
30
0
40
3.9910466717341251
210
0
220
0
230
-1
100
AcDbArc
50
0.060812584104712894
51
2.6827198405452837
0
ARC
5
286
100
AcDbEntity
8
0
100
AcDbCircle
10
-48.510627162424825
20
126.01234497030136
30
0
40
0.43849976548077124
210
0
220
0
230
-1
100
AcDbArc
50
200.09781389768887
51
224.76342948582962
0
LINE
5
287
100
AcDbEntity
8
0
100
AcDbLine
10
158.20932162655114
20
133.78698016968022
30
0
11
158.54388374361957
21
133.78698016968022
31
0
0
ARC
5
288
100
AcDbEntity
8
0
100
AcDbCircle
10
-48.363794193775782
20
126.01400698658672
30
0
40
0.45160238835611366
210
-0
220
0
230
-1
100
AcDbArc
50
316.57294040757256
51
357.40574376871399
0
ARC
5
289
100
AcDbEntity
8
0
100
AcDbCircle
10
-188.20000148738498
20
210.04681615990063
30
0
40
2.5672327274481708
210
0
220
0
230
-1
100
AcDbArc
50
241.67864610966765
51
244.47771887045386
0
LINE
5
290
100
AcDbEntity
8
0
100
AcDbLine
10
188.98642398399559
20
204.38021331705471
30
0
11
185.91866490862736
21
204.38021331705471
31
0
0
ARC
5
291
100
AcDbEntity
8
0
100
AcDbCircle
10
-188.054442185433
20
209.76972223863561
30
0
40
2.5087079319878836
210
0
220
0
230
-1
100
AcDbArc
50
179.6205792163619
51
196.4852053481701
0
SPLINE
5
292
100
AcDbEntity
8
0
100
AcDbSpline
70
0
71
2
72
6
73
3
74
0
42
0.000000001
43
0.0000000001
44
0.0000000001
40
0
40
0
40
0
40
1
40
1
40
1
10
165.29083978760323
20
73.147353203404592
30
0
10
165.62101678310214
20
73.206752274147405
30
0
10
165.88220475354447
20
73.336033388625125
30
0
0
ARC
5
293
100
AcDbEntity
8
0
100
AcDbCircle
10
-139.41983406492599
20
215.78219770295644
30
0
40
1.2622155709581453
210
0
220
0
230
-1
100
AcDbArc
50
127.33902063516024
51
165.41562274786659
0
LINE
5
294
100
AcDbEntity
8
0
100
AcDbLine
10
158.44954365100929
20
136.09740609131643
30
0
11
157.34805176157658
21
136.42671672541107
31
0
0
ARC
5
295
100
AcDbEntity
8
0
100
AcDbCircle
10
-139.96033933085005
20
208.36510623325665
30
0
40
0.75732930092289541
210
0
220
0
230
-1
100
AcDbArc
50
228.6613047828848
51
243.95645860888135
0
ARC
5
296
100
AcDbEntity
8
0
100
AcDbCircle
10
-54.752255263174163
20
65.797620495429697
30
0
40
9.4015398682807199
210
0
220
0
230
-1
100
AcDbArc
50
269.79270730647119
51
275.41696546705089
0
ARC
5
297
100
AcDbEntity
8
0
100
AcDbCircle
10
-50.873110925934746
20
129.78690840538985
30
0
40
1.7015887786816051
210
0
220
0
230
-1
100
AcDbArc
50
165.60356210728295
51
180.75486499255626
0
LINE
5
298
100
AcDbEntity
8
0
100
AcDbLine
10
157.25720377185752
20
69.78697723157326
30
0
11
156.55053276732184
21
71.396849993051873
31
0
0
ARC
5
299
100
AcDbEntity
8
0
100
AcDbCircle
10
-163.43439406068995
20
49.978617571294059
30
0
40
4.7378939368347091
210
0
220
0
230
-1
100
AcDbArc
50
196.77166988340616
51
211.20450918233098
0
ARC
5
300
100
AcDbEntity
8
0
100
AcDbCircle
10
-157.65974474614114
20
134.54881118802706
30
0
40
0.67609328900764853
210
-0
220
0
230
-1
100
AcDbArc
50
305.62515171637483
51
347.22497057553898
0
ARC
5
301
100
AcDbEntity
8
0
100
AcDbCircle
10
-160.4549819568845
20
129.24121682080371
30
0
40
2.0012011269645456
210
-0
220
0
230
-1
100
AcDbArc
50
309.45461339357666
51
357.52464570137937
0
ARC
5
302
100
AcDbEntity
8
0
100
AcDbCircle
10
-53.840786209832096
20
128.9145125913731
30
0
40
0.81061313053703565
210
0
220
0
230
-1
100
AcDbArc
50
204.50683657350166
51
233.3919328998924
0
SPLINE
5
303
100
AcDbEntity
8
0
100
AcDbSpline
70
0
71
2
72
6
73
3
74
0
42
0.000000001
43
0.0000000001
44
0.0000000001
40
0
40
0
40
0
40
1
40
1
40
1
10
188.88509968560297
20
211.23111940091786
30
0
10
188.6501158154816
20
211.30798565043517
30
0
10
188.36273707335528
20
211.34117395653851
30
0
0
SPLINE
5
304
100
AcDbEntity
8
0
100
AcDbSpline
70
0
71
2
72
6
73
3
74
0
42
0.000000001
43
0.0000000001
44
0.0000000001
40
0
40
0
40
0
40
1
40
1
40
1
10
156.64138075704091
20
64.842066237179992
30
0
10
156.74795653840735
20
65.460508329165009
30
0
10
156.98118102844609
20
65.948796280949523
30
0
0
SPLINE
5
305
100
AcDbEntity
8
0
100
AcDbSpline
70
0
71
2
72
6
73
3
74
0
42
0.000000001
43
0.0000000001
44
0.0000000001
40
0
40
0
40
0
40
1
40
1
40
1
10
190.56309511073385
20
209.78633513718873
30
0
10
190.56309511073385
20
210.90616723111873
30
0
10
189.85469138338956
20
211.54207650187826
30
0
0
ARC
5
306
100
AcDbEntity
8
0
100
AcDbCircle
10
-187.8989445866199
20
207.25318786842192
30
0
40
4.1142111913934691
210
0
220
0
230
-1
100
AcDbArc
50
89.81692260070966
51
96.47267656082883
0
ARC
5
307
100
AcDbEntity
8
0
100
AcDbCircle
10
-55.742571899615598
20
129.01753806769523
30
0
40
0.82284220703969835
210
-0
220
0
230
-1
100
AcDbArc
50
280.94080382509537
51
319.17186705793983
0
ARC
5
308
100
AcDbEntity
8
0
100
AcDbCircle
10
-162.2600060677664
20
42.469223306694765
30
0
40
5.7013707058825993
210
0
220
0
230
-1
100
AcDbArc
50
4.9897851714677328
51
11.530739745154229
0
ARC
5
309
100
AcDbEntity
8
0
100
AcDbCircle
10
-139.6665572267938
20
208.40134439803026
30
0
40
1.0438391825254496
210
0
220
0
230
-1
100
AcDbArc
50
179.87789151141439
51
188.78217998334841
0
ARC
5
310
100
AcDbEntity
8
0
100
AcDbCircle
10
-57.976499340638483
20
59.429527272301996
30
0
40
7.5697994485180411
210
0
220
0
230
-1
100
AcDbArc
50
15.139797231634773
51
21.693684182853289
0
ARC
5
311
100
AcDbEntity
8
0
100
AcDbCircle
10
-55.869658657955029
20
129.07963017502775
30
0
40
1.6491784954401409
210
0
220
0
230
-1
100
AcDbArc
50
267.33703861194709
51
270.37257186164675
0
ARC
5
312
100
AcDbEntity
8
0
100
AcDbCircle
10
-189.16843496141328
20
205.95076025653483
30
0
40
0.75732930092286721
210
0
220
0
230
-1
100
AcDbArc
50
228.66473937422478
51
243.9593288405388
0
SPLINE
5
313
100
AcDbEntity
8
0
100
AcDbSpline
70
0
71
2
72
6
73
3
74
0
42
0.000000001
43
0.0000000001
44
0.0000000001
40
0
40
0
40
0
40
1
40
1
40
1
10
53.883064307181954
20
128.82983348653076
30
0
10
53.991379475675501
20
128.8674069142036
30
0
10
54.056889726477905
20
128.97222331548744
30
0
0
ARC
5
314
100
AcDbEntity
8
0
100
AcDbCircle
10
-160.90598141350915
20
130.8476226203729
30
0
40
2.9507017788293775
210
-0
220
0
230
-1
100
AcDbArc
50
275.40441704362792
51
278.01790860176465
0
ARC
5
315
100
AcDbEntity
8
0
100
AcDbCircle
10
-139.47817824183977
20
208.82041899260034
30
0
40
1.173991448386384
210
0
220
0
230
-1
100
AcDbArc
50
165.75136906497247
51
166.2789474037354
0
SPLINE
5
316
100
AcDbEntity
8
0
100
AcDbSpline
70
0
71
2
72
6
73
3
74
0
42
0.000000001
43
0.0000000001
44
0.0000000001
40
0
40
0
40
0
40
1
40
1
40
1
10
50.596935507699527
20
131.45035014772301
30
0
10
50.713984265580308
20
131.51761977860804
30
0
10
50.864227993882942
20
131.57614582362805
30
0
0
ARC
5
317
100
AcDbEntity
8
0
100
AcDbCircle
10
-57.395050613596446
20
59.714288834146217
30
0
40
8.4930941257223314
210
0
220
0
230
-1
100
AcDbArc
50
11.998909053299778
51
15.273731047957643
0
ARC
5
318
100
AcDbEntity
8
0
100
AcDbCircle
10
-160.26618223067044
20
129.34653064882519
30
0
40
1.2080581949713181
210
0
220
0
230
-1
100
AcDbArc
50
50.391667711329767
51
66.624182023982655
0
ARC
5
319
100
AcDbEntity
8
0
100
AcDbCircle
10
-166.3735373740187
20
75.724898485644388
30
0
40
1.6736366484454877
210
0
220
0
230
-1
100
AcDbArc
50
154.72046202321781
51
162.02774854603524
0
ARC
5
320
100
AcDbEntity
8
0
100
AcDbCircle
10
-138.07559543402223
20
215.8163966031666
30
0
40
2.0448765712590484
210
0
220
0
230
-1
100
AcDbArc
50
16.751181627689757
51
48.81117478949681
0
ARC
5
321
100
AcDbEntity
8
0
100
AcDbCircle
10
-161.21068635281711
20
129.33841519681761
30
0
40
2.7611510670054389
210
-0
220
0
230
-1
100
AcDbArc
50
-3.8132534380940597
51
0.14103625244195869
0
ARC
5
322
100
AcDbEntity
8
0
100
AcDbCircle
10
-53.548475299856335
20
59.512693269991949
30
0
40
4.6907247235693932
210
-0
220
0
230
-1
100
AcDbArc
50
297.30013168941792
51
311.33906456667125
0
SPLINE
5
323
100
AcDbEntity
8
0
100
AcDbSpline
70
0
71
2
72
6
73
3
74
0
42
0.000000001
43
0.0000000001
44
0.0000000001
40
0
40
0
40
0
40
1
40
1
40
1
10
189.49829695893268
20
211.80151842087497
30
0
10
188.85539015375377
20
212.17711941123343
30
0
10
187.88579845596718
20
212.17711941123343
30
0
0
SPLINE
5
324
100
AcDbEntity
8
0
100
AcDbSpline
70
0
71
2
72
6
73
3
74
0
42
0.000000001
43
0.0000000001
44
0.0000000001
40
0
40
0
40
0
40
1
40
1
40
1
10
187.88579845596718
20
218.08726363911779
30
0
10
189.15588427467756
20
218.08726363911779
30
0
10
189.85904984768507
20
217.51947703201066
30
0
0
ARC
5
325
100
AcDbEntity
8
0
100
AcDbCircle
10
-56.590923951028159
20
59.851349520610036
30
0
40
7.6781137839717761
210
0
220
0
230
-1
100
AcDbArc
50
0.067995655527194568
51
12.245955838147736
0
SPLINE
5
326
100
AcDbEntity
8
0
100
AcDbSpline
70
0
71
2
72
6
73
3
74
0
42
0.000000001
43
0.0000000001
44
0.0000000001
40
0
40
0
40
0
40
1
40
1
40
1
10
141.24933747542744
20
209.01764598474182
30
0
10
141.28689757446327
20
208.90496568763427
30
0
10
141.31486105486684
20
208.73463903554801
30
0
0
LINE
5
327
100
AcDbEntity
8
0
100
AcDbLine
10
167.98908905971706
20
38.842170631370195
30
0
11
167.98908905971706
21
37.141456544491007
31
0
0
ARC
5
328
100
AcDbEntity
8
0
100
AcDbCircle
10
-187.8606656106096
20
211.49395763833451
30
0
40
4.055686395933173
210
0
220
0
230
-1
100
AcDbArc
50
269.64493921811089
51
280.79008982824632
0
SPLINE
5
329
100
AcDbEntity
8
0
100
AcDbSpline
70
0
71
2
72
6
73
3
74
0
42
0.000000001
43
0.0000000001
44
0.0000000001
40
0
40
0
40
0
40
1
40
1
40
1
10
162.4615566852475
20
136.9010296013123
30
0
10
162.61354313283647
20
136.92811339167457
30
0
10
162.73320763572642
20
136.98750579809888
30
0
0
SPLINE
5
330
100
AcDbEntity
8
0
100
AcDbSpline
70
0
71
2
72
6
73
3
74
0
42
0.000000001
43
0.0000000001
44
0.0000000001
40
0
40
0
40
0
40
1
40
1
40
1
10
158.67227850373752
20
65.451771407618523
30
0
10
158.12459148121019
20
64.945136587018254
30
0
10
158.01977507992635
20
63.975544889231628
30
0
0
ARC
5
331
100
AcDbEntity
8
0
100
AcDbCircle
10
-163.83042500023268
20
74.684724843979907
30
0
40
4.3640335831631099
210
0
220
0
230
-1
100
AcDbArc
50
179.62157522446094
51
180.37842477553809
0
LINE
5
332
100
AcDbEntity
8
0
100
AcDbLine
10
163.05641375407993
20
138.41219047724815
30
0
11
163.65388323576229
21
138.41219047724815
31
0
0
LINE
5
333
100
AcDbEntity
8
0
100
AcDbLine
10
140.61605394615481
20
209.10937366450216
30
0
11
141.21352342783717
21
209.10937366450216
31
0
0
ARC
5
334
100
AcDbEntity
8
0
100
AcDbCircle
10
-188.62789230812524
20
209.96640625402975
30
0
40
1.2622155709581291
210
0
220
0
230
-1
100
AcDbArc
50
127.33997007771225
51
165.41621779234276
0
ARC
5
335
100
AcDbEntity
8
0
100
AcDbCircle
10
-139.96037341743201
20
211.76656439180897
30
0
40
0.75732930092287898
210
0
220
0
230
-1
100
AcDbArc
50
228.6647393742262
51
243.95932884053781
0
ARC
5
336
100
AcDbEntity
8
0
100
AcDbCircle
10
-53.754511819114484
20
129.213291915436
30
0
40
0.40443307096082737
210
0
220
0
230
-1
100
AcDbArc
50
251.46653481059857
51
270.59795892763651
0
ARC
5
337
100
AcDbEntity
8
0
100
AcDbCircle
10
-160.18591857870513
20
129.4593135339849
30
0
40
1.0700443241461768
210
0
220
0
230
-1
100
AcDbArc
50
9.3191998503390394
51
49.852652623378631
0
ARC
5
338
100
AcDbEntity
8
0
100
AcDbCircle
10
-189.18678444066961
20
205.92501074204563
30
0
40
0.7258830893260414
210
0
220
0
230
-1
100
AcDbArc
50
187.64234323368703
51
228.40988324677619
0
ARC
5
339
100
AcDbEntity
8
0
100
AcDbCircle
10
-55.841133176352535
20
129.43340750764091
30
0
40
1.2499864423904687
210
0
220
0
230
-1
100
AcDbArc
50
269.62451554987189
51
281.75856528084722
0
ARC
5
340
100
AcDbEntity
8
0
100
AcDbCircle
10
-55.950480983983496
20
128.75117739242472
30
0
40
1.3635421602102771
210
-0
220
0
230
-1
100
AcDbArc
50
311.620492926932
51
336.15938156532866
0
ARC
5
341
100
AcDbEntity
8
0
100
AcDbCircle
10
-57.424988183662421
20
59.455315397628958
30
0
40
7.0282252721299354
210
0
220
0
230
-1
100
AcDbArc
50
8.2447988846805718
51
12.677633425394447
0
ARC
5
342
100
AcDbEntity
8
0
100
AcDbCircle
10
-164.82011243542183
20
76.744993665470503
30
0
40
5.3484746321155017
210
0
220
0
230
-1
100
AcDbArc
50
257.14864616334199
51
270.6374005805082
0
ARC
5
343
100
AcDbEntity
8
0
100
AcDbCircle
10
-139.35446913679081
20
208.23954551533564
30
0
40
2.0012011269645553
210
0
220
0
230
-1
100
AcDbArc
50
177.7792106015207
51
178.55465947838019
0
ARC
5
344
100
AcDbEntity
8
0
100
AcDbCircle
10
-189.72581356068045
20
206.36822776407385
30
0
40
0.76868488311787952
210
0
220
0
230
-1
100
AcDbArc
50
154.84284245677696
51
162.12650741333329
0
ARC
5
345
100
AcDbEntity
8
0
100
AcDbCircle
10
-55.815846385232305
20
59.675705452484408
30
0
40
4.921330136439769
210
0
220
0
230
-1
100
AcDbArc
50
228.83685833588572
51
253.9535852930386
0
ARC
5
346
100
AcDbEntity
8
0
100
AcDbCircle
10
-188.40093294233699
20
209.91956362127755
30
0
40
2.178522814350758
210
0
220
0
230
-1
100
AcDbArc
50
120.24637439091542
51
131.86008325317033
0
LINE
5
347
100
AcDbEntity
8
0
100
AcDbLine
10
185.91866490862736
20
206.65743760395057
30
0
11
185.91866490862739
21
205.1611248296208
31
0
0
SPLINE
5
348
100
AcDbEntity
8
0
100
AcDbSpline
70
0
71
2
72
6
73
3
74
0
42
0.000000001
43
0.0000000001
44
0.0000000001
40
0
40
0
40
0
40
1
40
1
40
1
10
158.83563427867838
20
38.822081043268064
30
0
10
157.73938054358246
20
39.447510673194728
30
0
10
157.14452347474997
20
40.328876790589931
30
0
0
ARC
5
349
100
AcDbEntity
8
0
100
AcDbCircle
10
-161.1634563201342
20
63.585586135853902
30
0
40
4.6077418792337372
210
-0
220
0
230
-1
100
AcDbArc
50
334.44433652882782
51
355.66668144443565
0
ARC
5
350
100
AcDbEntity
8
0
100
AcDbCircle
10
-161.95623843838149
20
44.007205954313953
30
0
40
5.1650384325104355
210
0
220
0
230
-1
100
AcDbArc
50
269.93712893609546
51
276.32590668845199
0
ARC
5
351
100
AcDbEntity
8
0
100
AcDbCircle
10
-160.03596404482832
20
63.956250525746341
30
0
40
2.0239122913545065
210
0
220
0
230
-1
100
AcDbArc
50
47.639985091109452
51
67.272669760264876
0
SPLINE
5
352
100
AcDbEntity
8
0
100
AcDbSpline
70
0
71
2
72
6
73
3
74
0
42
0.000000001
43
0.0000000001
44
0.0000000001
40
0
40
0
40
0
40
1
40
1
40
1
10
141.35503356675258
20
215.60213927246284
30
0
10
141.35503356675258
20
216.72197136639286
30
0
10
140.64662983940826
20
217.35788063715236
30
0
0
LINE
5
353
100
AcDbEntity
8
0
100
AcDbLine
10
49.497193001871651
20
62.750889729699246
30
0
11
50.942843627005097
21
62.227660756047285
31
0
0
LINE
5
354
100
AcDbEntity
8
0
100
AcDbLine
10
58.466346054940814
20
62.586674257672577
30
0
11
59.973141802262653
21
62.58667425767257
31
0
0
SPLINE
5
355
100
AcDbEntity
8
0
100
AcDbSpline
70
0
71
2
72
6
73
3
74
0
42
0.000000001
43
0.0000000001
44
0.0000000001
40
0
40
0
40
0
40
1
40
1
40
1
10
188.4195170669297
20
214.35301939973664
30
0
10
188.95759414218776
20
214.40891970326976
30
0
10
189.28515872483678
20
214.5888696312623
30
0
0
ARC
5
356
100
AcDbEntity
8
0
100
AcDbCircle
10
-161.64988084803377
20
129.43086878058895
30
0
40
1.4666158422077782
210
0
220
0
230
-1
100
AcDbArc
50
227.45859569883379
51
243.68906649263045
0
ARC
5
357
100
AcDbEntity
8
0
100
AcDbCircle
10
-55.411087136463422
20
129.17877492364858
30
0
40
1.2508599887631633
210
0
220
0
230
-1
100
AcDbArc
50
195.53241613774196
51
210.9037271330422
0
ARC
5
358
100
AcDbEntity
8
0
100
AcDbCircle
10
-162.30012890127591
20
53.919533306872566
30
0
40
8.8346354503342734
210
0
220
0
230
-1
100
AcDbArc
50
269.59896673603129
51
280.74249616524958
0
ARC
5
359
100
AcDbEntity
8
0
100
AcDbCircle
10
-164.36227224360198
20
42.284232704788145
30
0
40
7.8117600270635048
210
-0
220
0
230
-1
100
AcDbArc
50
-0.13142484365660634
51
5.0003346963695305
0
ARC
5
360
100
AcDbEntity
8
0
100
AcDbCircle
10
-188.87461729638088
20
205.98783858262368
30
0
40
1.0438391825254645
210
0
220
0
230
-1
100
AcDbArc
50
179.92492183931654
51
188.78164990769488
0
ARC
5
361
100
AcDbEntity
8
0
100
AcDbCircle
10
-187.73984488038477
20
209.77872490994375
30
0
40
1.858819836665927
210
-0
220
0
230
-1
100
AcDbArc
50
-13.874473165244781
51
0.53079777604336897
0
SPLINE
5
362
100
AcDbEntity
8
0
100
AcDbSpline
70
0
71
2
72
6
73
3
74
0
42
0.000000001
43
0.0000000001
44
0.0000000001
40
0
40
0
40
0
40
1
40
1
40
1
10
160.02534841634326
20
128.03844566529111
30
0
10
160.23847332180219
20
127.9606997257325
30
0
10
160.49440980927071
20
127.92576536818356
30
0
0
ARC
5
363
100
AcDbEntity
8
0
100
AcDbCircle
10
-55.860381593831136
20
128.96777796582469
30
0
40
0.78440798891630636
210
0
220
0
230
-1
100
AcDbArc
50
249.10083851990834
51
270.80764979526276
0
ARC
5
364
100
AcDbEntity
8
0
100
AcDbCircle
10
-55.591469619699836
20
59.81290176527942
30
0
40
6.6788233838535627
210
-0
220
0
230
-1
100
AcDbArc
50
-12.182849458656644
51
0.40800530921558736
0
SPLINE
5
365
100
AcDbEntity
8
0
100
AcDbSpline
70
0
71
2
72
6
73
3
74
0
42
0.000000001
43
0.0000000001
44
0.0000000001
40
0
40
0
40
0
40
1
40
1
40
1
10
185.88110480959153
20
215.83273802101473
30
0
10
185.88110480959153
20
215.04221656117934
30
0
10
186.31873727649818
20
214.68932756825066
30
0
0
ARC
5
366
100
AcDbEntity
8
0
100
AcDbCircle
10
-53.882827682679384
20
128.83718665589396
30
0
40
0.72413610071062828
210
0
220
0
230
-1
100
AcDbArc
50
234.68077312925919
51
267.83834288666077
0
ARC
5
367
100
AcDbEntity
8
0
100
AcDbCircle
10
-188.40616175076019
20
209.95276083329026
30
0
40
1.6386964596178641
210
0
220
0
230
-1
100
AcDbArc
50
233.06560150204851
51
249.88085586022319
0
ARC
5
368
100
AcDbEntity
8
0
100
AcDbCircle
10
-159.75002439101581
20
64.652492747653795
30
0
40
3.0572694380576673
210
0
220
0
230
-1
100
AcDbArc
50
25.087823662523423
51
43.404860212942097
0
ARC
5
369
100
AcDbEntity
8
0
100
AcDbCircle
10
-160.61382232029757
20
127.94502089524842
30
0
40
2.6615713622387598
210
0
220
0
230
-1
100
AcDbArc
50
81.056359215746795
51
90.306698651245711
0
ARC
5
370
100
AcDbEntity
8
0
100
AcDbCircle
10
-160.82887544775443
20
129.36673125066295
30
0
40
2.3794291083696582
210
-0
220
0
230
-1
100
AcDbArc
50
-0.51818529761675769
51
15.814674363659989
0
ARC
5
371
100
AcDbEntity
8
0
100
AcDbCircle
10
-139.66655575239957
20
211.80364271789782
30
0
40
1.0438391825254465
210
0
220
0
230
-1
100
AcDbArc
50
179.92492183931654
51
188.78164990769628
0
SPLINE
5
372
100
AcDbEntity
8
0
100
AcDbSpline
70
0
71
2
72
6
73
3
74
0
42
0.000000001
43
0.0000000001
44
0.0000000001
40
0
40
0
40
0
40
1
40
1
40
1
10
141.24933747542744
20
212.4199538485415
30
0
10
141.28689757446327
20
212.30727355143392
30
0
10
141.31486105486684
20
212.13693357071068
30
0
0
ARC
5
373
100
AcDbEntity
8
0
100
AcDbCircle
10
-188.25090634138451
20
209.80748722054457
30
0
40
3.0336848314249987
210
-0
220
0
230
-1
100
AcDbArc
50
-10.119523608019568
51
0.22732307813923858
0
ARC
5
374
100
AcDbEntity
8
0
100
AcDbCircle
10
-162.32039311324698
20
55.838746579320784
30
0
40
8.9909928578159395
210
0
220
0
230
-1
100
AcDbArc
50
269.73507837616643
51
276.97198047834354
0
SPLINE
5
375
100
AcDbEntity
8
0
100
AcDbSpline
70
0
71
2
72
6
73
3
74
0
42
0.000000001
43
0.0000000001
44
0.0000000001
40
0
40
0
40
0
40
1
40
1
40
1
10
57.261783815669801
20
128.95125736950325
30
0
10
57.180545773220018
20
128.35552061062953
30
0
10
56.921990208583082
20
127.97817356882545
30
0
0
ARC
5
376
100
AcDbEntity
8
0
100
AcDbCircle
10
-162.12174328932144
20
63.68937393512109
30
0
40
5.5712182317617138
210
-0
220
0
230
-1
100
AcDbArc
50
-4.6529987029956228
51
0.095319791631052572
0
SPLINE
5
377
100
AcDbEntity
8
0
100
AcDbSpline
70
0
71
2
72
6
73
3
74
0
42
0.000000001
43
0.0000000001
44
0.0000000001
40
0
40
0
40
0
40
1
40
1
40
1
10
187.76176216014477
20
212.17537335978784
30
0
10
186.62096412023058
20
212.14479746653438
30
0
10
185.93701844176164
20
211.53946408902834
30
0
0
ARC
5
378
100
AcDbEntity
8
0
100
AcDbCircle
10
-187.10061713331891
20
215.90819728857264
30
0
40
1.215046253562829
210
0
220
0
230
-1
100
AcDbArc
50
4.8091079176835292
51
54.58377146832629
0
ARC
5
379
100
AcDbEntity
8
0
100
AcDbCircle
10
-51.948323067567337
20
59.674139238325779
30
0
40
7.1225645317003927
210
0
220
0
230
-1
100
AcDbArc
50
163.71650321612731
51
179.7378920449512
0
LINE
5
380
100
AcDbEntity
8
0
100
AcDbLine
10
184.11663318767404
20
204.70952395114935
30
0
11
184.11663318767404
21
205.16112482962083
31
0
0
SPLINE
5
381
100
AcDbEntity
8
0
100
AcDbSpline
70
0
71
2
72
6
73
3
74
0
42
0.000000001
43
0.0000000001
44
0.0000000001
40
0
40
0
40
0
40
1
40
1
40
1
10
157.14452347474997
20
40.328876790589931
30
0
10
156.55053276732184
20
41.210246240144379
30
0
10
156.55053276732184
20
42.266314134717575
30
0
0
ARC
5
382
100
AcDbEntity
8
0
100
AcDbCircle
10
-161.91862270978851
20
138.12290262680398
30
0
40
1.1739914483863876
210
0
220
0
230
-1
100
AcDbArc
50
165.73459180689991
51
166.26153894906253
0
LINE
5
383
100
AcDbEntity
8
0
100
AcDbLine
10
185.91866490862739
20
203.64122036781995
30
0
11
185.5421842282276
21
203.64122036781995
31
0
0
ARC
5
384
100
AcDbEntity
8
0
100
AcDbCircle
10
-54.810676678726963
20
64.920677961472407
30
0
40
10.288148305211777
210
0
220
0
230
-1
100
AcDbArc
50
265.97821826826748
51
270.01918372203238
0
ARC
5
385
100
AcDbEntity
8
0
100
AcDbCircle
10
-187.88829891400979
20
207.59296282057787
30
0
40
4.5841572726010691
210
0
220
0
230
-1
100
AcDbArc
50
88.418260434564189
51
89.968747647325799
0
SPLINE
5
386
100
AcDbEntity
8
0
100
AcDbSpline
70
0
71
2
72
6
73
3
74
0
42
0.000000001
43
0.0000000001
44
0.0000000001
40
0
40
0
40
0
40
1
40
1
40
1
10
163.59274477789242
20
46.929960899203394
30
0
10
164.86281726796585
20
47.113396265768642
30
0
10
165.64198272908635
20
47.709126360323886
30
0
0
ARC
5
387
100
AcDbEntity
8
0
100
AcDbCircle
10
-187.00953733457837
20
216.13556113818944
30
0
40
1.7697222718514469
210
0
220
0
230
-1
100
AcDbArc
50
15.967346714713015
51
51.945640516562037
0
ARC
5
388
100
AcDbEntity
8
0
100
AcDbCircle
10
-56.180806889497845
20
59.18572138683173
30
0
40
4.3124967421643188
210
0
220
0
230
-1
100
AcDbArc
50
193.20217503971051
51
228.20238905584355
0
ARC
5
389
100
AcDbEntity
8
0
100
AcDbCircle
10
-188.37699208086281
20
209.68371144325741
30
0
40
2.1750288371199886
210
0
220
0
230
-1
100
AcDbArc
50
196.72371416917278
51
211.16325258514243
0
ARC
5
390
100
AcDbEntity
8
0
100
AcDbCircle
10
-53.869956498443898
20
129.00975553460287
30
0
40
0.89709016036342359
210
0
220
0
230
-1
100
AcDbArc
50
267.4325904376002
51
270.39015978793134
0
ARC
5
391
100
AcDbEntity
8
0
100
AcDbCircle
10
-140.51775201669915
20
212.18403189934801
30
0
40
0.76868488311786454
210
0
220
0
230
-1
100
AcDbArc
50
154.8428424567808
51
162.12650741333329
0
ARC
5
392
100
AcDbEntity
8
0
100
AcDbCircle
10
-188.09466271335961
20
209.82342695323064
30
0
40
1.8142709501287273
210
0
220
0
230
-1
100
AcDbArc
50
165.28649088929055
51
180.5644152740044
0
SPLINE
5
393
100
AcDbEntity
8
0
100
AcDbSpline
70
0
71
2
72
6
73
3
74
0
42
0.000000001
43
0.0000000001
44
0.0000000001
40
0
40
0
40
0
40
1
40
1
40
1
10
50.469403776826667
20
60.463182469811294
30
0
10
50.431843677790823
20
60.202874189410267
30
0
10
50.423106756244344
20
59.970522725094291
30
0
0
ARC
5
394
100
AcDbEntity
8
0
100
AcDbCircle
10
-51.493012815249529
20
130.13129483637431
30
0
40
1.5242671954253679
210
0
220
0
230
-1
100
AcDbArc
50
258.4911848996224
51
270.55298847612266
0
ARC
5
395
100
AcDbEntity
8
0
100
AcDbCircle
10
-162.4052702694776
20
55.464000066776158
30
0
40
8.6162590619015837
210
0
220
0
230
-1
100
AcDbArc
50
262.07840435141344
51
270.28796874802032
0
ARC
5
396
100
AcDbEntity
8
0
100
AcDbCircle
10
-162.95812554381729
20
138.08539132848352
30
0
40
0.76868488311786365
210
0
220
0
230
-1
100
AcDbArc
50
154.84043704356856
51
162.12317588355396
0
ARC
5
397
100
AcDbEntity
8
0
100
AcDbCircle
10
-187.89632098756931
20
211.34552533242785
30
0
40
3.9071903851557614
210
0
220
0
230
-1
100
AcDbArc
50
260.84146762861252
51
270.15430458205441
0
LINE
5
398
100
AcDbEntity
8
0
100
AcDbLine
10
52.685486273693357
20
51.752584981379066
30
0
11
60.352248224149328
21
51.752584981379073
31
0
0
SPLINE
5
399
100
AcDbEntity
8
0
100
AcDbSpline
70
0
71
2
72
6
73
3
74
0
42
0.000000001
43
0.0000000001
44
0.0000000001
40
0
40
0
40
0
40
1
40
1
40
1
10
140.02206323872667
20
207.59819945992933
30
0
10
140.17318332491135
20
207.6252832502916
30
0
10
140.2928478278013
20
207.68467565671591
30
0
0
SPLINE
5
400
100
AcDbEntity
8
0
100
AcDbSpline
70
0
71
2
72
6
73
3
74
0
42
0.000000001
43
0.0000000001
44
0.0000000001
40
0
40
0
40
0
40
1
40
1
40
1
10
50.333138456566545
20
129.41596029813522
30
0
10
50.375940042098435
20
129.21156564990429
30
0
10
50.475518289045496
20
129.05520740938283
30
0
0
LINE
5
401
100
AcDbEntity
8
0
100
AcDbLine
10
167.98908905971706
20
66.077204369704432
30
0
11
160.72239614497272
21
66.077204369704432
31
0
0
ARC
5
402
100
AcDbEntity
8
0
100
AcDbCircle
10
-187.28366242415188
20
210.00061056241304
30
0
40
2.0448765712590431
210
0
220
0
230
-1
100
AcDbArc
50
16.750652167199757
51
48.810972014620695
0
LINE
5
403
100
AcDbEntity
8
0
100
AcDbLine
10
186.0173767941701
20
214.28925520037981
30
0
11
186.01737679417013
21
214.32769498945697
31
0
0
ARC
5
404
100
AcDbEntity
8
0
100
AcDbCircle
10
-53.725920182567286
20
129.01791720635742
30
0
40
0.96260311854522218
210
0
220
0
230
-1
100
AcDbArc
50
231.57367298781685
51
233.27939380030517
0
SPLINE
5
405
100
AcDbEntity
8
0
100
AcDbSpline
70
0
71
2
72
6
73
3
74
0
42
0.000000001
43
0.0000000001
44
0.0000000001
40
0
40
0
40
0
40
1
40
1
40
1
10
140.71039403876509
20
208.40356902137077
30
0
10
140.71039403876509
20
208.61060273972558
30
0
10
140.67981814551163
20
208.80364138924162
30
0
0
SPLINE
5
406
100
AcDbEntity
8
0
100
AcDbSpline
70
0
71
2
72
6
73
3
74
0
42
0.000000001
43
0.0000000001
44
0.0000000001
40
0
40
0
40
0
40
1
40
1
40
1
10
189.91845558274636
20
205.98920638849199
30
0
10
189.91845558274636
20
206.19622677820982
30
0
10
189.88787968949293
20
206.38926542772583
30
0
0
ARC
5
407
100
AcDbEntity
8
0
100
AcDbCircle
10
-139.47817824183977
20
212.22184716635869
30
0
40
1.1739914483863927
210
0
220
0
230
-1
100
AcDbArc
50
165.75136906497113
51
166.2789474037354
0
ARC
5
408
100
AcDbEntity
8
0
100
AcDbCircle
10
-187.85414982759792
20
213.33632677132005
30
0
40
3.9412571317406786
210
0
220
0
230
-1
100
AcDbArc
50
82.168974246500738
51
90.320387620356826
0
ARC
5
409
100
AcDbEntity
8
0
100
AcDbCircle
10
-187.35723116959886
20
209.92769554966085
30
0
40
1.6151117488552211
210
-0
220
0
230
-1
100
AcDbArc
50
287.56106059557129
51
307.0437712619501
0
ARC
5
410
100
AcDbEntity
8
0
100
AcDbCircle
10
-139.97872289668834
20
211.74081487731974
30
0
40
0.7258830893260414
210
0
220
0
230
-1
100
AcDbArc
50
187.64234323368703
51
228.40988324677619
0
LINE
5
411
100
AcDbEntity
8
0
100
AcDbLine
10
164.76061327953187
20
71.396849993051873
30
0
11
158.07742143490506
21
71.396849993051873
31
0
0
ARC
5
412
100
AcDbEntity
8
0
100
AcDbCircle
10
-161.63420269467676
20
74.982777716549791
30
0
40
5.1501886648247206
210
0
220
0
230
-1
100
AcDbArc
50
171.17263146417571
51
171.76227503170182
0
ARC
5
413
100
AcDbEntity
8
0
100
AcDbCircle
10
-54.191393762502713
20
59.807843750776982
30
0
40
3.7717968410587344
210
0
220
0
230
-1
100
AcDbArc
50
0.17568771848878503
51
2.4719546855536727
0
SPLINE
5
414
100
AcDbEntity
8
0
100
AcDbSpline
70
0
71
2
72
6
73
3
74
0
42
0.000000001
43
0.0000000001
44
0.0000000001
40
0
40
0
40
0
40
1
40
1
40
1
10
189.88787968949293
20
206.38926542772583
30
0
10
189.85818348628075
20
206.57358714865086
30
0
10
189.82672790298602
20
206.68452139431281
30
0
0
LINE
5
415
100
AcDbEntity
8
0
100
AcDbLine
10
161.96190607042965
20
38.842170631370188
30
0
11
167.98908905971706
21
38.842170631370195
31
0
0
SPLINE
5
416
100
AcDbEntity
8
0
100
AcDbSpline
70
0
71
2
72
6
73
3
74
0
42
0.000000001
43
0.0000000001
44
0.0000000001
40
0
40
0
40
0
40
1
40
1
40
1
10
56.921990208583082
20
127.97817356882545
30
0
10
56.569967577058684
20
127.46542090384709
30
0
10
55.946280666418374
20
127.43223259774373
30
0
0
SPLINE
5
417
100
AcDbEntity
8
0
100
AcDbSpline
70
0
71
2
72
6
73
3
74
0
42
0.000000001
43
0.0000000001
44
0.0000000001
40
0
40
0
40
0
40
1
40
1
40
1
10
140.02206323872667
20
210.99962763368768
30
0
10
140.17318332491135
20
211.02671142404998
30
0
10
140.2928478278013
20
211.08611715911127
30
0
0
SPLINE
5
418
100
AcDbEntity
8
0
100
AcDbSpline
70
0
71
2
72
6
73
3
74
0
42
0.000000001
43
0.0000000001
44
0.0000000001
40
0
40
0
40
0
40
1
40
1
40
1
10
189.39085481616192
20
208.64291135578765
30
0
10
189.90884563547709
20
209.03861193072598
30
0
10
189.90884563547709
20
209.80555503172729
30
0
0
ARC
5
419
100
AcDbEntity
8
0
100
AcDbCircle
10
-162.39849177830939
20
137.66685325325707
30
0
40
0.7573293009228772
210
0
220
0
230
-1
100
AcDbArc
50
228.43850185148401
51
243.7704395314841
0
ARC
5
420
100
AcDbEntity
8
0
100
AcDbCircle
10
-186.87386903772932
20
215.72660130887164
30
0
40
1.6255937846774962
210
-0
220
0
230
-1
100
AcDbArc
50
317.65764721090505
51
334.55789753661765
0
ARC
5
421
100
AcDbEntity
8
0
100
AcDbCircle
10
-188.56259657721412
20
205.82350187097876
30
0
40
2.0012011269645678
210
0
220
0
230
-1
100
AcDbArc
50
177.73104510802983
51
178.48170201851704
0
ARC
5
422
100
AcDbEntity
8
0
100
AcDbCircle
10
-162.19503526747746
20
138.45147233261858
30
0
40
1.5731835014360747
210
0
220
0
230
-1
100
AcDbArc
50
260.24617256176214
51
270.34652846073158
0
ARC
5
423
100
AcDbEntity
8
0
100
AcDbCircle
10
-53.747652707282114
20
129.39674416706706
30
0
40
0.58786921850087825
210
0
220
0
230
-1
100
AcDbArc
50
269.74285319507192
51
302.43735103961632
0
ARC
5
424
100
AcDbEntity
8
0
100
AcDbCircle
10
-53.700036007306721
20
129.21792346904718
30
0
40
0.43325874756961008
210
0
220
0
230
-1
100
AcDbArc
50
212.88248141778246
51
214.54810486030698
0
SPLINE
5
425
100
AcDbEntity
8
0
100
AcDbSpline
70
0
71
2
72
6
73
3
74
0
42
0.000000001
43
0.0000000001
44
0.0000000001
40
0
40
0
40
0
40
1
40
1
40
1
10
163.11929826339548
20
138.10647153062459
30
0
10
163.09046842158762
20
138.29077992291263
30
0
10
163.05902616692987
20
138.40171416857456
30
0
0
ARC
5
426
100
AcDbEntity
8
0
100
AcDbCircle
10
-51.537598345875594
20
129.45217150096437
30
0
40
1.6151117488552087
210
0
220
0
230
-1
100
AcDbArc
50
237.73301741574306
51
266.9891980524086
0
SPLINE
5
427
100
AcDbEntity
8
0
100
AcDbSpline
70
0
71
2
72
6
73
3
74
0
42
0.000000001
43
0.0000000001
44
0.0000000001
40
0
40
0
40
0
40
1
40
1
40
1
10
53.09953038528824
20
54.778405500460465
30
0
10
52.147409198435341
20
54.95398030336127
30
0
10
51.397066914804206
20
55.344439391803562
30
0
0
SPLINE
5
428
100
AcDbEntity
8
0
100
AcDbSpline
70
0
71
2
72
6
73
3
74
0
42
0.000000001
43
0.0000000001
44
0.0000000001
40
0
40
0
40
0
40
1
40
1
40
1
10
160.72239614497272
20
66.077204369704432
30
0
10
159.84627817839203
20
66.077204369704432
30
0
10
159.25403352240949
20
65.823013933681494
30
0
0
ARC
5
429
100
AcDbEntity
8
0
100
AcDbCircle
10
-161.20196266468224
20
74.914082334035854
30
0
40
5.5878148839328299
210
0
220
0
230
-1
100
AcDbArc
50
171.70018905155624
51
180.1215487610597
0
ARC
5
430
100
AcDbEntity
8
0
100
AcDbCircle
10
-187.3596367556234
20
215.6785938708785
30
0
40
2.3453623617846824
210
0
220
0
230
-1
100
AcDbArc
50
52.092245578397062
51
73.654302455818183
0
SPLINE
5
431
100
AcDbEntity
8
0
100
AcDbSpline
70
0
71
2
72
6
73
3
74
0
42
0.000000001
43
0.0000000001
44
0.0000000001
40
0
40
0
40
0
40
1
40
1
40
1
10
53.55899182742413
20
38.787140021400596
30
0
10
52.208554320623755
20
38.631658138761168
30
0
10
51.434627013840057
20
38.078726297578555
30
0
0
SPLINE
5
432
100
AcDbEntity
8
0
100
AcDbSpline
70
0
71
2
72
6
73
3
74
0
42
0.000000001
43
0.0000000001
44
0.0000000001
40
0
40
0
40
0
40
1
40
1
40
1
10
49.839605686126745
20
128.98008721131112
30
0
10
49.762739436609458
20
129.23253159588847
30
0
10
49.740900464902495
20
129.53738418110774
30
0
0
ARC
5
433
100
AcDbEntity
8
0
100
AcDbCircle
10
-53.585216679278396
20
129.24886302410894
30
0
40
0.54768795969710804
210
0
220
0
230
-1
100
AcDbArc
50
195.22984630070599
51
209.07646054575801
0
SPLINE
5
434
100
AcDbEntity
8
0
100
AcDbSpline
70
0
71
2
72
6
73
3
74
0
42
0.000000001
43
0.0000000001
44
0.0000000001
40
0
40
0
40
0
40
1
40
1
40
1
10
163.68969728335256
20
138.32135581616606
30
0
10
163.72725738238842
20
138.20867551905852
30
0
10
163.75434117275066
20
138.03833553833528
30
0
0
ARC
5
435
100
AcDbEntity
8
0
100
AcDbCircle
10
-187.5617187736286
20
215.83874716295634
30
0
40
1.6806247070369928
210
-0
220
0
230
-1
100
AcDbArc
50
-0.20486382469742778
51
5.8506266661145609
0
ARC
5
436
100
AcDbEntity
8
0
100
AcDbCircle
10
-56.338053049481182
20
59.38996109843454
30
0
40
2.7026262715451859
210
0
220
0
230
-1
100
AcDbArc
50
188.68802932742796
51
233.01197403462595
0
LINE
5
437
100
AcDbEntity
8
0
100
AcDbLine
10
166.58537032655198
20
76.4395998472651
30
0
11
167.88689839992009
21
76.4395998472651
31
0
0
ARC
5
438
100
AcDbEntity
8
0
100
AcDbCircle
10
-162.10605847977007
20
137.69939404481602
30
0
40
1.0438391825254305
210
0
220
0
230
-1
100
AcDbArc
50
179.61548990278635
51
188.46794129627335
0
ARC
5
439
100
AcDbEntity
8
0
100
AcDbCircle
10
-187.30379124020257
20
209.60407387378649
30
0
40
2.0658406429036256
210
-0
220
0
230
-1
100
AcDbArc
50
312.00684457954583
51
350.81903033111763
0
LINE
5
440
100
AcDbEntity
8
0
100
AcDbLine
10
140.61605394615481
20
212.51080183826053
30
0
11
141.21352342783717
21
212.51080183826053
31
0
0
LINE
5
441
100
AcDbEntity
8
0
100
AcDbLine
10
158.83563427867838
20
38.739969975095491
30
0
11
158.83563427867838
21
38.822081043268071
31
0
0
ARC
5
442
100
AcDbEntity
8
0
100
AcDbCircle
10
-161.21396143977967
20
50.504475232556814
30
0
40
3.5176068215556877
210
-0
220
0
230
-1
100
AcDbArc
50
287.61637697299028
51
307.09337905248702
0
SPLINE
5
443
100
AcDbEntity
8
0
100
AcDbSpline
70
0
71
2
72
6
73
3
74
0
42
0.000000001
43
0.0000000001
44
0.0000000001
40
0
40
0
40
0
40
1
40
1
40
1
10
59.049847125058378
20
47.659337236850334
30
0
10
58.894361910259704
20
48.364255525621935
30
0
10
58.502160102531057
20
48.884865422105491
30
0
0
ARC
5
444
100
AcDbEntity
8
0
100
AcDbCircle
10
-187.36808844053084
20
215.55719591725995
30
0
40
1.6561665540316783
210
0
220
0
230
-1
100
AcDbArc
50
54.07971360791376
51
70.069210894914008
0
ARC
5
445
100
AcDbEntity
8
0
100
AcDbCircle
10
-139.97885768919781
20
208.33950630647078
30
0
40
0.72588308932602508
210
0
220
0
230
-1
100
AcDbArc
50
187.72193428419681
51
228.42410728865607
0
ARC
5
446
100
AcDbEntity
8
0
100
AcDbCircle
10
-187.14491511799741
20
209.62272878793158
30
0
40
1.2438719301716263
210
-0
220
0
230
-1
100
AcDbArc
50
307.70036507033802
51
346.53010516359365
0
ARC
5
447
100
AcDbEntity
8
0
100
AcDbCircle
10
-51.676862806822157
20
129.47363010373752
30
0
40
0.83594482991505759
210
0
220
0
230
-1
100
AcDbArc
50
222.13445212298043
51
235.96117008146237
0
SPLINE
5
448
100
AcDbEntity
8
0
100
AcDbSpline
70
0
71
2
72
6
73
3
74
0
42
0.000000001
43
0.0000000001
44
0.0000000001
40
0
40
0
40
0
40
1
40
1
40
1
10
136.22144238713878
20
220.78551291123171
30
0
10
136.00918384308417
20
221.18733133054809
30
0
10
136.00918384308417
20
221.68610225532473
30
0
0
SPLINE
5
449
100
AcDbEntity
8
0
100
AcDbSpline
70
0
71
2
72
6
73
3
74
0
42
0.000000001
43
0.0000000001
44
0.0000000001
40
0
40
0
40
0
40
1
40
1
40
1
10
140.71039403876509
20
211.80501052376616
30
0
10
140.71039403876509
20
212.01203091348395
30
0
10
140.67981814551163
20
212.205069563
30
0
0
SPLINE
5
450
100
AcDbEntity
8
0
100
AcDbSpline
70
0
71
2
72
6
73
3
74
0
42
0.000000001
43
0.0000000001
44
0.0000000001
40
0
40
0
40
0
40
1
40
1
40
1
10
186.31873727649818
20
214.68932756825066
30
0
10
186.75635641476788
20
214.33642524668497
30
0
10
187.71110001094843
20
214.32769498945697
30
0
0
ARC
5
451
100
AcDbEntity
8
0
100
AcDbCircle
10
-140.5168584389956
20
208.7845131669709
30
0
40
0.76868488311786165
210
0
220
0
230
-1
100
AcDbArc
50
154.99998121557769
51
162.34481100067339
0
ARC
5
452
100
AcDbEntity
8
0
100
AcDbCircle
10
-187.17970670772343
20
215.85212435731557
30
0
40
1.9557790064446368
210
-0
220
0
230
-1
100
AcDbArc
50
335.08633066978848
51
352.26926111432994
0
SPLINE
5
453
100
AcDbEntity
8
0
100
AcDbSpline
70
0
71
2
72
6
73
3
74
0
42
0.000000001
43
0.0000000001
44
0.0000000001
40
0
40
0
40
0
40
1
40
1
40
1
10
53.369441948640031
20
128.26293989810185
30
0
10
53.209591605227359
20
128.37736624665499
30
0
10
53.057601825479132
20
128.59050448075089
30
0
0
LINE
5
454
100
AcDbEntity
8
0
100
AcDbLine
10
185.31158547967573
20
213.54590378684958
30
0
11
185.31158547967573
21
214.18181305760908
31
0
0
SPLINE
5
455
100
AcDbEntity
8
0
100
AcDbSpline
70
0
71
2
72
6
73
3
74
0
42
0.000000001
43
0.0000000001
44
0.0000000001
40
0
40
0
40
0
40
1
40
1
40
1
10
187.88579845596718
20
211.36737805685948
30
0
10
186.90223834661577
20
211.36737805685948
30
0
10
186.39123173308298
20
210.96993143047555
30
0
0
ARC
5
456
100
AcDbEntity
8
0
100
AcDbCircle
10
-187.22638459026118
20
216.04784725661096
30
0
40
2.1025279244766417
210
-0
220
0
230
-1
100
AcDbArc
50
305.10143881509254
51
317.65755002246408
0
ARC
5
457
100
AcDbEntity
8
0
100
AcDbCircle
10
-162.41921544289286
20
137.64320098696538
30
0
40
0.72588308932601087
210
0
220
0
230
-1
100
AcDbArc
50
187.72072744103193
51
228.42389053858659
0
SPLINE
5
458
100
AcDbEntity
8
0
100
AcDbSpline
70
0
71
2
72
6
73
3
74
0
42
0.000000001
43
0.0000000001
44
0.0000000001
40
0
40
0
40
0
40
1
40
1
40
1
10
168.01791890152492
20
73.346516361617205
30
0
10
167.57418191887717
20
71.906976916543357
30
0
10
166.00973315225809
20
71.530496236143591
30
0
0
ARC
5
459
100
AcDbEntity
8
0
100
AcDbCircle
10
-57.286775830262656
20
46.957830402705795
30
0
40
2.4318393916110894
210
0
220
0
230
-1
100
AcDbArc
50
257.20855840069288
51
270.46541941578505
0
LINE
5
460
100
AcDbEntity
8
0
100
AcDbLine
10
167.98908905971706
20
67.778791482306417
30
0
11
167.98908905971706
21
66.077204369704432
31
0
0
SPLINE
5
461
100
AcDbEntity
8
0
100
AcDbSpline
70
0
71
2
72
6
73
3
74
0
42
0.000000001
43
0.0000000001
44
0.0000000001
40
0
40
0
40
0
40
1
40
1
40
1
10
186.86991640191673
20
208.38785455836043
30
0
10
187.28919533568913
20
208.24809047089062
30
0
10
187.88579845596718
20
208.24809047089062
30
0
0
LINE
5
462
100
AcDbEntity
8
0
100
AcDbLine
10
158.54388374361957
20
135.09986424176327
30
0
11
159.15096317257121
21
135.09986424176327
31
0
0
SPLINE
5
463
100
AcDbEntity
8
0
100
AcDbSpline
70
0
71
2
72
6
73
3
74
0
42
0.000000001
43
0.0000000001
44
0.0000000001
40
0
40
0
40
0
40
1
40
1
40
1
10
186.69957642119346
20
217.92915934715074
30
0
10
187.0367509511118
20
218.03309605839331
30
0
10
187.4420614733194
20
218.06804374457926
30
0
0
ARC
5
464
100
AcDbEntity
8
0
100
AcDbCircle
10
-55.052622291528792
20
130.01893883997934
30
0
40
2.4536771137583466
210
-0
220
0
230
-1
100
AcDbArc
50
324.39734206532802
51
328.53348971510371
0
ARC
5
465
100
AcDbEntity
8
0
100
AcDbCircle
10
-162.26732628252989
20
50.329723688384149
30
0
40
5.7170939158109979
210
-0
220
0
230
-1
100
AcDbArc
50
-0.58735716189422404
51
16.463727107188795
0
LINE
5
466
100
AcDbEntity
8
0
100
AcDbLine
10
163.70105328206745
20
133.00606865711413
30
0
11
159.15096317257121
21
133.00606865711413
31
0
0
SPLINE
5
467
100
AcDbEntity
8
0
100
AcDbSpline
70
0
71
2
72
6
73
3
74
0
42
0.000000001
43
0.0000000001
44
0.0000000001
40
0
40
0
40
0
40
1
40
1
40
1
10
58.112577371970815
20
33.209808526979771
30
0
10
59.027135127628618
20
33.917345892919769
30
0
10
59.121475220238878
20
35.390950001979022
30
0
0
LINE
5
468
100
AcDbEntity
8
0
100
AcDbLine
10
58.752858435662809
20
50.153195192892554
30
0
11
58.752858435662802
21
50.07108412471996
31
0
0
SPLINE
5
469
100
AcDbEntity
8
0
100
AcDbSpline
70
0
71
2
72
6
73
3
74
0
42
0.000000001
43
0.0000000001
44
0.0000000001
40
0
40
0
40
0
40
1
40
1
40
1
10
51.797132618356514
20
128.63767452705602
30
0
10
51.995419418687085
20
128.68047278042866
30
0
10
52.14478678910767
20
128.78091738878001
30
0
0
LINE
5
470
100
AcDbEntity
8
0
100
AcDbLine
10
185.91866490862739
20
205.1611248296208
30
0
11
188.95322234925527
21
205.1611248296208
31
0
0
SPLINE
5
471
100
AcDbEntity
8
0
100
AcDbSpline
70
0
71
2
72
6
73
3
74
0
42
0.000000001
43
0.0000000001
44
0.0000000001
40
0
40
0
40
0
40
1
40
1
40
1
10
163.14987415664891
20
137.70639916275374
30
0
10
163.14987415664891
20
137.91341955247157
30
0
10
163.11929826339548
20
138.10647153062459
30
0
0
LINE
5
472
100
AcDbEntity
8
0
100
AcDbLine
10
185.91866490862736
20
204.38021331705471
30
0
11
185.91866490862739
21
203.64122036781995
31
0
0
ARC
5
473
100
AcDbEntity
8
0
100
AcDbCircle
10
-59.391631282451208
20
59.02768917150884
30
0
40
9.0407828143292743
210
0
220
0
230
-1
100
AcDbArc
50
12.586315194450647
51
15.25573339511106
0
SPLINE
5
474
100
AcDbEntity
8
0
100
AcDbSpline
70
0
71
2
72
6
73
3
74
0
42
0.000000001
43
0.0000000001
44
0.0000000001
40
0
40
0
40
0
40
1
40
1
40
1
10
57.176180644606035
20
54.946119739696826
30
0
10
56.429330463866101
20
54.720755813322498
30
0
10
55.532243219142032
20
54.657864639688484
30
0
0
ARC
5
475
100
AcDbEntity
8
0
100
AcDbCircle
10
-51.477556681513462
20
130.0911014276877
30
0
40
2.2562647969702412
210
0
220
0
230
-1
100
AcDbArc
50
269.51525973207049
51
283.18444019925164
0
ARC
5
476
100
AcDbEntity
8
0
100
AcDbCircle
10
-157.62965855038064
20
74.351831488165885
30
0
40
9.2041277597525895
210
0
220
0
230
-1
100
AcDbArc
50
169.56146385051258
51
171.11695504216658
0
SPLINE
5
477
100
AcDbEntity
8
0
100
AcDbSpline
70
0
71
2
72
6
73
3
74
0
42
0.000000001
43
0.0000000001
44
0.0000000001
40
0
40
0
40
0
40
1
40
1
40
1
10
50.419614653353136
20
59.819409303228106
30
0
10
50.419614653353136
20
56.778734018222124
30
0
10
53.864720770525444
20
56.438067385412609
30
0
0
SPLINE
5
478
100
AcDbEntity
8
0
100
AcDbSpline
70
0
71
2
72
6
73
3
74
0
42
0.000000001
43
0.0000000001
44
0.0000000001
40
0
40
0
40
0
40
1
40
1
40
1
10
140.67981814551163
20
208.80364138924162
30
0
10
140.65012194229948
20
208.98708342012537
30
0
10
140.61866635900472
20
209.09888402719162
30
0
0
ARC
5
479
100
AcDbEntity
8
0
100
AcDbCircle
10
-137.73905970939063
20
221.29371157463524
30
0
40
1.0237485531235488
210
-0
220
0
230
-1
100
AcDbArc
50
307.74160365451354
51
326.32892919693694
0
ARC
5
480
100
AcDbEntity
8
0
100
AcDbCircle
10
-161.21700312106387
20
49.962167805545612
30
0
40
4.7012068635216675
210
-0
220
0
230
-1
100
AcDbArc
50
299.75724370901048
51
311.81345921261521
0
ARC
5
481
100
AcDbEntity
8
0
100
AcDbCircle
10
-52.87671579937598
20
36.059106492738046
30
0
40
2.4816293481244283
210
0
220
0
230
-1
100
AcDbArc
50
10.220274795288915
51
54.47165561439509
0
SPLINE
5
482
100
AcDbEntity
8
0
100
AcDbSpline
70
0
71
2
72
6
73
3
74
0
42
0.000000001
43
0.0000000001
44
0.0000000001
40
0
40
0
40
0
40
1
40
1
40
1
10
138.67773691198587
20
217.18318219213361
30
0
10
137.69417680263447
20
217.18318219213361
30
0
10
137.1831701891017
20
216.78573556574969
30
0
0
SPLINE
5
483
100
AcDbEntity
8
0
100
AcDbSpline
70
0
71
2
72
6
73
3
74
0
42
0.000000001
43
0.0000000001
44
0.0000000001
40
0
40
0
40
0
40
1
40
1
40
1
10
162.36196510966349
20
45.08511426408117
30
0
10
164.13519364608294
20
45.08511426408117
30
0
10
165.45767433679828
20
45.72015384127711
30
0
0
LINE
5
484
100
AcDbEntity
8
0
100
AcDbLine
10
160.66037799706152
20
67.778791482306417
30
0
11
167.98908905971706
21
67.778791482306417
31
0
0
LINE
5
485
100
AcDbEntity
8
0
100
AcDbLine
10
60.352248224149328
20
51.752584981379073
30
0
11
60.352248224149328
21
50.492115774256462
31
0
0
ARC
5
486
100
AcDbEntity
8
0
100
AcDbCircle
10
-188.43160675382845
20
209.65753365627518
30
0
40
2.1147569489143261
210
0
220
0
230
-1
100
AcDbArc
50
211.32206492710282
51
242.19885252607602
0
LINE
5
487
100
AcDbEntity
8
0
100
AcDbLine
10
163.70105328206745
20
133.78698016968022
30
0
11
163.70105328206745
21
133.00606865711413
31
0
0
ARC
5
488
100
AcDbEntity
8
0
100
AcDbCircle
10
-54.954020382534033
20
59.688841949129596
30
0
40
4.1168315181215851
210
0
220
0
230
-1
100
AcDbArc
50
179.75114982175509
51
189.89040753680294
0
ARC
5
489
100
AcDbEntity
8
0
100
AcDbCircle
10
-188.38408116173593
20
209.63057337711118
30
0
40
1.6771306256762639
210
0
220
0
230
-1
100
AcDbArc
50
107.38167257934587
51
127.00329343088144
0
ARC
5
490
100
AcDbEntity
8
0
100
AcDbCircle
10
-51.694566330245124
20
129.26273328950114
30
0
40
1.3696566724291384
210
0
220
0
230
-1
100
AcDbArc
50
202.52124817690992
51
234.81910957886291
0
LINE
5
491
100
AcDbEntity
8
0
100
AcDbLine
10
158.07742143490506
20
73.098437105653872
30
0
11
164.68898518435137
21
73.098437105653858
31
0
0
ARC
5
492
100
AcDbEntity
8
0
100
AcDbCircle
10
-187.85083094598451
20
209.80663127496911
30
0
40
1.9697551236276387
210
-0
220
0
230
-1
100
AcDbArc
50
-0.31083895224925423
51
10.676231120001882
0
ARC
5
493
100
AcDbEntity
8
0
100
AcDbCircle
10
-51.232823399707897
20
129.53935343791218
30
0
40
0.89883725310877571
210
-0
220
0
230
-1
100
AcDbArc
50
314.94962479334663
51
327.40917196310158
0
ARC
5
494
100
AcDbEntity
8
0
100
AcDbCircle
10
-187.84202143832624
20
209.84336061965348
30
0
40
2.6248842889257231
210
-0
220
0
230
-1
100
AcDbArc
50
-0.52032326898637749
51
16.524829811835094
0
SPLINE
5
495
100
AcDbEntity
8
0
100
AcDbSpline
70
0
71
2
72
6
73
3
74
0
42
0.000000001
43
0.0000000001
44
0.0000000001
40
0
40
0
40
0
40
1
40
1
40
1
10
59.131958193230965
20
35.742099607780624
30
0
10
59.131958193230965
20
37.310043809450143
30
0
10
57.989414101871184
20
38.078726297578555
30
0
0
ARC
5
496
100
AcDbEntity
8
0
100
AcDbCircle
10
-55.857180698130328
20
60.062203899548607
30
0
40
3.5289624037506688
210
0
220
0
230
-1
100
AcDbArc
50
233.34239859552514
51
249.57309485052986
0
LINE
5
497
100
AcDbEntity
8
0
100
AcDbLine
10
136.10352393569445
20
219.36170792212374
30
0
11
136.10352393569445
21
219.99761719288324
31
0
0
LINE
5
498
100
AcDbEntity
8
0
100
AcDbLine
10
159.15096317257121
20
132.08364700563266
30
0
11
158.7980741796425
21
132.08364700563263
31
0
0
LINE
5
499
100
AcDbEntity
8
0
100
AcDbLine
10
158.54388374361957
20
138.37463037821232
30
0
11
159.15096317257121
21
138.37463037821232
31
0
0
ARC
5
500
100
AcDbEntity
8
0
100
AcDbCircle
10
-56.233016719528678
20
47.175998918886975
30
0
40
2.840640142370332
210
0
220
0
230
-1
100
AcDbArc
50
136.16387262955877
51
143.01700547195989
0
SPLINE
5
501
100
AcDbEntity
8
0
100
AcDbSpline
70
0
71
2
72
6
73
3
74
0
42
0.000000001
43
0.0000000001
44
0.0000000001
40
0
40
0
40
0
40
1
40
1
40
1
10
140.29023541495138
20
217.6173092275121
30
0
10
139.6473286097725
20
217.99292354650757
30
0
10
138.67773691198587
20
217.99292354650757
30
0
0
LINE
5
502
100
AcDbEntity
8
0
100
AcDbLine
10
192.7835527326923
20
213.54590378684958
30
0
11
185.31158547967573
21
213.54590378684958
31
0
0
LINE
5
503
100
AcDbEntity
8
0
100
AcDbLine
10
156.67370270173996
20
43.608891077853514
30
0
11
158.25213320856082
21
43.373044178487099
31
0
0
ARC
5
504
100
AcDbEntity
8
0
100
AcDbCircle
10
-51.001604540453094
20
129.68746803042657
30
0
40
2.1199980188904641
210
0
220
0
230
-1
100
AcDbArc
50
186.43061853955405
51
190.32076435292174
0
LINE
5
505
100
AcDbEntity
8
0
100
AcDbLine
10
159.15096317257121
20
138.37463037821232
30
0
11
159.15096317257121
21
136.87831760388252
31
0
0
ARC
5
506
100
AcDbEntity
8
0
100
AcDbCircle
10
-138.86449358666542
20
216.15891788132643
30
0
40
2.8895564483810348
210
0
220
0
230
-1
100
AcDbArc
50
244.72862106541544
51
261.12777414884215
0
SPLINE
5
507
100
AcDbEntity
8
0
100
AcDbSpline
70
0
71
2
72
6
73
3
74
0
42
0.000000001
43
0.0000000001
44
0.0000000001
40
0
40
0
40
0
40
1
40
1
40
1
10
50.358469531164729
20
35.701044073694334
30
0
10
50.358469531164729
20
34.568109929603843
30
0
10
50.780370874264776
20
33.846594155621318
30
0
0
ARC
5
508
100
AcDbEntity
8
0
100
AcDbCircle
10
-51.288715528147932
20
129.34309222219414
30
0
40
1.4849594829942783
210
-0
220
0
230
-1
100
AcDbArc
50
282.67309071299599
51
317.67925212172196
0
SPLINE
5
509
100
AcDbEntity
8
0
100
AcDbSpline
70
0
71
2
72
6
73
3
74
0
42
0.000000001
43
0.0000000001
44
0.0000000001
40
0
40
0
40
0
40
1
40
1
40
1
10
60.391554374630765
20
61.403071300067261
30
0
10
60.557522562421525
20
60.657973835091418
30
0
10
60.557522562421539
20
59.747781208047613
30
0
0
ARC
5
510
100
AcDbEntity
8
0
100
AcDbCircle
10
-163.61678159385281
20
50.65158842117215
30
0
40
4.5361142005731363
210
0
220
0
230
-1
100
AcDbArc
50
131.99534014510502
51
171.09974555226765
0
SPLINE
5
511
100
AcDbEntity
8
0
100
AcDbSpline
70
0
71
2
72
6
73
3
74
0
42
0.000000001
43
0.0000000001
44
0.0000000001
40
0
40
0
40
0
40
1
40
1
40
1
10
140.67981814551163
20
212.205069563
30
0
10
140.65012194229948
20
212.38937795528801
30
0
10
140.61866635900472
20
212.50031220094996
30
0
0
LINE
5
512
100
AcDbEntity
8
0
100
AcDbLine
10
185.31158547967573
20
214.18181305760908
30
0
11
186.0173767941701
21
214.28925520037981
31
0
0
ARC
5
513
100
AcDbEntity
8
0
100
AcDbCircle
10
-56.238161253732613
20
47.158097789870446
30
0
40
2.8493751895772395
210
0
220
0
230
-1
100
AcDbArc
50
102.56894723345087
51
135.83257622361236
0
LINE
5
514
100
AcDbEntity
8
0
100
AcDbLine
10
133.93897994590614
20
195.01186092183752
30
0
11
133.93897994590614
21
195.79277243440359
31
0
0
LINE
5
515
100
AcDbEntity
8
0
100
AcDbLine
10
134.90857164369274
20
207.12388658402813
30
0
11
134.90857164369274
21
207.57548746249961
31
0
0
SPLINE
5
516
100
AcDbEntity
8
0
100
AcDbSpline
70
0
71
2
72
6
73
3
74
0
42
0.000000001
43
0.0000000001
44
0.0000000001
40
0
40
0
40
0
40
1
40
1
40
1
10
137.1316416785011
20
196.14567475596931
30
0
10
137.59022676275495
20
195.79277243440362
30
0
10
138.6777369119859
20
195.79277243440362
30
0
0
ARC
5
517
100
AcDbEntity
8
0
100
AcDbCircle
10
-138.70569277797671
20
197.40851052839969
30
0
40
2.6493423378010661
210
0
220
0
230
-1
100
AcDbArc
50
174.29910484313004
51
179.93804193434116
0
ARC
5
518
100
AcDbEntity
8
0
100
AcDbCircle
10
-137.82756067307906
20
197.59343058630489
30
0
40
1.787192366265282
210
0
220
0
230
-1
100
AcDbArc
50
15.902123063751366
51
51.427121775224684
0
LINE
5
519
100
AcDbEntity
8
0
100
AcDbLine
10
140.59683405161627
20
195.79277243440362
30
0
11
140.59683405161627
21
195.73687213087052
31
0
0
SPLINE
5
520
100
AcDbEntity
8
0
100
AcDbSpline
70
0
71
2
72
6
73
3
74
0
42
0.000000001
43
0.0000000001
44
0.0000000001
40
0
40
0
40
0
40
1
40
1
40
1
10
139.21145552294843
20
195.81897653472456
30
0
10
139.74953259820649
20
195.87489016689466
30
0
10
140.0770971808555
20
196.05482676625024
30
0
0
SPLINE
5
521
100
AcDbEntity
8
0
100
AcDbSpline
70
0
71
2
72
6
73
3
74
0
42
0.000000001
43
0.0000000001
44
0.0000000001
40
0
40
0
40
0
40
1
40
1
40
1
10
138.66812696471663
20
198.74347941973181
30
0
10
137.66097516789415
20
198.74347941973181
30
0
10
137.16657603605003
20
198.39057709816612
30
0
0
SPLINE
5
522
100
AcDbEntity
8
0
100
AcDbSpline
70
0
71
2
72
6
73
3
74
0
42
0.000000001
43
0.0000000001
44
0.0000000001
40
0
40
0
40
0
40
1
40
1
40
1
10
139.69624470752325
20
198.61244558948999
30
0
10
139.26735582648155
20
198.74347941973181
30
0
10
138.66812696471663
20
198.74347941973181
30
0
0
ARC
5
523
100
AcDbEntity
8
0
100
AcDbCircle
10
-138.47940583974125
20
197.31172302927885
30
0
40
1.8064095534244784
210
-0
220
0
230
-1
100
AcDbArc
50
-0.41322225312283339
51
11.296243887211801
0
SPLINE
5
524
100
AcDbEntity
8
0
100
AcDbSpline
70
0
71
2
72
6
73
3
74
0
42
0.000000001
43
0.0000000001
44
0.0000000001
40
0
40
0
40
0
40
1
40
1
40
1
10
136.71322910613299
20
198.99068564997236
30
0
10
137.26878002448399
20
199.44054047699822
30
0
10
138.19381408881537
20
199.53050877667602
30
0
0
ARC
5
525
100
AcDbEntity
8
0
100
AcDbCircle
10
-137.80664522434645
20
197.24887086792759
30
0
40
1.775836784070298
210
-0
220
0
230
-1
100
AcDbArc
50
304.92015124426632
51
354.83693702731813
0
ARC
5
526
100
AcDbEntity
8
0
100
AcDbCircle
10
-137.82906588005605
20
197.46400007573826
30
0
40
1.1390512595587421
210
0
220
0
230
-1
100
AcDbArc
50
10.192702572015312
51
54.435752772055395
0
ARC
5
527
100
AcDbEntity
8
0
100
AcDbCircle
10
-139.14340250764741
20
197.33358305199386
30
0
40
1.5574603956376232
210
0
220
0
230
-1
100
AcDbArc
50
164.11368219045588
51
180.57640342038093
0
SPLINE
5
528
100
AcDbEntity
8
0
100
AcDbSpline
70
0
71
2
72
6
73
3
74
0
42
0.000000001
43
0.0000000001
44
0.0000000001
40
0
40
0
40
0
40
1
40
1
40
1
10
136.67304326561026
20
197.29869515600268
30
0
10
136.67304326561026
20
196.49856374889799
30
0
10
137.1316416785011
20
196.14567475596931
30
0
0
ARC
5
529
100
AcDbEntity
8
0
100
AcDbCircle
10
-138.68647834605503
20
197.40872289737396
30
0
40
2.6676858744576011
210
-0
220
0
230
-1
100
AcDbArc
50
-6.8821129294524104
51
0.056970828199171888
0
ARC
5
530
100
AcDbEntity
8
0
100
AcDbCircle
10
-139.51732161005873
20
197.09173620164376
30
0
40
1.1783589719898375
210
0
220
0
230
-1
100
AcDbArc
50
232.62769994804012
51
241.63760765317241
0
ARC
5
531
100
AcDbEntity
8
0
100
AcDbCircle
10
-138.40598157825778
20
197.43354334093269
30
0
40
2.3872907133338446
210
-0
220
0
230
-1
100
AcDbArc
50
-0.53204440478843951
51
15.788942045269664
0
ARC
5
532
100
AcDbEntity
8
0
100
AcDbCircle
10
-139.1912579374652
20
196.89170797948526
30
0
40
1.793306878484149
210
0
220
0
230
-1
100
AcDbArc
50
106.35543968054793
51
123.2994164005587
0
LINE
5
533
100
AcDbEntity
8
0
100
AcDbLine
10
140.59683405161627
20
195.73687213087052
30
0
11
141.26069347414233
21
195.57178363312102
31
0
0
SPLINE
5
534
100
AcDbEntity
8
0
100
AcDbSpline
70
0
71
2
72
6
73
3
74
0
42
0.000000001
43
0.0000000001
44
0.0000000001
40
0
40
0
40
0
40
1
40
1
40
1
10
141.16897912301897
20
196.49157954311562
30
0
10
140.98292467928533
20
196.0757927122344
30
0
10
140.59683405161627
20
195.79277243440362
30
0
0
SPLINE
5
535
100
AcDbEntity
8
0
100
AcDbSpline
70
0
71
2
72
6
73
3
74
0
42
0.000000001
43
0.0000000001
44
0.0000000001
40
0
40
0
40
0
40
1
40
1
40
1
10
141.35503356675261
20
197.4113754531102
30
0
10
141.35503356675261
20
196.90824606403811
30
0
10
141.16897912301897
20
196.49157954311562
30
0
0
LINE
5
536
100
AcDbEntity
8
0
100
AcDbLine
10
136.79009535565027
20
195.75521233536776
30
0
11
136.79009535565027
21
195.79277243440362
31
0
0
ARC
5
537
100
AcDbEntity
8
0
100
AcDbCircle
10
-138.18945567871421
20
197.31843677796331
30
0
40
2.511328466975927
210
0
220
0
230
-1
100
AcDbArc
50
180.01190317392232
51
183.70128715349233
0
ARC
5
538
100
AcDbEntity
8
0
100
AcDbCircle
10
-138.69169427059848
20
200.95691856313073
30
0
40
5.1641649902677393
210
0
220
0
230
-1
100
AcDbArc
50
264.22353171914301
51
270.15485537676699
0
ARC
5
539
100
AcDbEntity
8
0
100
AcDbCircle
10
-139.56164170376525
20
197.45001099644495
30
0
40
1.1233281537603199
210
0
220
0
230
-1
100
AcDbArc
50
123.14358421382619
51
163.98600293969594
0
ARC
5
540
100
AcDbEntity
8
0
100
AcDbCircle
10
-138.66148624247793
20
194.53844574074881
30
0
40
5.0139216784850014
210
0
220
0
230
-1
100
AcDbArc
50
84.647972248571605
51
90.185702224115516
0
SPLINE
5
541
100
AcDbEntity
8
0
100
AcDbSpline
70
0
71
2
72
6
73
3
74
0
42
0.000000001
43
0.0000000001
44
0.0000000001
40
0
40
0
40
0
40
1
40
1
40
1
10
135.71743330802542
20
195.79277243440362
30
0
10
136.31490278970776
20
195.79277243440362
30
0
10
136.79009535565027
20
195.75521233536776
30
0
0
LINE
5
542
100
AcDbEntity
8
0
100
AcDbLine
10
141.26069347414233
20
195.57178363312102
30
0
11
141.26069347414233
21
195.01186092183752
31
0
0
SPLINE
5
543
100
AcDbEntity
8
0
100
AcDbSpline
70
0
71
2
72
6
73
3
74
0
42
0.000000001
43
0.0000000001
44
0.0000000001
40
0
40
0
40
0
40
1
40
1
40
1
10
138.6777369119859
20
199.55234108406447
30
0
10
139.94782273069629
20
199.55234108406447
30
0
10
140.6509883037038
20
198.98543416699857
30
0
0
SPLINE
5
544
100
AcDbEntity
8
0
100
AcDbSpline
70
0
71
2
72
6
73
3
74
0
42
0.000000001
43
0.0000000001
44
0.0000000001
40
0
40
0
40
0
40
1
40
1
40
1
10
140.23257573133571
20
196.15528470323858
30
0
10
140.6518679937451
20
196.48022354440073
30
0
10
140.69554593715904
20
197.15631865568298
30
0
0
ARC
5
545
100
AcDbEntity
8
0
100
AcDbCircle
10
-139.49740354402576
20
197.54015744300688
30
0
40
1.8492113472163374
210
0
220
0
230
-1
100
AcDbArc
50
128.59601691620313
51
175.92135874770275
0
ARC
5
546
100
AcDbEntity
8
0
100
AcDbCircle
10
-138.64277379534545
20
202.99768038793843
30
0
40
1.9697551236276305
210
-0
220
0
230
-1
100
AcDbArc
50
-0.28631598626750498
51
10.675541293211101
0
LINE
5
547
100
AcDbEntity
8
0
100
AcDbLine
10
154.15189792609044
20
73.098437105653858
30
0
11
156.75494074418972
21
73.098437105653858
31
0
0
LINE
5
548
100
AcDbEntity
8
0
100
AcDbLine
10
136.71060336464609
20
206.79370958852917
30
0
11
136.71060336464609
21
206.05559632933574
31
0
0
ARC
5
549
100
AcDbEntity
8
0
100
AcDbCircle
10
-138.53178333640346
20
202.97061707945321
30
0
40
1.858819836665927
210
-0
220
0
230
-1
100
AcDbArc
50
-13.874473165244781
51
0.53079777604405565
0
ARC
5
550
100
AcDbEntity
8
0
100
AcDbCircle
10
-137.97420972674919
20
203.14926945062763
30
0
40
1.2849266312181098
210
0
220
0
230
-1
100
AcDbArc
50
9.5555399435666342
51
52.002279707381852
0
ARC
5
551
100
AcDbEntity
8
0
100
AcDbCircle
10
-138.14916962561756
20
203.11872135776599
30
0
40
1.6151117488552211
210
-0
220
0
230
-1
100
AcDbArc
50
287.56106059557129
51
307.0437712619505
0
ARC
5
552
100
AcDbEntity
8
0
100
AcDbCircle
10
-139.19291399744935
20
203.11055126194688
30
0
40
2.1785228143507815
210
0
220
0
230
-1
100
AcDbArc
50
120.2450774776359
51
131.85857896953814
0
ARC
5
553
100
AcDbEntity
8
0
100
AcDbCircle
10
-138.63395989434497
20
203.03526611779995
30
0
40
2.6248842889257054
210
-0
220
0
230
-1
100
AcDbArc
50
-0.52032326898780235
51
16.524829811834916
0
ARC
5
554
100
AcDbEntity
8
0
100
AcDbCircle
10
-138.69362706122755
20
204.53741268786811
30
0
40
3.9071903851557788
210
0
220
0
230
-1
100
AcDbArc
50
260.92118687123065
51
270.23301679912549
0
LINE
5
555
100
AcDbEntity
8
0
100
AcDbLine
10
134.90857164369274
20
207.57548746249961
30
0
11
136.10352393569445
21
207.57548746249955
31
0
0
SPLINE
5
556
100
AcDbEntity
8
0
100
AcDbSpline
70
0
71
2
72
6
73
3
74
0
42
0.000000001
43
0.0000000001
44
0.0000000001
40
0
40
0
40
0
40
1
40
1
40
1
10
141.35503356675258
20
202.97822730669822
30
0
10
141.35503356675258
20
204.0980727292652
30
0
10
140.64662983940826
20
204.73310230998339
30
0
0
LINE
5
557
100
AcDbEntity
8
0
100
AcDbLine
10
136.33412268424632
20
206.05559632933574
30
0
11
136.00918384308417
21
206.79370958852917
31
0
0
SPLINE
5
558
100
AcDbEntity
8
0
100
AcDbSpline
70
0
71
2
72
6
73
3
74
0
42
0.000000001
43
0.0000000001
44
0.0000000001
40
0
40
0
40
0
40
1
40
1
40
1
10
138.55370061616347
20
205.36639916789301
30
0
10
137.41290257624928
20
205.33582327463955
30
0
10
136.72895689778034
20
204.73048989713351
30
0
0
SPLINE
5
559
100
AcDbEntity
8
0
100
AcDbSpline
70
0
71
2
72
6
73
3
74
0
42
0.000000001
43
0.0000000001
44
0.0000000001
40
0
40
0
40
0
40
1
40
1
40
1
10
137.66185485793542
20
201.57888036646557
30
0
10
138.08113379170783
20
201.43911627899575
30
0
10
138.67773691198587
20
201.43911627899575
30
0
0
ARC
5
560
100
AcDbEntity
8
0
100
AcDbCircle
10
-139.16945717574674
20
202.8764873257872
30
0
40
2.1750288371199917
210
0
220
0
230
-1
100
AcDbArc
50
196.77185770074283
51
211.19005108453158
0
ARC
5
561
100
AcDbEntity
8
0
100
AcDbCircle
10
-139.22353326700238
20
202.84941952868255
30
0
40
2.1147569489143194
210
0
220
0
230
-1
100
AcDbArc
50
211.32144248731058
51
242.19848673114723
0
ARC
5
562
100
AcDbEntity
8
0
100
AcDbCircle
10
-138.88660116937831
20
203.01445276133578
30
0
40
1.8142709501287273
210
0
220
0
230
-1
100
AcDbArc
50
165.28649088929035
51
180.56441527400244
0
ARC
5
563
100
AcDbEntity
8
0
100
AcDbCircle
10
-139.19806562659187
20
203.14464033470443
30
0
40
1.6386964596178371
210
0
220
0
230
-1
100
AcDbArc
50
233.0640888714224
51
249.87956821212498
0
ARC
5
564
100
AcDbEntity
8
0
100
AcDbCircle
10
-138.69076877903663
20
200.44509300304696
30
0
40
4.1142111913934638
210
0
220
0
230
-1
100
AcDbArc
50
89.81851387907966
51
96.474278041946079
0
SPLINE
5
565
100
AcDbEntity
8
0
100
AcDbSpline
70
0
71
2
72
6
73
3
74
0
42
0.000000001
43
0.0000000001
44
0.0000000001
40
0
40
0
40
0
40
1
40
1
40
1
10
140.29023541495138
20
204.99253090034316
30
0
10
139.6473286097725
20
205.3681452193386
30
0
10
138.67773691198587
20
205.3681452193386
30
0
0
ARC
5
566
100
AcDbEntity
8
0
100
AcDbCircle
10
-137.93710764128735
20
202.81355817555408
30
0
40
1.2438719301716468
210
-0
220
0
230
-1
100
AcDbArc
50
307.71515758364825
51
346.58043890792862
0
ARC
5
567
100
AcDbEntity
8
0
100
AcDbCircle
10
-138.68023737002849
20
200.78398862868306
30
0
40
4.5841572726010691
210
0
220
0
230
-1
100
AcDbArc
50
88.418260434564189
51
89.968747647326168
0
ARC
5
568
100
AcDbEntity
8
0
100
AcDbCircle
10
-54.239858169723441
20
141.31577709769155
30
0
40
0.76868488311786221
210
0
220
0
230
-1
100
AcDbArc
50
154.99762392839651
51
162.3415263738496
0
ARC
5
569
100
AcDbEntity
8
0
100
AcDbCircle
10
-139.41954913137596
20
203.15851649785549
30
0
40
1.262215570958134
210
0
220
0
230
-1
100
AcDbArc
50
127.35529033372454
51
165.46707657550067
0
SPLINE
5
570
100
AcDbEntity
8
0
100
AcDbSpline
70
0
71
2
72
6
73
3
74
0
42
0.000000001
43
0.0000000001
44
0.0000000001
40
0
40
0
40
0
40
1
40
1
40
1
10
138.67773691198587
20
201.43911627899575
30
0
10
139.31889766571916
20
201.43911627899575
30
0
10
139.76176828696265
20
201.60595082819086
30
0
0
LINE
5
571
100
AcDbEntity
8
0
100
AcDbLine
10
48.631548011805315
20
140.10679338406771
30
0
11
49.826503635966262
21
140.10679338406771
31
0
0
LINE
5
572
100
AcDbEntity
8
0
100
AcDbLine
10
53.501342140286148
20
139.32501551009733
30
0
11
50.433589729236409
21
139.32501551009733
31
0
0
ARC
5
573
100
AcDbEntity
8
0
100
AcDbCircle
10
-138.86175312883032
20
203.53372375194581
30
0
40
2.8895564483810015
210
0
220
0
230
-1
100
AcDbArc
50
244.66851592220485
51
261.07277259440525
0
LINE
5
574
100
AcDbEntity
8
0
100
AcDbLine
10
49.826503635966262
20
141.60310615839751
30
0
11
50.433589729236402
21
141.60310615839751
31
0
0
ARC
5
575
100
AcDbEntity
8
0
100
AcDbCircle
10
-138.64813291244357
20
204.68583296372367
30
0
40
4.0556863959331642
210
0
220
0
230
-1
100
AcDbArc
50
269.58177257123913
51
280.72579460084251
0
LINE
5
576
100
AcDbEntity
8
0
100
AcDbLine
10
141.26069347414233
20
195.01186092183752
30
0
11
133.93897994590614
21
195.01186092183752
31
0
0
ARC
5
577
100
AcDbEntity
8
0
100
AcDbCircle
10
-138.9921567821923
20
203.23882517591076
30
0
40
2.5672327274481566
210
0
220
0
230
-1
100
AcDbArc
50
241.68414344384533
51
244.48308149026744
0
SPLINE
5
578
100
AcDbEntity
8
0
100
AcDbSpline
70
0
71
2
72
6
73
3
74
0
42
0.000000001
43
0.0000000001
44
0.0000000001
40
0
40
0
40
0
40
1
40
1
40
1
10
140.18279327218065
20
201.83481685393414
30
0
10
140.70078409149579
20
202.22963773883117
30
0
10
140.70078409149579
20
202.99658083983246
30
0
0
SPLINE
5
579
100
AcDbEntity
8
0
100
AcDbSpline
70
0
71
2
72
6
73
3
74
0
42
0.000000001
43
0.0000000001
44
0.0000000001
40
0
40
0
40
0
40
1
40
1
40
1
10
138.67773691198587
20
204.55928355500595
30
0
10
137.69417680263447
20
204.55928355500595
30
0
10
137.1831701891017
20
204.16183692862202
30
0
0
SPLINE
5
580
100
AcDbEntity
8
0
100
AcDbSpline
70
0
71
2
72
6
73
3
74
0
42
0.000000001
43
0.0000000001
44
0.0000000001
40
0
40
0
40
0
40
1
40
1
40
1
10
136.71322910613296
20
201.26092573108582
30
0
10
137.17967808621052
20
200.84163346867643
30
0
10
137.8933332965286
20
200.70100301980233
30
0
0
LINE
5
581
100
AcDbEntity
8
0
100
AcDbLine
10
136.71060336464609
20
206.05559632933574
30
0
11
136.33412268424632
21
206.05559632933574
31
0
0
ARC
5
582
100
AcDbEntity
8
0
100
AcDbCircle
10
-138.09572717493231
20
202.79598164265343
30
0
40
2.065840642903654
210
-0
220
0
230
-1
100
AcDbArc
50
312.0067504726652
51
350.81859207059955
0
ARC
5
583
100
AcDbEntity
8
0
100
AcDbCircle
10
-138.84638639296963
20
202.96076748167852
30
0
40
2.5087079319878653
210
0
220
0
230
-1
100
AcDbArc
50
179.60123601955317
51
196.48566824695004
0
LINE
5
584
100
AcDbEntity
8
0
100
AcDbLine
10
134.90857164369274
20
210.97692896489491
30
0
11
136.10352393569445
21
210.97692896489491
31
0
0
ARC
5
585
100
AcDbEntity
8
0
100
AcDbCircle
10
-139.04284474564372
20
202.99937968005798
30
0
40
3.0336848314250031
210
-0
220
0
230
-1
100
AcDbArc
50
-10.119529171740108
51
0.22756933461152326
0
LINE
5
586
100
AcDbEntity
8
0
100
AcDbLine
10
156.55053276732184
20
71.396849993051873
30
0
11
154.15189792609044
21
72.113997306261155
31
0
0
LINE
5
587
100
AcDbEntity
8
0
100
AcDbLine
10
136.00918384308417
20
206.79370958852917
30
0
11
134.90857164369274
21
207.12388658402813
31
0
0
ARC
5
588
100
AcDbEntity
8
0
100
AcDbCircle
10
-53.201416231723485
20
141.35069636477471
30
0
40
1.1739914483863847
210
0
220
0
230
-1
100
AcDbArc
50
165.70024356580603
51
166.22726949833984
0
SPLINE
5
589
100
AcDbEntity
8
0
100
AcDbSpline
70
0
71
2
72
6
73
3
74
0
42
0.000000001
43
0.0000000001
44
0.0000000001
40
0
40
0
40
0
40
1
40
1
40
1
10
139.67703814162167
20
204.42213188038605
30
0
10
139.4420542715003
20
204.49901145854031
30
0
10
139.154675529374
20
204.53306612604797
30
0
0
ARC
5
590
100
AcDbEntity
8
0
100
AcDbCircle
10
-139.17802585779975
20
202.82095922380708
30
0
40
1.6771306256762615
210
0
220
0
230
-1
100
AcDbArc
50
107.30986797456683
51
126.91694823556145
0
LINE
5
591
100
AcDbEntity
8
0
100
AcDbLine
10
50.433589729236402
20
141.60310615839751
30
0
11
50.433589729236402
21
140.10679338406771
31
0
0
ARC
5
592
100
AcDbEntity
8
0
100
AcDbCircle
10
-138.07524093284502
20
203.19132145650909
30
0
40
2.0448765712590493
210
0
220
0
230
-1
100
AcDbArc
50
16.785610423378987
51
48.824372479417775
0
LINE
5
593
100
AcDbEntity
8
0
100
AcDbLine
10
54.339033646426643
20
141.64066625743334
30
0
11
54.936509792427501
21
141.64066625743334
31
0
0
LINE
5
594
100
AcDbEntity
8
0
100
AcDbLine
10
154.15189792609044
20
72.113997306261155
30
0
11
154.15189792609044
21
73.098437105653858
31
0
0
LINE
5
595
100
AcDbEntity
8
0
100
AcDbLine
10
50.433589729236402
20
140.10679338406771
30
0
11
53.468147169864288
21
140.10679338406771
31
0
0
SPLINE
5
596
100
AcDbEntity
8
0
100
AcDbSpline
70
0
71
2
72
6
73
3
74
0
42
0.000000001
43
0.0000000001
44
0.0000000001
40
0
40
0
40
0
40
1
40
1
40
1
10
55.037837422979408
20
141.26681131852047
30
0
10
55.074524496292455
20
141.0353328799273
30
0
10
55.077146905620097
20
140.84839874615238
30
0
0
SPLINE
5
597
100
AcDbEntity
8
0
100
AcDbSpline
70
0
71
2
72
6
73
3
74
0
42
0.000000001
43
0.0000000001
44
0.0000000001
40
0
40
0
40
0
40
1
40
1
40
1
10
53.744176577594196
20
140.12950538149749
30
0
10
53.896166357342423
20
140.15658917185976
30
0
10
54.015837524550854
20
140.21598157828407
30
0
0
ARC
5
598
100
AcDbEntity
8
0
100
AcDbCircle
10
-53.477655386258149
20
141.67994815172779
30
0
40
1.5731835014360553
210
0
220
0
230
-1
100
AcDbArc
50
260.24618092950863
51
270.34629398690618
0
LINE
5
599
100
AcDbEntity
8
0
100
AcDbLine
10
44.402907972739285
20
66.932363054619387
30
0
11
52.859315025148568
21
66.932363054619401
31
0
0
LINE
5
600
100
AcDbEntity
8
0
100
AcDbLine
10
48.631548011805322
20
139.65519250559626
30
0
11
48.631548011805315
21
140.10679338406771
31
0
0
LINE
5
601
100
AcDbEntity
8
0
100
AcDbLine
10
156.02730379366986
20
32.23147990764668
30
0
11
156.75494074418975
21
32.231479907646687
31
0
0
ARC
5
602
100
AcDbEntity
8
0
100
AcDbCircle
10
-188.0725973118391
20
210.34313365882139
30
0
40
2.8895564483810361
210
0
220
0
230
-1
100
AcDbArc
50
244.72954597243969
51
261.12862066954443
0
LINE
5
603
100
AcDbEntity
8
0
100
AcDbLine
10
136.00918384308417
20
210.19600412369184
30
0
11
134.90857164369274
21
210.52531475778648
31
0
0
LINE
5
604
100
AcDbEntity
8
0
100
AcDbLine
10
156.69378895768284
20
30.529892795044702
30
0
11
156.06836932423394
21
30.529892795044699
31
0
0
LINE
5
605
100
AcDbEntity
8
0
100
AcDbLine
10
133.93897994590614
20
195.79277243440359
30
0
11
135.71743330802542
21
195.79277243440362
31
0
0
LINE
5
606
100
AcDbEntity
8
0
100
AcDbLine
10
139.77836244001432
20
206.79370958852917
30
0
11
136.71060336464609
21
206.79370958852917
31
0
0
SPLINE
5
607
100
AcDbEntity
8
0
100
AcDbSpline
70
0
71
2
72
6
73
3
74
0
42
0.000000001
43
0.0000000001
44
0.0000000001
40
0
40
0
40
0
40
1
40
1
40
1
10
141.35503356675258
20
208.29002236285896
30
0
10
141.35503356675258
20
206.79370958852917
30
0
10
139.77836244001432
20
206.79370958852917
30
0
0
ARC
5
608
100
AcDbEntity
8
0
100
AcDbCircle
10
-53.701705478651725
20
140.87068926789928
30
0
40
0.7258830893260253
210
0
220
0
230
-1
100
AcDbArc
50
187.64207586423214
51
228.40948403811592
0
SPLINE
5
609
100
AcDbEntity
8
0
100
AcDbSpline
70
0
71
2
72
6
73
3
74
0
42
0.000000001
43
0.0000000001
44
0.0000000001
40
0
40
0
40
0
40
1
40
1
40
1
10
163.79452701327341
20
129.54786048978133
30
0
10
163.79452701327341
20
128.40443670838027
30
0
10
163.09833231741129
20
127.74320302734111
30
0
0
SPLINE
5
610
100
AcDbEntity
8
0
100
AcDbSpline
70
0
71
2
72
6
73
3
74
0
42
0.000000001
43
0.0000000001
44
0.0000000001
40
0
40
0
40
0
40
1
40
1
40
1
10
54.401924820060657
20
141.33494731080978
30
0
10
54.373101642571299
20
141.51837601305652
30
0
10
54.341652723595047
20
141.63018994875978
30
0
0
ARC
5
611
100
AcDbEntity
8
0
100
AcDbCircle
10
-163.95218598639491
20
49.928063987683295
30
0
40
2.7891033013715871
210
0
220
0
230
-1
100
AcDbArc
50
188.30615496669384
51
232.70949004518229
0
SPLINE
5
612
100
AcDbEntity
8
0
100
AcDbSpline
70
0
71
2
72
6
73
3
74
0
42
0.000000001
43
0.0000000001
44
0.0000000001
40
0
40
0
40
0
40
1
40
1
40
1
10
48.038436994418461
20
126.35782449867327
30
0
10
47.910905263545587
20
126.22067282405337
30
0
10
47.910905263545587
20
126.03287232887412
30
0
0
SPLINE
5
613
100
AcDbEntity
8
0
100
AcDbSpline
70
0
71
2
72
6
73
3
74
0
42
0.000000001
43
0.0000000001
44
0.0000000001
40
0
40
0
40
0
40
1
40
1
40
1
10
53.232303602657126
20
129.08402392255368
30
0
10
53.325767337385344
20
128.96785152255495
30
0
10
53.432333122274045
20
128.90059522030694
30
0
0
SPLINE
5
614
100
AcDbEntity
8
0
100
AcDbSpline
70
0
71
2
72
6
73
3
74
0
42
0.000000001
43
0.0000000001
44
0.0000000001
40
0
40
0
40
0
40
1
40
1
40
1
10
163.79452701327341
20
137.5937188656462
30
0
10
163.79452701327341
20
136.09740609131643
30
0
10
162.21872224793944
20
136.09740609131643
30
0
0
LINE
5
615
100
AcDbEntity
8
0
100
AcDbLine
10
50.433589729236409
20
139.32501551009733
30
0
11
50.433589729236409
21
138.58690225090388
31
0
0
ARC
5
616
100
AcDbEntity
8
0
100
AcDbCircle
10
-155.10095836326488
20
34.306324965503016
30
0
40
1.9688814731249782
210
-0
220
0
230
-1
100
AcDbArc
50
287.86595410231155
51
304.95832714097526
0
ARC
5
617
100
AcDbEntity
8
0
100
AcDbCircle
10
-53.38868170427601
20
140.92786982500121
30
0
40
1.0438391825254483
210
0
220
0
230
-1
100
AcDbArc
50
179.61548990278635
51
188.46794129627307
0
ARC
5
618
100
AcDbEntity
8
0
100
AcDbCircle
10
-53.075991552307997
20
140.83486351528973
30
0
40
2.0012011269645473
210
0
220
0
230
-1
100
AcDbArc
50
179.61247397597882
51
180.38752602401934
0
ARC
5
619
100
AcDbEntity
8
0
100
AcDbCircle
10
-156.00903015084197
20
40.26508930907746
30
0
40
8.0336301844669968
210
0
220
0
230
-1
100
AcDbArc
50
269.86967242837989
51
271.69525664665559
0
SPLINE
5
620
100
AcDbEntity
8
0
100
AcDbSpline
70
0
71
2
72
6
73
3
74
0
42
0.000000001
43
0.0000000001
44
0.0000000001
40
0
40
0
40
0
40
1
40
1
40
1
10
54.432497381154867
20
140.93487494293893
30
0
10
54.432497381154867
20
141.14189533265676
30
0
10
54.401924820060657
20
141.33494731080978
30
0
0
SPLINE
5
621
100
AcDbEntity
8
0
100
AcDbSpline
70
0
71
2
72
6
73
3
74
0
42
0.000000001
43
0.0000000001
44
0.0000000001
40
0
40
0
40
0
40
1
40
1
40
1
10
154.49692302319545
20
32.432389117304893
30
0
10
155.00967568817381
20
32.259433391572493
30
0
10
155.77136730620134
20
32.234975342697126
30
0
0
SPLINE
5
622
100
AcDbEntity
8
0
100
AcDbSpline
70
0
71
2
72
6
73
3
74
0
42
0.000000001
43
0.0000000001
44
0.0000000001
40
0
40
0
40
0
40
1
40
1
40
1
10
54.972323840017751
20
141.54895190630998
30
0
10
55.009887271212847
20
141.43627160920244
30
0
10
55.037837422979408
20
141.26681131852047
30
0
0
LINE
5
623
100
AcDbEntity
8
0
100
AcDbLine
10
49.826503635966262
20
140.10679338406771
30
0
11
49.826503635966262
21
141.60310615839751
31
0
0
SPLINE
5
624
100
AcDbEntity
8
0
100
AcDbSpline
70
0
71
2
72
6
73
3
74
0
42
0.000000001
43
0.0000000001
44
0.0000000001
40
0
40
0
40
0
40
1
40
1
40
1
10
185.92129065011426
20
208.06902023293935
30
0
10
186.38773963019179
20
207.65060766057127
30
0
10
187.10139484050987
20
207.50997721169716
30
0
0
LINE
5
625
100
AcDbEntity
8
0
100
AcDbLine
10
159.15096317257121
20
135.35842647071868
30
0
11
158.77448249217144
21
135.35842647071868
31
0
0
ARC
5
626
100
AcDbEntity
8
0
100
AcDbCircle
10
-48.495332934946731
20
126.03967957927028
30
0
40
0.45596991195957004
210
0
220
0
230
-1
100
AcDbArc
50
135.75465472975338
51
180.85540996720118
0
LINE
5
627
100
AcDbEntity
8
0
100
AcDbLine
10
55.042205883752672
20
68.213798207726185
30
0
11
56.149808953245
21
66.932363054619401
31
0
0
ARC
5
628
100
AcDbEntity
8
0
100
AcDbCircle
10
-161.09450441358274
20
49.802153500657226
30
0
40
4.5003005695027891
210
-0
220
0
230
-1
100
AcDbArc
50
312.00929729600148
51
350.81786442638764
0
LINE
5
629
100
AcDbEntity
8
0
100
AcDbLine
10
50.057109048836644
20
138.58690225090388
30
0
11
49.732163543355995
21
139.32501551009733
31
0
0
SPLINE
5
630
100
AcDbEntity
8
0
100
AcDbSpline
70
0
71
2
72
6
73
3
74
0
42
0.000000001
43
0.0000000001
44
0.0000000001
40
0
40
0
40
0
40
1
40
1
40
1
10
55.077146905620097
20
140.8213282844271
30
0
10
55.077146905620104
20
139.32501551009733
30
0
10
53.501342140286148
20
139.32501551009733
30
0
0
LINE
5
631
100
AcDbEntity
8
0
100
AcDbLine
10
49.732163543355995
20
139.32501551009733
30
0
11
48.631548011805322
21
139.65519250559626
31
0
0
LINE
5
632
100
AcDbEntity
8
0
100
AcDbLine
10
60.352248224149328
20
30.719442673828759
30
0
11
44.4029079727393
21
30.719442673828755
31
0
0
ARC
5
633
100
AcDbEntity
8
0
100
AcDbCircle
10
-160.74810799589261
20
49.843582367700179
30
0
40
2.7096142260067353
210
-0
220
0
230
-1
100
AcDbArc
50
307.66442435696115
51
346.51134016868508
0
LINE
5
634
100
AcDbEntity
8
0
100
AcDbLine
10
54.983679838732641
20
121.70378434929746
30
0
11
49.826503635966262
21
121.70378434929746
31
0
0
LINE
5
635
100
AcDbEntity
8
0
100
AcDbLine
10
50.433589729236409
20
138.58690225090388
30
0
11
50.057109048836644
21
138.58690225090388
31
0
0
ARC
5
636
100
AcDbEntity
8
0
100
AcDbCircle
10
-53.829698882976857
20
128.90673432057372
30
0
40
0.79139604750782211
210
-0
220
0
230
-1
100
AcDbArc
50
288.72887258897424
51
305.5614654033464
0
SPLINE
5
637
100
AcDbEntity
8
0
100
AcDbSpline
70
0
71
2
72
6
73
3
74
0
42
0.000000001
43
0.0000000001
44
0.0000000001
40
0
40
0
40
0
40
1
40
1
40
1
10
50.838023893561981
20
134.50937896586328
30
0
10
51.280018156923404
20
134.1355106983134
30
0
10
52.287169953745867
20
134.1355106983134
30
0
0
SPLINE
5
638
100
AcDbEntity
8
0
100
AcDbSpline
70
0
71
2
72
6
73
3
74
0
42
0.000000001
43
0.0000000001
44
0.0000000001
40
0
40
0
40
0
40
1
40
1
40
1
10
163.76744322291114
20
130.11388771680595
30
0
10
163.79452701327341
20
129.8579512293374
30
0
10
163.79452701327341
20
129.54786048978133
30
0
0
ARC
5
639
100
AcDbEntity
8
0
100
AcDbCircle
10
-52.274936778577043
20
124.00402894611
30
0
40
1.8317410445425386
210
-0
220
0
230
-1
100
AcDbArc
50
-0.11887483682665168
51
2.5047157310847834
0
SPLINE
5
640
100
AcDbEntity
8
0
100
AcDbSpline
70
0
71
2
72
6
73
3
74
0
42
0.000000001
43
0.0000000001
44
0.0000000001
40
0
40
0
40
0
40
1
40
1
40
1
10
163.75434117275066
20
138.03833553833528
30
0
10
163.79190127178649
20
137.80773678978341
30
0
10
163.79452701327341
20
137.61992296596719
30
0
0
ARC
5
641
100
AcDbEntity
8
0
100
AcDbCircle
10
-53.683321531310817
20
140.8964084915348
30
0
40
0.7573293009228852
210
0
220
0
230
-1
100
AcDbArc
50
228.66088518943556
51
243.95582738083056
0
ARC
5
642
100
AcDbEntity
8
0
100
AcDbCircle
10
-59.836000580804487
20
130.25044536116792
30
0
40
4.9702466507104122
210
-0
220
0
230
-1
100
AcDbArc
50
-0.073818039590301379
51
3.5636667351687334
0
ARC
5
643
100
AcDbEntity
8
0
100
AcDbCircle
10
-77.263156836416044
20
95.590754552763286
30
0
40
36.560574551541819
210
-0
220
0
230
-1
100
AcDbArc
50
310.71307690594853
51
311.65895196779525
0
LINE
5
644
100
AcDbEntity
8
0
100
AcDbLine
10
44.4029079727393
20
32.421033118589989
30
0
11
48.277779328835344
21
32.421033118589989
31
0
0
SPLINE
5
645
100
AcDbEntity
8
0
100
AcDbSpline
70
0
71
2
72
6
73
3
74
0
42
0.000000001
43
0.0000000001
44
0.0000000001
40
0
40
0
40
0
40
1
40
1
40
1
10
55.028230807869377
20
131.21800534772555
30
0
10
54.904191179887704
20
131.02146126668134
30
0
10
54.875364670239094
20
130.5593840795363
30
0
0
LINE
5
646
100
AcDbEntity
8
0
100
AcDbLine
10
60.352248224149314
20
66.932363054619401
30
0
11
60.352248224149321
21
65.251735223683099
31
0
0
ARC
5
647
100
AcDbEntity
8
0
100
AcDbCircle
10
-48.2989869176876
20
125.95665967114421
30
0
40
0.36512533249722179
210
-0
220
0
230
-1
100
AcDbArc
50
294.03942199467821
51
316.11754968591617
0
LINE
5
648
100
AcDbEntity
8
0
100
AcDbLine
10
159.15096317257121
20
135.09986424176327
30
0
11
159.15096317257121
21
133.78698016968025
31
0
0
ARC
5
649
100
AcDbEntity
8
0
100
AcDbCircle
10
-156.99074384404338
20
34.100709646969008
30
0
40
3.6591148778715561
210
0
220
0
230
-1
100
AcDbArc
50
0.26101182480149487
51
6.9803492049201976
0
SPLINE
5
650
100
AcDbEntity
8
0
100
AcDbSpline
70
0
71
2
72
6
73
3
74
0
42
0.000000001
43
0.0000000001
44
0.0000000001
40
0
40
0
40
0
40
1
40
1
40
1
10
54.199272891116109
20
130.97954270334998
30
0
10
54.2752661149106
20
131.4713160937072
30
0
10
54.517227526495859
20
131.78054047185896
30
0
0
ARC
5
651
100
AcDbEntity
8
0
100
AcDbCircle
10
-51.369015838705906
20
135.46892805056834
30
0
40
1.5609543728683859
210
-0
220
0
230
-1
100
AcDbArc
50
301.99701997328884
51
330.14782892666079
0
LINE
5
652
100
AcDbEntity
8
0
100
AcDbLine
10
49.118089912144228
20
73.923026561633861
30
0
11
53.904899946729685
21
69.372063426414826
31
0
0
ARC
5
653
100
AcDbEntity
8
0
100
AcDbCircle
10
-162.73073553595708
20
50.159076987564923
30
0
40
5.4637773385506598
210
0
220
0
230
-1
100
AcDbArc
50
179.5761827676773
51
196.4543107466834
0
SPLINE
5
654
100
AcDbEntity
8
0
100
AcDbSpline
70
0
71
2
72
6
73
3
74
0
42
0.000000001
43
0.0000000001
44
0.0000000001
40
0
40
0
40
0
40
1
40
1
40
1
10
56.849489087679785
20
131.5429441888877
30
0
10
57.16220556872274
20
131.06339315864969
30
0
10
57.257418687055804
20
130.27810985315108
30
0
0
ARC
5
655
100
AcDbEntity
8
0
100
AcDbCircle
10
-55.600306494697243
20
130.41966248274207
30
0
40
1.0569417533358256
210
0
220
0
230
-1
100
AcDbArc
50
79.046246239021499
51
90.477206132669409
0
LINE
5
656
100
AcDbEntity
8
0
100
AcDbLine
10
54.601957671836843
20
66.851125012169618
30
0
11
54.601957671836843
21
66.932363054619401
31
0
0
LINE
5
657
100
AcDbEntity
8
0
100
AcDbLine
10
49.118089912144228
20
71.904357839374939
30
0
11
49.118089912144228
21
73.923026561633861
31
0
0
LINE
5
658
100
AcDbEntity
8
0
100
AcDbLine
10
60.352248224149321
20
72.180387247104846
30
0
11
55.042205883752672
21
68.213798207726185
31
0
0
SPLINE
5
659
100
AcDbEntity
8
0
100
AcDbSpline
70
0
71
2
72
6
73
3
74
0
42
0.000000001
43
0.0000000001
44
0.0000000001
40
0
40
0
40
0
40
1
40
1
40
1
10
153.46880528038884
20
35.155979460494677
30
0
10
153.39193903087153
20
34.831033955014036
30
0
10
153.35875072476819
20
34.545397932174097
30
0
0
LINE
5
660
100
AcDbEntity
8
0
100
AcDbLine
10
159.15096317257121
20
136.09740609131643
30
0
11
159.15096317257121
21
135.35842647071868
31
0
0
LINE
5
661
100
AcDbEntity
8
0
100
AcDbLine
10
159.15096317257121
20
136.87831760388252
30
0
11
162.18552061319909
21
136.87831760388252
31
0
0
LINE
5
662
100
AcDbEntity
8
0
100
AcDbLine
10
152.28608867714328
20
36.239124481111574
30
0
11
153.64962156978567
21
35.798003243473019
31
0
0
ARC
5
663
100
AcDbEntity
8
0
100
AcDbCircle
10
-51.659636075579343
20
135.65728641710132
30
0
40
1.9068627004339003
210
-0
220
0
230
-1
100
AcDbArc
50
329.58577860135472
51
333.32127865429885
0
ARC
5
664
100
AcDbEntity
8
0
100
AcDbCircle
10
-157.40739840948766
20
34.124560891417786
30
0
40
5.4795001319592016
210
0
220
0
230
-1
100
AcDbArc
50
0.24457999132078448
51
8.3852216011943188
0
SPLINE
5
665
100
AcDbEntity
8
0
100
AcDbSpline
70
0
71
2
72
6
73
3
74
0
42
0.000000001
43
0.0000000001
44
0.0000000001
40
0
40
0
40
0
40
1
40
1
40
1
10
50.190755291928355
20
137.19191377496676
30
0
10
50.640610118954214
20
137.66448059942238
30
0
10
51.618938738287319
20
137.66448059942238
30
0
0
LINE
5
666
100
AcDbEntity
8
0
100
AcDbLine
10
60.352248224149321
20
65.251735223683099
30
0
11
44.402907972739285
21
65.251735223683085
31
0
0
SPLINE
5
667
100
AcDbEntity
8
0
100
AcDbSpline
70
0
71
2
72
6
73
3
74
0
42
0.000000001
43
0.0000000001
44
0.0000000001
40
0
40
0
40
0
40
1
40
1
40
1
10
55.543599217856894
20
132.2295289374805
30
0
10
56.38303344328375
20
132.2295289374805
30
0
10
56.831142218864017
20
131.56914828920867
30
0
0
LINE
5
668
100
AcDbEntity
8
0
100
AcDbLine
10
60.352248224149321
20
74.24098119701361
30
0
11
60.352248224149321
21
72.180387247104846
31
0
0
LINE
5
669
100
AcDbEntity
8
0
100
AcDbLine
10
52.96151568142357
20
68.275816355637119
30
0
11
49.118089912144228
21
71.904357839374939
31
0
0
ARC
5
670
100
AcDbEntity
8
0
100
AcDbCircle
10
-161.79336877693981
20
137.60682091580668
30
0
40
2.001201126964566
210
0
220
0
230
-1
100
AcDbArc
50
179.62487651533198
51
180.37512348466612
0
SPLINE
5
671
100
AcDbEntity
8
0
100
AcDbSpline
70
0
71
2
72
6
73
3
74
0
42
0.000000001
43
0.0000000001
44
0.0000000001
40
0
40
0
40
0
40
1
40
1
40
1
10
49.955781418284737
20
134.80112950092206
30
0
10
49.741773490625292
20
135.22739264047686
30
0
10
49.741773490625292
20
135.7733336115586
30
0
0
SPLINE
5
672
100
AcDbEntity
8
0
100
AcDbSpline
70
0
71
2
72
6
73
3
74
0
42
0.000000001
43
0.0000000001
44
0.0000000001
40
0
40
0
40
0
40
1
40
1
40
1
10
56.406618466436321
20
131.00400075222535
30
0
10
56.113121879931931
20
131.47656757668099
30
0
10
55.609109468659305
20
131.47656757668099
30
0
0
LINE
5
673
100
AcDbEntity
8
0
100
AcDbLine
10
136.71060336464609
20
209.45702450309409
30
0
11
136.33412268424632
21
209.45702450309409
31
0
0
SPLINE
5
674
100
AcDbEntity
8
0
100
AcDbSpline
70
0
71
2
72
6
73
3
74
0
42
0.000000001
43
0.0000000001
44
0.0000000001
40
0
40
0
40
0
40
1
40
1
40
1
10
48.517118331092924
20
125.57603329606587
30
0
10
48.715405131423495
20
125.59525319060444
30
0
10
48.821970916312196
20
125.70356169477948
30
0
0
SPLINE
5
675
100
AcDbEntity
8
0
100
AcDbSpline
70
0
71
2
72
6
73
3
74
0
42
0.000000001
43
0.0000000001
44
0.0000000001
40
0
40
0
40
0
40
1
40
1
40
1
10
55.399470001773096
20
131.45734768214243
30
0
10
55.278925808841862
20
131.43288963326705
30
0
10
55.188954177004845
20
131.37785569113822
30
0
0
SPLINE
5
676
100
AcDbEntity
8
0
100
AcDbSpline
70
0
71
2
72
6
73
3
74
0
42
0.000000001
43
0.0000000001
44
0.0000000001
40
0
40
0
40
0
40
1
40
1
40
1
10
48.723265695087939
20
126.43206500670365
30
0
10
48.606216937207158
20
126.49408315461487
30
0
10
48.428896082860753
20
126.49408315461487
30
0
0
ARC
5
677
100
AcDbEntity
8
0
100
AcDbCircle
10
-52.759673522295259
20
135.68019741010806
30
0
40
2.36370610670118
210
-0
220
0
230
-1
100
AcDbArc
50
-10.354667220611031
51
0.41570765653105857
0
ARC
5
678
100
AcDbEntity
8
0
100
AcDbCircle
10
-55.44668496613555
20
130.95799154719037
30
0
40
0.49265714146757988
210
0
220
0
230
-1
100
AcDbArc
50
31.855473161140033
51
58.456595880741645
0
LINE
5
679
100
AcDbEntity
8
0
100
AcDbLine
10
136.71060336464609
20
207.57548746249955
30
0
11
139.74516080527397
21
207.57548746249955
31
0
0
LINE
5
680
100
AcDbEntity
8
0
100
AcDbLine
10
136.10352393569445
20
212.47324173922468
30
0
11
136.71060336464609
21
212.4732417392247
31
0
0
LINE
5
681
100
AcDbEntity
8
0
100
AcDbLine
10
56.149808953245
20
66.932363054619401
30
0
11
60.352248224149314
21
66.932363054619401
31
0
0
SPLINE
5
682
100
AcDbEntity
8
0
100
AcDbSpline
70
0
71
2
72
6
73
3
74
0
42
0.000000001
43
0.0000000001
44
0.0000000001
40
0
40
0
40
0
40
1
40
1
40
1
10
157.51052784647615
20
133.08032249378152
30
0
10
156.53219256282452
20
133.30830882948351
30
0
10
156.36273227214258
20
134.24383253112546
30
0
0
LINE
5
683
100
AcDbEntity
8
0
100
AcDbLine
10
156.49202005093878
20
135.62746500834768
30
0
11
157.1174396843877
21
135.42480308292539
31
0
0
ARC
5
684
100
AcDbEntity
8
0
100
AcDbCircle
10
-154.83173626306589
20
33.890098147916135
30
0
40
1.4736039007993043
210
-0
220
0
230
-1
100
AcDbArc
50
305.65213433589383
51
347.23296494302735
0
LINE
5
685
100
AcDbEntity
8
0
100
AcDbLine
10
52.287169953745867
20
134.1355106983134
30
0
11
54.983679838732641
21
134.1355106983134
31
0
0
LINE
5
686
100
AcDbEntity
8
0
100
AcDbLine
10
54.983679838732641
20
122.48469586186357
30
0
11
54.983679838732641
21
121.70378434929746
31
0
0
LINE
5
687
100
AcDbEntity
8
0
100
AcDbLine
10
159.15096317257121
20
133.78698016968025
30
0
11
163.70105328206745
21
133.78698016968022
31
0
0
ARC
5
688
100
AcDbEntity
8
0
100
AcDbCircle
10
-57.36133123944456
20
130.50795984668423
30
0
40
3.1970304016281621
210
-0
220
0
230
-1
100
AcDbArc
50
-0.25244426500435496
51
8.4824537813959004
0
LINE
5
689
100
AcDbEntity
8
0
100
AcDbLine
10
53.904899946729685
20
69.372063426414826
30
0
11
60.352248224149321
21
74.24098119701361
31
0
0
ARC
5
690
100
AcDbEntity
8
0
100
AcDbCircle
10
-162.83893381886529
20
33.082292891653339
30
0
40
11.014904732650539
210
0
220
0
230
-1
100
AcDbArc
50
13.856503552476818
51
16.654294280598027
0
SPLINE
5
691
100
AcDbEntity
8
0
100
AcDbSpline
70
0
71
2
72
6
73
3
74
0
42
0.000000001
43
0.0000000001
44
0.0000000001
40
0
40
0
40
0
40
1
40
1
40
1
10
151.98647424626083
20
34.923624664019457
30
0
10
152.04062849834833
20
35.300978370142026
30
0
10
152.1445785382279
20
35.720263968232928
30
0
0
ARC
5
692
100
AcDbEntity
8
0
100
AcDbCircle
10
-51.331943168140562
20
135.90904326492813
30
0
40
0.9294099183329706
210
0
220
0
230
-1
100
AcDbArc
50
47.67374285318472
51
67.309216241869592
0
LINE
5
693
100
AcDbEntity
8
0
100
AcDbLine
10
136.10352393569445
20
207.57548746249955
30
0
11
136.10352393569445
21
209.07181356546633
31
0
0
ARC
5
694
100
AcDbEntity
8
0
100
AcDbCircle
10
-50.11236259214585
20
131.07277123097288
30
0
40
3.0555223453122995
210
0
220
0
230
-1
100
AcDbArc
50
95.080166605012977
51
98.081352421411012
0
SPLINE
5
695
100
AcDbEntity
8
0
100
AcDbSpline
70
0
71
2
72
6
73
3
74
0
42
0.000000001
43
0.0000000001
44
0.0000000001
40
0
40
0
40
0
40
1
40
1
40
1
10
54.601957671836843
20
66.932363054619401
30
0
10
54.123276335162373
20
67.270410610260512
30
0
10
53.415738969222375
20
67.87836972925345
30
0
0
SPLINE
5
696
100
AcDbEntity
8
0
100
AcDbSpline
70
0
71
2
72
6
73
3
74
0
42
0.000000001
43
0.0000000001
44
0.0000000001
40
0
40
0
40
0
40
1
40
1
40
1
10
50.950704190669526
20
122.92931253455264
30
0
10
51.459085062715396
20
122.48469586186357
30
0
10
52.21641488428817
20
122.48469586186357
30
0
0
ARC
5
697
100
AcDbEntity
8
0
100
AcDbCircle
10
-139.75551112932672
20
209.14863691502549
30
0
40
1.5731835014360598
210
0
220
0
230
-1
100
AcDbArc
50
260.24503836711114
51
270.37696439270383
0
LINE
5
698
100
AcDbEntity
8
0
100
AcDbLine
10
156.75494074418975
20
38.545178609815366
30
0
11
158.83563427867838
21
38.739969975095491
31
0
0
SPLINE
5
699
100
AcDbEntity
8
0
100
AcDbSpline
70
0
71
2
72
6
73
3
74
0
42
0.000000001
43
0.0000000001
44
0.0000000001
40
0
40
0
40
0
40
1
40
1
40
1
10
48.933781519856211
20
47.806085530102528
30
0
10
48.933781519856211
20
49.063059302174693
30
0
10
49.282308716330157
20
49.912106807030085
30
0
0
ARC
5
700
100
AcDbEntity
8
0
100
AcDbCircle
10
-161.86180709841167
20
42.845174918799806
30
0
40
4.032975231543209
210
-0
220
0
230
-1
100
AcDbArc
50
311.20399162115854
51
314.4182887118933
0
ARC
5
701
100
AcDbEntity
8
0
100
AcDbCircle
10
-51.491123298237341
20
129.80553820796149
30
0
40
1.9706285658703369
210
0
220
0
230
-1
100
AcDbArc
50
266.17941887428566
51
269.83945229766147
0
ARC
5
702
100
AcDbEntity
8
0
100
AcDbCircle
10
-163.48471592290389
20
50.487246070413335
30
0
40
4.7466291923015707
210
0
220
0
230
-1
100
AcDbArc
50
120.23970247012966
51
131.85283827139421
0
ARC
5
703
100
AcDbEntity
8
0
100
AcDbCircle
10
-56.81366973172662
20
47.815232039887249
30
0
40
7.8798935202333507
210
-0
220
0
230
-1
100
AcDbArc
50
345.35698090053023
51
359.93349446610193
0
ARC
5
704
100
AcDbEntity
8
0
100
AcDbCircle
10
-54.385716200488474
20
44.532064573751384
30
0
40
7.053557179767914
210
0
220
0
230
-1
100
AcDbArc
50
128.25338928763631
51
135.21782316624498
0
ARC
5
705
100
AcDbEntity
8
0
100
AcDbCircle
10
-51.972462465592876
20
48.840667066592466
30
0
40
2.8956709605998556
210
0
220
0
230
-1
100
AcDbArc
50
21.716500842061929
51
42.149737247379441
0
ARC
5
706
100
AcDbEntity
8
0
100
AcDbCircle
10
-57.326971888573397
20
47.102406356591608
30
0
40
3.135011420677138
210
0
220
0
230
-1
100
AcDbArc
50
145.29154479253219
51
155.63596473650114
0
SPLINE
5
707
100
AcDbEntity
8
0
100
AcDbSpline
70
0
71
2
72
6
73
3
74
0
42
0.000000001
43
0.0000000001
44
0.0000000001
40
0
40
0
40
0
40
1
40
1
40
1
10
187.31714548745569
20
217.24082854711236
30
0
10
187.03413853826189
20
217.19977634518528
30
0
10
186.80352646107303
20
217.114166509803
30
0
0
ARC
5
708
100
AcDbEntity
8
0
100
AcDbCircle
10
-161.75621016217505
20
42.741399695932031
30
0
40
3.8853526630085011
210
-0
220
0
230
-1
100
AcDbArc
50
275.45082209983633
51
311.04049900842307
0
SPLINE
5
709
100
AcDbEntity
8
0
100
AcDbSpline
70
0
71
2
72
6
73
3
74
0
42
0.000000001
43
0.0000000001
44
0.0000000001
40
0
40
0
40
0
40
1
40
1
40
1
10
136.98138795372068
20
222.38316331259111
30
0
10
136.67304326561023
20
222.11936292929889
30
0
10
136.67304326561023
20
221.55944021801537
30
0
0
LINE
5
710
100
AcDbEntity
8
0
100
AcDbLine
10
60.352248224149328
20
50.492115774256462
30
0
11
58.752858435662809
21
50.153195192892554
31
0
0
LINE
5
711
100
AcDbEntity
8
0
100
AcDbLine
10
136.10352393569445
20
219.99761719288324
30
0
11
136.80931525018883
21
220.12427923019254
31
0
0
ARC
5
712
100
AcDbEntity
8
0
100
AcDbCircle
10
-51.253875687399756
20
129.57258902396862
30
0
40
0.93727141916720713
210
-0
220
0
230
-1
100
AcDbArc
50
286.96422659487371
51
314.42504898464625
0
ARC
5
713
100
AcDbEntity
8
0
100
AcDbCircle
10
-162.41993653927886
20
46.617435602692929
30
0
40
8.7892131215543561
210
0
220
0
230
-1
100
AcDbArc
50
89.622088770974955
51
100.83016585492155
0
ARC
5
714
100
AcDbEntity
8
0
100
AcDbCircle
10
-55.396912131453888
20
35.92153824688247
30
0
40
5.1606708047770065
210
0
220
0
230
-1
100
AcDbArc
50
179.72285358522598
51
194.26150632376724
0
ARC
5
715
100
AcDbEntity
8
0
100
AcDbCircle
10
-51.490622792049166
20
129.51961340572805
30
0
40
1.6972212550781285
210
0
220
0
230
-1
100
AcDbArc
50
234.18826243068835
51
237.60756309328718
0
SPLINE
5
716
100
AcDbEntity
8
0
100
AcDbSpline
70
0
71
2
72
6
73
3
74
0
42
0.000000001
43
0.0000000001
44
0.0000000001
40
0
40
0
40
0
40
1
40
1
40
1
10
141.35503356675258
20
211.69233022665861
30
0
10
141.35503356675258
20
210.19600412369184
30
0
10
139.77836244001432
20
210.19600412369184
30
0
0
LINE
5
717
100
AcDbEntity
8
0
100
AcDbLine
10
158.29318541048784
20
60.050014716098509
30
0
11
158.29318541048784
21
60.132119119952591
31
0
0
ARC
5
718
100
AcDbEntity
8
0
100
AcDbCircle
10
-52.898601051911427
20
45.20483556530715
30
0
40
4.8872633898548372
210
0
220
0
230
-1
100
AcDbArc
50
81.955524087345296
51
90.256265723321704
0
SPLINE
5
719
100
AcDbEntity
8
0
100
AcDbSpline
70
0
71
2
72
6
73
3
74
0
42
0.000000001
43
0.0000000001
44
0.0000000001
40
0
40
0
40
0
40
1
40
1
40
1
10
59.392259809313501
20
49.500685104762866
30
0
10
59.693620291641565
20
49.193213442375203
30
0
10
59.904139448569069
20
48.887484499273896
30
0
0
ARC
5
720
100
AcDbEntity
8
0
100
AcDbCircle
10
-187.61141887329791
20
215.9687403093306
30
0
40
2.3942786677954033
210
-0
220
0
230
-1
100
AcDbArc
50
-0.53705860822977414
51
15.843229118233156
0
ARC
5
721
100
AcDbEntity
8
0
100
AcDbCircle
10
-52.664232751071367
20
45.057198678365864
30
0
40
6.6954200360246672
210
0
220
0
230
-1
100
AcDbArc
50
83.319659475521959
51
90.181876444577711
0
SPLINE
5
722
100
AcDbEntity
8
0
100
AcDbSpline
70
0
71
2
72
6
73
3
74
0
42
0.000000001
43
0.0000000001
44
0.0000000001
40
0
40
0
40
0
40
1
40
1
40
1
10
189.44063727531696
20
214.68932756825066
30
0
10
189.85992953772637
20
215.01426640941278
30
0
10
189.90360748114028
20
215.69122788209935
30
0
0
ARC
5
723
100
AcDbEntity
8
0
100
AcDbCircle
10
-51.432428719595329
20
129.4432172046721
30
0
40
1.6587870890197312
210
-0
220
0
230
-1
100
AcDbArc
50
318.46432330106728
51
343.78765691044919
0
ARC
5
724
100
AcDbEntity
8
0
100
AcDbCircle
10
-50.614407857418044
20
129.73824019137305
30
0
40
2.5104550247332194
210
0
220
0
230
-1
100
AcDbArc
50
179.93901097767051
51
186.59235738517842
0
SPLINE
5
725
100
AcDbEntity
8
0
100
AcDbSpline
70
0
71
2
72
6
73
3
74
0
42
0.000000001
43
0.0000000001
44
0.0000000001
40
0
40
0
40
0
40
1
40
1
40
1
10
188.81608400327235
20
217.15784445321697
30
0
10
188.4107868097017
20
217.27752228474387
30
0
10
187.87618850869791
20
217.27752228474387
30
0
0
LINE
5
726
100
AcDbEntity
8
0
100
AcDbLine
10
53.679536020355357
20
48.185185287670684
30
0
11
53.617517872444147
21
50.092050070704126
31
0
0
ARC
5
727
100
AcDbEntity
8
0
100
AcDbCircle
10
-160.73533684574949
20
63.403567743044171
30
0
40
4.1430368680022678
210
-0
220
0
230
-1
100
AcDbArc
50
332.36215196073488
51
334.16118380831932
0
ARC
5
728
100
AcDbEntity
8
0
100
AcDbCircle
10
-55.326102688712481
20
46.640808854229618
30
0
40
3.8268278675482099
210
0
220
0
230
-1
100
AcDbArc
50
179.89507335459879
51
183.87382089429056
0
ARC
5
729
100
AcDbEntity
8
0
100
AcDbCircle
10
-139.19291399744935
20
215.73532958911585
30
0
40
2.1785228143507815
210
0
220
0
230
-1
100
AcDbArc
50
120.2450774776359
51
131.85857896953814
0
ARC
5
730
100
AcDbEntity
8
0
100
AcDbCircle
10
-56.049133541416296
20
35.767799561559656
30
0
40
4.4906918717932314
210
0
220
0
230
-1
100
AcDbArc
50
194.41043614158704
51
203.98031365713794
0
ARC
5
731
100
AcDbEntity
8
0
100
AcDbCircle
10
-57.278801461161208
20
47.023298616330521
30
0
40
4.2810507388274042
210
0
220
0
230
-1
100
AcDbArc
50
257.28740099709324
51
270.43816621371553
0
SPLINE
5
732
100
AcDbEntity
8
0
100
AcDbSpline
70
0
71
2
72
6
73
3
74
0
42
0.000000001
43
0.0000000001
44
0.0000000001
40
0
40
0
40
0
40
1
40
1
40
1
10
141.31486105486684
20
212.13693357071068
30
0
10
141.35242115390267
20
211.90633482215878
30
0
10
141.35416720534829
20
211.71853432697958
30
0
0
ARC
5
733
100
AcDbEntity
8
0
100
AcDbCircle
10
-48.308335124869622
20
-3.0537608435720949
30
0
40
35.474807121597188
210
0
220
0
230
-1
100
AcDbArc
50
89.950648967226158
51
91.886616939790926
0
ARC
5
734
100
AcDbEntity
8
0
100
AcDbCircle
10
-55.657534614551672
20
60.395317089241786
30
0
40
4.840094176589508
210
0
220
0
230
-1
100
AcDbArc
50
153.0796813959754
51
167.98254749127108
0
SPLINE
5
735
100
AcDbEntity
8
0
100
AcDbSpline
70
0
71
2
72
6
73
3
74
0
42
0.000000001
43
0.0000000001
44
0.0000000001
40
0
40
0
40
0
40
1
40
1
40
1
10
50.980403726040926
20
128.67610098749617
30
0
10
51.12802837717517
20
128.62806457978672
30
0
10
51.307968308689958
20
128.61321647818065
30
0
0
ARC
5
736
100
AcDbEntity
8
0
100
AcDbCircle
10
-50.333216969267355
20
59.240836772591969
30
0
40
8.7944537750105951
210
0
220
0
230
-1
100
AcDbArc
50
157.6385282579609
51
163.9571609748408
0
LINE
5
737
100
AcDbEntity
8
0
100
AcDbLine
10
162.21872224793944
20
136.09740609131643
30
0
11
159.15096317257121
21
136.09740609131643
31
0
0
ARC
5
738
100
AcDbEntity
8
0
100
AcDbCircle
10
-139.75558580002695
20
212.55007792436285
30
0
40
1.5731835014360331
210
0
220
0
230
-1
100
AcDbArc
50
260.2477977807539
51
270.37968397960589
0
LINE
5
739
100
AcDbEntity
8
0
100
AcDbLine
10
138.55458030620474
20
220.14348579609413
30
0
11
141.26069347414233
21
220.14348579609413
31
0
0
LINE
5
740
100
AcDbEntity
8
0
100
AcDbLine
10
50.614406018633261
20
32.338922050417409
30
0
11
50.614406018633261
21
32.421033118589989
31
0
0
SPLINE
5
741
100
AcDbEntity
8
0
100
AcDbSpline
70
0
71
2
72
6
73
3
74
0
42
0.000000001
43
0.0000000001
44
0.0000000001
40
0
40
0
40
0
40
1
40
1
40
1
10
161.15216471605572
20
53.563360288197416
30
0
10
160.53634170123905
20
53.474261682083196
30
0
10
160.03757077646247
20
53.28733421262676
30
0
0
LINE
5
742
100
AcDbEntity
8
0
100
AcDbLine
10
167.98908905971706
20
58.389479805423569
30
0
11
156.75494074418972
21
58.389479805423562
31
0
0
ARC
5
743
100
AcDbEntity
8
0
100
AcDbCircle
10
-54.716063126805835
20
45.530601664065138
30
0
40
13.109571676942839
210
0
220
0
230
-1
100
AcDbArc
50
269.9603979785619
51
272.38532346938899
0
ARC
5
744
100
AcDbEntity
8
0
100
AcDbCircle
10
-162.54370398730319
20
50.22104627494852
30
0
40
4.2260197123379495
210
0
220
0
230
-1
100
AcDbArc
50
179.73564602249959
51
189.47812588015262
0
ARC
5
745
100
AcDbEntity
8
0
100
AcDbCircle
10
-137.58777215390916
20
221.48451088780422
30
0
40
1.5347492312476567
210
-0
220
0
230
-1
100
AcDbArc
50
300.47889269857723
51
332.90625756134966
0
ARC
5
746
100
AcDbEntity
8
0
100
AcDbCircle
10
-187.90822645618633
20
219.49181127702383
30
0
40
5.1641649902677216
210
0
220
0
230
-1
100
AcDbArc
50
264.31798427739051
51
270.24883670401181
0
SPLINE
5
747
100
AcDbEntity
8
0
100
AcDbSpline
70
0
71
2
72
6
73
3
74
0
42
0.000000001
43
0.0000000001
44
0.0000000001
40
0
40
0
40
0
40
1
40
1
40
1
10
138.55370061616347
20
217.99117749506195
30
0
10
137.41290257624928
20
217.96060160180849
30
0
10
136.72895689778034
20
217.3552548956655
30
0
0
ARC
5
748
100
AcDbEntity
8
0
100
AcDbCircle
10
-187.74865697066332
20
215.94013068030009
30
0
40
2.5314190963778023
210
-0
220
0
230
-1
100
AcDbArc
50
-7.9722993985148189
51
0.13959055911648061
0
ARC
5
749
100
AcDbEntity
8
0
100
AcDbCircle
10
-51.466814677190328
20
130.66155158159742
30
0
40
2.0544850607086733
210
0
220
0
230
-1
100
AcDbArc
50
269.67964864961175
51
274.43435625932392
0
SPLINE
5
750
100
AcDbEntity
8
0
100
AcDbSpline
70
0
71
2
72
6
73
3
74
0
42
0.000000001
43
0.0000000001
44
0.0000000001
40
0
40
0
40
0
40
1
40
1
40
1
10
59.024516050460214
20
39.375882578014213
30
0
10
60.557522562421539
20
38.140747777649011
30
0
10
60.557522562421539
20
35.946500920330031
30
0
0
ARC
5
751
100
AcDbEntity
8
0
100
AcDbCircle
10
-54.320501164713157
20
129.94844490152278
30
0
40
1.3897473018310003
210
-0
220
0
230
-1
100
AcDbArc
50
321.53776440922832
51
332.54278881189043
0
ARC
5
752
100
AcDbEntity
8
0
100
AcDbCircle
10
-54.198608624888671
20
59.69651207598919
30
0
40
6.3591206144286794
210
0
220
0
230
-1
100
AcDbArc
50
179.5380592870336
51
193.60385073519276
0
LINE
5
753
100
AcDbEntity
8
0
100
AcDbLine
10
187.71110001094843
20
214.32769498945697
30
0
11
187.88579845596718
21
214.32769498945697
31
0
0
SPLINE
5
754
100
AcDbEntity
8
0
100
AcDbSpline
70
0
71
2
72
6
73
3
74
0
42
0.000000001
43
0.0000000001
44
0.0000000001
40
0
40
0
40
0
40
1
40
1
40
1
10
137.4819182585799
20
220.29023408934631
30
0
10
137.83829935439977
20
220.16445174207828
30
0
10
138.37201796536232
20
220.14611153758099
30
0
0
ARC
5
755
100
AcDbEntity
8
0
100
AcDbCircle
10
-53.097478753841372
20
35.525239610297497
30
0
40
2.9122676127709686
210
-0
220
0
230
-1
100
AcDbArc
50
288.76765602447307
51
306.68226015694256
0
ARC
5
756
100
AcDbEntity
8
0
100
AcDbCircle
10
-137.89828736140345
20
221.53257609664962
30
0
40
1.3102583305961248
210
-0
220
0
230
-1
100
AcDbArc
50
288.5285008129909
51
306.85407931423777
0
SPLINE
5
757
100
AcDbEntity
8
0
100
AcDbSpline
70
0
71
2
72
6
73
3
74
0
42
0.000000001
43
0.0000000001
44
0.0000000001
40
0
40
0
40
0
40
1
40
1
40
1
10
137.90556898528476
20
222.64608400584206
30
0
10
137.28886628042684
20
222.64608400584206
30
0
10
136.98138795372068
20
222.38316331259111
30
0
0
ARC
5
758
100
AcDbEntity
8
0
100
AcDbCircle
10
-56.801185138840609
20
47.729180711995909
30
0
40
7.8449533314057032
210
-0
220
0
230
-1
100
AcDbArc
50
331.64801489921564
51
343.62494522150666
0
ARC
5
759
100
AcDbEntity
8
0
100
AcDbCircle
10
-161.23759941519268
20
49.995623283917787
30
0
40
3.503630912632608
210
0
220
0
230
-1
100
AcDbArc
50
52.552774424531222
51
69.970128926638594
0
ARC
5
760
100
AcDbEntity
8
0
100
AcDbCircle
10
-187.88382554259027
20
213.00084122235475
30
0
40
5.0864227993882993
210
0
220
0
230
-1
100
AcDbArc
50
85.017491173723954
51
90.022223794036137
0
ARC
5
761
100
AcDbEntity
8
0
100
AcDbCircle
10
-138.69088304263863
20
213.06899200369602
30
0
40
4.1142111913934691
210
0
220
0
230
-1
100
AcDbArc
50
89.816922600709262
51
96.472676560828788
0
SPLINE
5
762
100
AcDbEntity
8
0
100
AcDbSpline
70
0
71
2
72
6
73
3
74
0
42
0.000000001
43
0.0000000001
44
0.0000000001
40
0
40
0
40
0
40
1
40
1
40
1
10
52.214668832842591
20
50.044006998676196
30
0
10
51.416283477183526
20
49.927831266518211
30
0
10
50.96817470160326
20
49.523397102192632
30
0
0
ARC
5
763
100
AcDbEntity
8
0
100
AcDbCircle
10
-139.04284479740323
20
215.62329135581874
30
0
40
3.0336848314249814
210
-0
220
0
230
-1
100
AcDbArc
50
-10.119523608019568
51
0.2273230781376353
0
ARC
5
764
100
AcDbEntity
8
0
100
AcDbCircle
10
-138.6526040666283
20
217.30976177360867
30
0
40
4.055686395933173
210
0
220
0
230
-1
100
AcDbArc
50
269.64493921811089
51
280.79008982824587
0
LINE
5
765
100
AcDbEntity
8
0
100
AcDbLine
10
189.80489559559754
20
214.32769498945697
30
0
11
189.80489559559754
21
214.27091499588255
31
0
0
ARC
5
766
100
AcDbEntity
8
0
100
AcDbCircle
10
-57.753154108665655
20
46.796636235139303
30
0
40
2.6135287067307362
210
-0
220
0
230
-1
100
AcDbArc
50
328.29641393118624
51
336.38901452414308
0
LINE
5
767
100
AcDbEntity
8
0
100
AcDbLine
10
162.09555231352138
20
60.09106691802554
30
0
11
167.98908905971712
21
60.091066918025547
31
0
0
ARC
5
768
100
AcDbEntity
8
0
100
AcDbCircle
10
-52.827736559822128
20
35.594113796232939
30
0
40
3.8687560108373891
210
-0
220
0
230
-1
100
AcDbArc
50
304.8970703032391
51
354.81075544157926
0
SPLINE
5
769
100
AcDbEntity
8
0
100
AcDbSpline
70
0
71
2
72
6
73
3
74
0
42
0.000000001
43
0.0000000001
44
0.0000000001
40
0
40
0
40
0
40
1
40
1
40
1
10
136.71322910613296
20
213.88482436821349
30
0
10
137.17967808621052
20
213.4664117958454
30
0
10
137.8933332965286
20
213.3257813469713
30
0
0
LINE
5
770
100
AcDbEntity
8
0
100
AcDbLine
10
141.26069347414233
20
226.71662308510025
30
0
11
141.26069347414233
21
225.93569824389718
31
0
0
ARC
5
771
100
AcDbEntity
8
0
100
AcDbCircle
10
-138.88660129597784
20
215.63923060639939
30
0
40
1.81427095012872
210
0
220
0
230
-1
100
AcDbArc
50
165.28647514791712
51
180.56482099498271
0
ARC
5
772
100
AcDbEntity
8
0
100
AcDbCircle
10
-55.850636033462806
20
44.693791493264676
30
0
40
5.3572094710624443
210
0
220
0
230
-1
100
AcDbArc
50
89.911244255186787
51
90.088755744812929
0
LINE
5
773
100
AcDbEntity
8
0
100
AcDbLine
10
58.906590934697391
20
32.297866516331119
30
0
11
60.352248224149328
21
31.938856346865077
31
0
0
ARC
5
774
100
AcDbEntity
8
0
100
AcDbCircle
10
-57.635601259701019
20
45.582233131397388
30
0
40
2.7969646980758216
210
0
220
0
230
-1
100
AcDbArc
50
222.54527825120573
51
257.92104262230981
0
ARC
5
775
100
AcDbEntity
8
0
100
AcDbCircle
10
-57.086768892064363
20
46.357619620797017
30
0
40
1.8160180428740884
210
-0
220
0
230
-1
100
AcDbArc
50
277.59105242644642
51
329.03167263182087
0
ARC
5
776
100
AcDbEntity
8
0
100
AcDbCircle
10
-57.521176825076992
20
46.072699835208738
30
0
40
1.5155321482184623
210
0
220
0
230
-1
100
AcDbArc
50
220.665574702058
51
227.32532932008354
0
LINE
5
777
100
AcDbEntity
8
0
100
AcDbLine
10
156.75494074418975
20
35.091338903255817
30
0
11
158.07742143490509
21
35.091338903255817
31
0
0
LINE
5
778
100
AcDbEntity
8
0
100
AcDbLine
10
54.827321598211178
20
50.050994536617836
30
0
11
54.898949693391685
21
48.349407424015851
31
0
0
LINE
5
779
100
AcDbEntity
8
0
100
AcDbLine
10
141.26069347414233
20
219.36170792212374
30
0
11
136.10352393569445
21
219.36170792212374
31
0
0
SPLINE
5
780
100
AcDbEntity
8
0
100
AcDbSpline
70
0
71
2
72
6
73
3
74
0
42
0.000000001
43
0.0000000001
44
0.0000000001
40
0
40
0
40
0
40
1
40
1
40
1
10
57.989414101871184
20
38.078726297578555
30
0
10
56.84687001051141
20
38.847412117866213
30
0
10
54.704158328111554
20
38.847412117866213
30
0
0
LINE
5
781
100
AcDbEntity
8
0
100
AcDbLine
10
156.75494074418972
20
58.389479805423562
30
0
11
156.75494074418972
21
59.773112282645791
31
0
0
ARC
5
782
100
AcDbEntity
8
0
100
AcDbCircle
10
-190.68128964454843
20
208.13369767833922
30
0
40
6.1940279514801624
210
0
220
0
230
-1
100
AcDbArc
50
86.949951508415509
51
89.819781994994969
0
ARC
5
783
100
AcDbEntity
8
0
100
AcDbCircle
10
-137.35724627792453
20
225.35910598580713
30
0
40
1.2875471662062195
210
0
220
0
230
-1
100
AcDbArc
50
27.345451133094382
51
45.764319296126011
0
ARC
5
784
100
AcDbEntity
8
0
100
AcDbCircle
10
-138.84638064145173
20
215.58552637390974
30
0
40
2.5087079319878658
210
0
220
0
230
-1
100
AcDbArc
50
179.6205792163619
51
196.48520534816987
0
ARC
5
785
100
AcDbEntity
8
0
100
AcDbCircle
10
-51.786328928252431
20
48.935240139964009
30
0
40
2.6947646665809892
210
0
220
0
230
-1
100
AcDbArc
50
43.314816857968019
51
70.73947642227273
0
ARC
5
786
100
AcDbEntity
8
0
100
AcDbCircle
10
-188.49301862963955
20
215.60947077486543
30
0
40
1.5574603956375996
210
0
220
0
230
-1
100
AcDbArc
50
124.14761517691339
51
125.99353308935197
0
ARC
5
787
100
AcDbEntity
8
0
100
AcDbCircle
10
-139.16893053688153
20
215.49951557853154
30
0
40
2.1750288371199717
210
0
220
0
230
-1
100
AcDbArc
50
196.7237141691725
51
211.16325258514243
0
ARC
5
788
100
AcDbEntity
8
0
100
AcDbCircle
10
-56.551383787508193
20
35.246687161703257
30
0
40
2.5663592852054546
210
0
220
0
230
-1
100
AcDbArc
50
232.53114443361994
51
241.53593548736043
0
SPLINE
5
789
100
AcDbEntity
8
0
100
AcDbSpline
70
0
71
2
72
6
73
3
74
0
42
0.000000001
43
0.0000000001
44
0.0000000001
40
0
40
0
40
0
40
1
40
1
40
1
10
189.81275949142122
20
216.36383089049036
30
0
10
189.68958955700313
20
216.65820716703607
30
0
10
189.40832865925489
20
216.86958602104937
30
0
0
LINE
5
790
100
AcDbEntity
8
0
100
AcDbLine
10
138.38074822259031
20
223.42787520844945
30
0
11
141.26069347414233
21
223.42787520844945
31
0
0
SPLINE
5
791
100
AcDbEntity
8
0
100
AcDbSpline
70
0
71
2
72
6
73
3
74
0
42
0.000000001
43
0.0000000001
44
0.0000000001
40
0
40
0
40
0
40
1
40
1
40
1
10
50.506963875862525
20
48.815856404093395
30
0
10
50.337503585180556
20
48.351153475461444
30
0
10
50.337503585180556
20
47.703884873827818
30
0
0
LINE
5
792
100
AcDbEntity
8
0
100
AcDbLine
10
136.80931525018883
20
220.12427923019254
30
0
11
136.80931525018883
21
220.1618393292284
31
0
0
ARC
5
793
100
AcDbEntity
8
0
100
AcDbCircle
10
-139.17602707057716
20
215.4463618508122
30
0
40
1.6771306256762615
210
0
220
0
230
-1
100
AcDbArc
50
107.3814057860407
51
127.0024044356214
0
ARC
5
794
100
AcDbEntity
8
0
100
AcDbCircle
10
-160.82916034413313
20
50.570864505189746
30
0
40
2.7987117908211867
210
0
220
0
230
-1
100
AcDbArc
50
9.5913119884915847
51
52.030751186173482
0
ARC
5
795
100
AcDbEntity
8
0
100
AcDbCircle
10
-138.54149961876095
20
225.5819154959828
30
0
40
5.4384454309127195
210
0
220
0
230
-1
100
AcDbArc
50
269.86219059916891
51
271.78583310775622
0
LINE
5
796
100
AcDbEntity
8
0
100
AcDbLine
10
167.98908905971706
20
32.231479907646687
30
0
11
167.98908905971706
21
30.529892795044702
31
0
0
SPLINE
5
797
100
AcDbEntity
8
0
100
AcDbSpline
70
0
71
2
72
6
73
3
74
0
42
0.000000001
43
0.0000000001
44
0.0000000001
40
0
40
0
40
0
40
1
40
1
40
1
10
54.898949693391678
20
48.349407424015851
30
0
10
54.959221789857295
20
46.654804517196254
30
0
10
55.358414467686828
20
45.749853376648495
30
0
0
LINE
5
798
100
AcDbEntity
8
0
100
AcDbLine
10
158.07742143490509
20
28.520830687895806
30
0
11
157.30874561109516
21
28.520830687895806
31
0
0
ARC
5
799
100
AcDbEntity
8
0
100
AcDbCircle
10
-162.81810781530999
20
50.277022707787964
30
0
40
3.9517392716929556
210
0
220
0
230
-1
100
AcDbArc
50
165.24449699629116
51
180.5289017663755
0
SPLINE
5
800
100
AcDbEntity
8
0
100
AcDbSpline
70
0
71
2
72
6
73
3
74
0
42
0.000000001
43
0.0000000001
44
0.0000000001
40
0
40
0
40
0
40
1
40
1
40
1
10
136.06945593954978
20
222.26173942961861
30
0
10
136.23891623023175
20
222.99286848302967
30
0
10
136.88443544826052
20
223.26714517499545
30
0
0
ARC
5
801
100
AcDbEntity
8
0
100
AcDbCircle
10
-162.28679567595117
20
50.242030044862496
30
0
40
4.2915328787796785
210
-0
220
0
230
-1
100
AcDbArc
50
-0.2880495502855539
51
10.677708281141694
0
LINE
5
802
100
AcDbEntity
8
0
100
AcDbLine
10
158.07742143490506
20
30.529892795044699
30
0
11
158.07742143490509
21
28.520830687895806
31
0
0
ARC
5
803
100
AcDbEntity
8
0
100
AcDbCircle
10
-57.836196766358455
20
48.054946764853632
30
0
40
8.9298469025877143
210
-0
220
0
230
-1
100
AcDbArc
50
343.49176019339313
51
345.52740792966097
0
ARC
5
804
100
AcDbEntity
8
0
100
AcDbCircle
10
-138.68023737002849
20
213.40876695585197
30
0
40
4.5841572726010691
210
0
220
0
230
-1
100
AcDbArc
50
88.418260434564189
51
89.968747647326168
0
LINE
5
805
100
AcDbEntity
8
0
100
AcDbLine
10
51.198780114473635
20
44.526071242838945
30
0
11
49.897258705423994
21
44.003715294909782
31
0
0
SPLINE
5
806
100
AcDbEntity
8
0
100
AcDbSpline
70
0
71
2
72
6
73
3
74
0
42
0.000000001
43
0.0000000001
44
0.0000000001
40
0
40
0
40
0
40
1
40
1
40
1
10
158.07916748635066
20
62.529894264098182
30
0
10
158.18225116482589
20
61.993563240285738
30
0
10
158.4093578104866
20
61.580395486572925
30
0
0
SPLINE
5
807
100
AcDbEntity
8
0
100
AcDbSpline
70
0
71
2
72
6
73
3
74
0
42
0.000000001
43
0.0000000001
44
0.0000000001
40
0
40
0
40
0
40
1
40
1
40
1
10
50.337503585180556
20
47.703884873827818
30
0
10
50.337503585180556
20
46.57444283262852
30
0
10
50.89392752925437
20
45.207407840617215
30
0
0
SPLINE
5
808
100
AcDbEntity
8
0
100
AcDbSpline
70
0
71
2
72
6
73
3
74
0
42
0.000000001
43
0.0000000001
44
0.0000000001
40
0
40
0
40
0
40
1
40
1
40
1
10
57.825191965526024
20
44.586343339304548
30
0
10
58.253214485163411
20
44.687670969856455
30
0
10
58.548457123113387
20
44.958458891090316
30
0
0
LINE
5
809
100
AcDbEntity
8
0
100
AcDbLine
10
141.26069347414233
20
225.93569824389718
30
0
11
137.90556898528476
21
225.93569824389718
31
0
0
SPLINE
5
810
100
AcDbEntity
8
0
100
AcDbSpline
70
0
71
2
72
6
73
3
74
0
42
0.000000001
43
0.0000000001
44
0.0000000001
40
0
40
0
40
0
40
1
40
1
40
1
10
59.039364152066298
20
45.778679886297112
30
0
10
59.120602194516081
20
46.05295991042216
30
0
10
59.144187217668645
20
46.3822705445168
30
0
0
LINE
5
811
100
AcDbEntity
8
0
100
AcDbLine
10
58.906590934697391
20
32.421033118589989
30
0
11
58.906590934697391
21
32.297866516331119
31
0
0
ARC
5
812
100
AcDbEntity
8
0
100
AcDbCircle
10
-190.72469705514553
20
206.93676381632994
30
0
40
7.3916039023691944
210
0
220
0
230
-1
100
AcDbArc
50
82.851658365471039
51
87.107623033676759
0
ARC
5
813
100
AcDbEntity
8
0
100
AcDbCircle
10
-188.29794987759854
20
215.3417935527296
30
0
40
1.8885189555174278
210
0
220
0
230
-1
100
AcDbArc
50
105.92388003342919
51
124.48690778242774
0
LINE
5
814
100
AcDbEntity
8
0
100
AcDbLine
10
158.07742143490509
20
35.091338903255817
30
0
11
158.07742143490509
21
32.231479907646687
31
0
0
SPLINE
5
815
100
AcDbEntity
8
0
100
AcDbSpline
70
0
71
2
72
6
73
3
74
0
42
0.000000001
43
0.0000000001
44
0.0000000001
40
0
40
0
40
0
40
1
40
1
40
1
10
158.94918093719019
20
60.911291245391581
30
0
10
159.82007407807106
20
60.161821987483243
30
0
10
161.72605583890399
20
60.097184762403629
30
0
0
ARC
5
816
100
AcDbEntity
8
0
100
AcDbCircle
10
-54.780007161834774
20
30.634865159964878
30
0
40
9.9763065159712507
210
0
220
0
230
-1
100
AcDbArc
50
89.684795801776744
51
99.363498194425276
0
SPLINE
5
817
100
AcDbEntity
8
0
100
AcDbSpline
70
0
71
2
72
6
73
3
74
0
42
0.000000001
43
0.0000000001
44
0.0000000001
40
0
40
0
40
0
40
1
40
1
40
1
10
60.182787933467374
20
48.395701112438942
30
0
10
60.557522562421539
20
47.560632015626084
30
0
10
60.557522562421539
20
46.30976942361351
30
0
0
ARC
5
818
100
AcDbEntity
8
0
100
AcDbCircle
10
-160.13610903284894
20
63.042855666905325
30
0
40
3.4451059089123612
210
-0
220
0
230
-1
100
AcDbArc
50
302.33981622259074
51
333.05374284684524
0
ARC
5
819
100
AcDbEntity
8
0
100
AcDbCircle
10
-54.468434772339876
20
46.6814652172853
30
0
40
4.684610211350555
210
0
220
0
230
-1
100
AcDbArc
50
167.95139566234144
51
180.41154301378796
0
ARC
5
820
100
AcDbEntity
8
0
100
AcDbCircle
10
-57.257024645713692
20
46.281219867511119
30
0
40
1.8518316739444347
210
0
220
0
230
-1
100
AcDbArc
50
195.74607677062608
51
220.23349294417136
0
LINE
5
821
100
AcDbEntity
8
0
100
AcDbLine
10
167.98908905971706
20
30.529892795044702
30
0
11
158.07742143490506
21
30.529892795044699
31
0
0
ARC
5
822
100
AcDbEntity
8
0
100
AcDbCircle
10
-161.58723892674465
20
50.230262528030977
30
0
40
6.6071961217128763
210
0
220
0
230
-1
100
AcDbArc
50
170.2130042983141
51
180.266832631993
0
SPLINE
5
823
100
AcDbEntity
8
0
100
AcDbSpline
70
0
71
2
72
6
73
3
74
0
42
0.000000001
43
0.0000000001
44
0.0000000001
40
0
40
0
40
0
40
1
40
1
40
1
10
56.403126363545141
20
40.478247493169739
30
0
10
57.993779230485181
20
40.206586546213074
30
0
10
59.024516050460214
20
39.375882578014213
30
0
0
ARC
5
824
100
AcDbEntity
8
0
100
AcDbCircle
10
-52.140348659555045
20
48.255224184234926
30
0
40
1.726920478059629
210
0
220
0
230
-1
100
AcDbArc
50
18.943932756258004
51
47.252753770460636
0
ARC
5
825
100
AcDbEntity
8
0
100
AcDbCircle
10
-139.22354520984715
20
215.47333779154928
30
0
40
2.1147569489143261
210
0
220
0
230
-1
100
AcDbArc
50
211.32206492710171
51
242.19885252607602
0
SPLINE
5
826
100
AcDbEntity
8
0
100
AcDbSpline
70
0
71
2
72
6
73
3
74
0
42
0.000000001
43
0.0000000001
44
0.0000000001
40
0
40
0
40
0
40
1
40
1
40
1
10
190.56309511073385
20
215.94629800816358
30
0
10
190.56309511073385
20
215.44228892905016
30
0
10
190.37704066700024
20
215.02648876953199
30
0
0
ARC
5
827
100
AcDbEntity
8
0
100
AcDbCircle
10
-54.133488911331533
20
35.99961123392152
30
0
40
5.1999786213380714
210
-0
220
0
230
-1
100
AcDbArc
50
-0.58520427630138216
51
15.743123266575019
0
LINE
5
828
100
AcDbEntity
8
0
100
AcDbLine
10
190.66180699627662
20
214.32769498945697
30
0
11
192.7835527326923
21
214.32769498945697
31
0
0
ARC
5
829
100
AcDbEntity
8
0
100
AcDbCircle
10
-187.91375543506041
20
215.94254224356473
30
0
40
2.6493423378010714
210
0
220
0
230
-1
100
AcDbArc
50
174.29886251329037
51
179.91877624520166
0
ARC
5
830
100
AcDbEntity
8
0
100
AcDbCircle
10
-188.70546508800703
20
216.07420030801893
30
0
40
1.8492113472163261
210
0
220
0
230
-1
100
AcDbArc
50
128.59601691620259
51
175.92135874770275
0
LINE
5
831
100
AcDbEntity
8
0
100
AcDbLine
10
192.7835527326923
20
214.32769498945697
30
0
11
192.7835527326923
21
213.54590378684958
31
0
0
LINE
5
832
100
AcDbEntity
8
0
100
AcDbLine
10
156.75494074418975
20
32.231479907646687
30
0
11
156.75494074418975
21
35.091338903255817
31
0
0
SPLINE
5
833
100
AcDbEntity
8
0
100
AcDbSpline
70
0
71
2
72
6
73
3
74
0
42
0.000000001
43
0.0000000001
44
0.0000000001
40
0
40
0
40
0
40
1
40
1
40
1
10
50.897422964304809
20
51.479174650817555
30
0
10
51.338540869784183
20
51.641647403557876
30
0
10
51.885354866588713
20
51.707160986519526
30
0
0
SPLINE
5
834
100
AcDbEntity
8
0
100
AcDbSpline
70
0
71
2
72
6
73
3
74
0
42
0.000000001
43
0.0000000001
44
0.0000000001
40
0
40
0
40
0
40
1
40
1
40
1
10
139.67703814162167
20
217.04691020755502
30
0
10
139.4420542715003
20
217.12377645707232
30
0
10
139.154675529374
20
217.15697809181265
30
0
0
ARC
5
835
100
AcDbEntity
8
0
100
AcDbCircle
10
-188.72538315404
20
215.62577906665581
30
0
40
1.1783589719898484
210
0
220
0
230
-1
100
AcDbArc
50
232.62769994803926
51
241.63760765317363
0
ARC
5
836
100
AcDbEntity
8
0
100
AcDbCircle
10
-138.68289859388793
20
224.83538907029759
30
0
40
2.0099363824314165
210
-0
220
0
230
-1
100
AcDbArc
50
-11.235448906214865
51
0.51455946579319678
0
ARC
5
837
100
AcDbEntity
8
0
100
AcDbCircle
10
-138.68834075804136
20
217.1613292478655
30
0
40
3.9071903851557535
210
0
220
0
230
-1
100
AcDbArc
50
260.84267543457327
51
270.15549699695055
0
ARC
5
838
100
AcDbEntity
8
0
100
AcDbCircle
10
-52.736943336979927
20
34.984196088503907
30
0
40
2.263252959691739
210
-0
220
0
230
-1
100
AcDbArc
50
307.54484019508783
51
329.82517113807569
0
SPLINE
5
839
100
AcDbEntity
8
0
100
AcDbSpline
70
0
71
2
72
6
73
3
74
0
42
0.000000001
43
0.0000000001
44
0.0000000001
40
0
40
0
40
0
40
1
40
1
40
1
10
136.67304326561023
20
221.55944021801537
30
0
10
136.67304326561023
20
221.04756724307833
30
0
10
136.88706118974744
20
220.7261205048074
30
0
0
LINE
5
840
100
AcDbEntity
8
0
100
AcDbLine
10
55.84233729085733
20
50.050994536617836
30
0
11
54.827321598211178
21
50.050994536617836
31
0
0
SPLINE
5
841
100
AcDbEntity
8
0
100
AcDbSpline
70
0
71
2
72
6
73
3
74
0
42
0.000000001
43
0.0000000001
44
0.0000000001
40
0
40
0
40
0
40
1
40
1
40
1
10
137.90556898528476
20
225.93569824389718
30
0
10
137.28886628042684
20
225.93569824389718
30
0
10
136.98138795372068
20
225.67189786060496
30
0
0
ARC
5
842
100
AcDbEntity
8
0
100
AcDbCircle
10
-137.97113409092628
20
224.89995001134818
30
0
40
1.9592729836753415
210
-0
220
0
230
-1
100
AcDbArc
50
329.97799501880905
51
331.7620249023899
0
ARC
5
843
100
AcDbEntity
8
0
100
AcDbCircle
10
-138.09572969622127
20
215.4198780090606
30
0
40
2.0658406429036371
210
-0
220
0
230
-1
100
AcDbArc
50
312.00684457954634
51
350.81903033111911
0
LINE
5
844
100
AcDbEntity
8
0
100
AcDbLine
10
156.75494074418972
20
59.773112282645791
30
0
11
158.29318541048784
21
60.050014716098509
31
0
0
ARC
5
845
100
AcDbEntity
8
0
100
AcDbCircle
10
-53.561837400539829
20
35.457409228003897
30
0
40
5.0139216784850014
210
0
220
0
230
-1
100
AcDbArc
50
51.576194504052495
51
73.510315703038756
0
ARC
5
846
100
AcDbEntity
8
0
100
AcDbCircle
10
-138.64276940200324
20
215.62243541024327
30
0
40
1.9697551236276387
210
-0
220
0
230
-1
100
AcDbArc
50
-0.31083895224925423
51
10.676231120001059
0
ARC
5
847
100
AcDbEntity
8
0
100
AcDbCircle
10
-52.871897623019926
20
36.340618630610876
30
0
40
3.8932140597127591
210
0
220
0
230
-1
100
AcDbArc
50
15.950420743624568
51
51.45304526095503
0
ARC
5
848
100
AcDbEntity
8
0
100
AcDbCircle
10
-162.04471012210308
20
50.18240176554027
30
0
40
4.0495718837143455
210
-0
220
0
230
-1
100
AcDbArc
50
-13.871201632114831
51
0.53840553686424597
0
ARC
5
849
100
AcDbEntity
8
0
100
AcDbCircle
10
-57.256930065674993
20
47.21382880038874
30
0
40
2.6877765038594843
210
0
220
0
230
-1
100
AcDbArc
50
269.78486868857203
51
278.77558920734697
0
ARC
5
850
100
AcDbEntity
8
0
100
AcDbCircle
10
-138.1491392139649
20
215.74350930900576
30
0
40
1.6151117488552156
210
-0
220
0
230
-1
100
AcDbArc
50
287.55992901516129
51
307.04241963199462
0
ARC
5
851
100
AcDbEntity
8
0
100
AcDbCircle
10
-138.63395989434497
20
215.65916475492759
30
0
40
2.6248842889257054
210
-0
220
0
230
-1
100
AcDbArc
50
-0.52032326898637749
51
16.524829811835499
0
ARC
5
852
100
AcDbEntity
8
0
100
AcDbCircle
10
-163.15851603005444
20
50.237344776071012
30
0
40
6.6080695639555698
210
-0
220
0
230
-1
100
AcDbArc
50
-10.0514239487079
51
0.29282575709108072
0
LINE
5
853
100
AcDbEntity
8
0
100
AcDbLine
10
141.26069347414233
20
220.14348579609413
30
0
11
141.26069347414233
21
219.36170792212374
31
0
0
ARC
5
854
100
AcDbEntity
8
0
100
AcDbCircle
10
-61.4419768536807
20
49.51808597834733
30
0
40
11.394880015060929
210
-0
220
0
230
-1
100
AcDbArc
50
334.01774341559349
51
337.77160657562172
0
ARC
5
855
100
AcDbEntity
8
0
100
AcDbCircle
10
-54.293510691433504
20
35.729301868509836
30
0
40
3.9351426195218515
210
-0
220
0
230
-1
100
AcDbArc
50
-0.41143776797050724
51
11.285917710204204
0
ARC
5
856
100
AcDbEntity
8
0
100
AcDbCircle
10
-138.56670295678708
20
221.70929117168217
30
0
40
2.5576242379985308
210
-0
220
0
230
-1
100
AcDbArc
50
-0.51948414569287804
51
12.47423434839491
0
ARC
5
857
100
AcDbEntity
8
0
100
AcDbCircle
10
-161.04870574737168
20
50.663186963329835
30
0
40
4.4540047984801747
210
0
220
0
230
-1
100
AcDbArc
50
16.792736555634391
51
48.861301489888717
0
LINE
5
858
100
AcDbEntity
8
0
100
AcDbLine
10
141.26069347414233
20
223.42787520844945
30
0
11
141.26069347414233
21
222.64608400584206
31
0
0
SPLINE
5
859
100
AcDbEntity
8
0
100
AcDbSpline
70
0
71
2
72
6
73
3
74
0
42
0.000000001
43
0.0000000001
44
0.0000000001
40
0
40
0
40
0
40
1
40
1
40
1
10
52.138672276888855
20
40.265112591233091
30
0
10
53.255012267927668
20
40.611020710538654
30
0
10
54.725124274095727
20
40.611020710538654
30
0
0
LINE
5
860
100
AcDbEntity
8
0
100
AcDbLine
10
157.30874561109516
20
28.520830687895806
30
0
11
156.69378895768284
21
30.529892795044702
31
0
0
LINE
5
861
100
AcDbEntity
8
0
100
AcDbLine
10
60.352248224149328
20
31.938856346865077
30
0
11
60.352248224149328
21
30.719442673828759
31
0
0
SPLINE
5
862
100
AcDbEntity
8
0
100
AcDbSpline
70
0
71
2
72
6
73
3
74
0
42
0.000000001
43
0.0000000001
44
0.0000000001
40
0
40
0
40
0
40
1
40
1
40
1
10
140.18279327218065
20
214.45871549106181
30
0
10
140.70078409149579
20
214.85441606600011
30
0
10
140.70078409149579
20
215.62134583836442
30
0
0
LINE
5
863
100
AcDbEntity
8
0
100
AcDbLine
10
158.07742143490509
20
32.231479907646687
30
0
11
167.98908905971706
21
32.231479907646687
31
0
0
SPLINE
5
864
100
AcDbEntity
8
0
100
AcDbSpline
70
0
71
2
72
6
73
3
74
0
42
0.000000001
43
0.0000000001
44
0.0000000001
40
0
40
0
40
0
40
1
40
1
40
1
10
49.476227055887485
20
32.401816556210662
30
0
10
50.080694071989228
20
32.380850610226503
30
0
10
50.614406018633261
20
32.338922050417409
30
0
0
SPLINE
5
865
100
AcDbEntity
8
0
100
AcDbSpline
70
0
71
2
72
6
73
3
74
0
42
0.000000001
43
0.0000000001
44
0.0000000001
40
0
40
0
40
0
40
1
40
1
40
1
10
162.36196510966349
20
55.406457539714808
30
0
10
159.68642783497936
20
55.406457539714808
30
0
10
158.11848696546909
20
54.017583575996525
30
0
0
ARC
5
866
100
AcDbEntity
8
0
100
AcDbCircle
10
-162.39454181586859
20
44.680740967025187
30
0
40
8.9630402069299375
210
0
220
0
230
-1
100
AcDbArc
50
89.791754600854375
51
96.455813065218848
0
ARC
5
867
100
AcDbEntity
8
0
100
AcDbCircle
10
-54.659053717762916
20
28.795211071527088
30
0
40
10.052302238885177
210
0
220
0
230
-1
100
AcDbArc
50
83.717320863448691
51
90.25708662751083
0
ARC
5
868
100
AcDbEntity
8
0
100
AcDbCircle
10
-137.93685357401617
20
215.43851959456873
30
0
40
1.2438719301716263
210
-0
220
0
230
-1
100
AcDbArc
50
307.70036507033905
51
346.53010516359177
0
SPLINE
5
869
100
AcDbEntity
8
0
100
AcDbSpline
70
0
71
2
72
6
73
3
74
0
42
0.000000001
43
0.0000000001
44
0.0000000001
40
0
40
0
40
0
40
1
40
1
40
1
10
56.858226009226286
20
49.939187265233087
30
0
10
56.400507286376744
20
50.049248485172235
30
0
10
55.858934776068267
20
50.050994536617836
30
0
0
SPLINE
5
870
100
AcDbEntity
8
0
100
AcDbSpline
70
0
71
2
72
6
73
3
74
0
42
0.000000001
43
0.0000000001
44
0.0000000001
40
0
40
0
40
0
40
1
40
1
40
1
10
54.725124274095727
20
32.421033118589989
30
0
10
56.735935764849465
20
32.421033118589989
30
0
10
57.774529816329689
20
32.990559112824286
30
0
0
SPLINE
5
871
100
AcDbEntity
8
0
100
AcDbSpline
70
0
71
2
72
6
73
3
74
0
42
0.000000001
43
0.0000000001
44
0.0000000001
40
0
40
0
40
0
40
1
40
1
40
1
10
52.160511248595817
20
32.767814263618348
30
0
10
52.958020246372833
20
32.483924292224003
30
0
10
54.170446381467514
20
32.432389117304872
30
0
0
ARC
5
872
100
AcDbEntity
8
0
100
AcDbCircle
10
-53.66120697879677
20
35.729688282552416
30
0
40
5.4707652930122244
210
0
220
0
230
-1
100
AcDbArc
50
179.87001504805087
51
183.54990491533357
0
ARC
5
873
100
AcDbEntity
8
0
100
AcDbCircle
10
-138.53178321734248
20
215.59451619860459
30
0
40
1.8588198366659359
210
-0
220
0
230
-1
100
AcDbArc
50
-13.874488469547261
51
0.53119377371873677
0
ARC
5
874
100
AcDbEntity
8
0
100
AcDbCircle
10
-138.99193994340368
20
215.86262029517479
30
0
40
2.5672327274481628
210
0
220
0
230
-1
100
AcDbArc
50
241.67864610966819
51
244.47771887045414
0
SPLINE
5
875
100
AcDbEntity
8
0
100
AcDbSpline
70
0
71
2
72
6
73
3
74
0
42
0.000000001
43
0.0000000001
44
0.0000000001
40
0
40
0
40
0
40
1
40
1
40
1
10
137.66185485793542
20
214.20365869363454
30
0
10
138.08113379170783
20
214.06389460616475
30
0
10
138.67773691198587
20
214.06389460616475
30
0
0
SPLINE
5
876
100
AcDbEntity
8
0
100
AcDbSpline
70
0
71
2
72
6
73
3
74
0
42
0.000000001
43
0.0000000001
44
0.0000000001
40
0
40
0
40
0
40
1
40
1
40
1
10
138.67773691198587
20
214.06389460616475
30
0
10
139.31889766571916
20
214.06389460616475
30
0
10
139.76176828696265
20
214.22986279395553
30
0
0
ARC
5
877
100
AcDbEntity
8
0
100
AcDbCircle
10
-187.39751755496519
20
215.85335114066345
30
0
40
2.5113284669759413
210
0
220
0
230
-1
100
AcDbArc
50
180.03178633295354
51
183.70140458238393
0
ARC
5
878
100
AcDbEntity
8
0
100
AcDbCircle
10
-162.09123528584908
20
70.991541948145013
30
0
40
10.900475884977967
210
0
220
0
230
-1
100
AcDbArc
50
269.97730856205362
51
271.91983882915213
0
LINE
5
879
100
AcDbEntity
8
0
100
AcDbLine
10
53.617517872444147
20
50.092050070704126
30
0
11
52.920460147336989
21
50.092050070704126
31
0
0
SPLINE
5
880
100
AcDbEntity
8
0
100
AcDbSpline
70
0
71
2
72
6
73
3
74
0
42
0.000000001
43
0.0000000001
44
0.0000000001
40
0
40
0
40
0
40
1
40
1
40
1
10
190.37704066700024
20
215.02648876953199
30
0
10
190.19098622326658
20
214.60983557724646
30
0
10
189.80489559559754
20
214.32769498945697
30
0
0
ARC
5
881
100
AcDbEntity
8
0
100
AcDbCircle
10
-160.51588106102326
20
62.727593745812612
30
0
40
2.3986462955288061
210
-0
220
0
230
-1
100
AcDbArc
50
310.78028797988941
51
331.42758885884683
0
ARC
5
882
100
AcDbEntity
8
0
100
AcDbCircle
10
-139.19810020677889
20
215.76856496856436
30
0
40
1.6386964596178641
210
0
220
0
230
-1
100
AcDbArc
50
233.06560150204771
51
249.8808558602222
0
ARC
5
883
100
AcDbEntity
8
0
100
AcDbCircle
10
-188.59259416002828
20
215.86983288911026
30
0
40
1.3163728428149897
210
0
220
0
230
-1
100
AcDbArc
50
157.95886871405708
51
180.77804098266324
0
LINE
5
884
100
AcDbEntity
8
0
100
AcDbLine
10
167.98908905971712
20
60.091066918025547
30
0
11
167.98908905971706
21
58.389479805423569
31
0
0
SPLINE
5
885
100
AcDbEntity
8
0
100
AcDbSpline
70
0
71
2
72
6
73
3
74
0
42
0.000000001
43
0.0000000001
44
0.0000000001
40
0
40
0
40
0
40
1
40
1
40
1
10
165.87520721912509
20
54.587982595953612
30
0
10
165.08643181073529
20
55.049193421694362
30
0
10
164.07141611808913
20
55.250099299193323
30
0
0
ARC
5
886
100
AcDbEntity
8
0
100
AcDbCircle
10
-54.74520015653961
20
35.933879556566147
30
0
40
5.8114323423416456
210
-0
220
0
230
-1
100
AcDbArc
50
-6.8156999531009941
51
0.12443600841608213
0
SPLINE
5
887
100
AcDbEntity
8
0
100
AcDbSpline
70
0
71
2
72
6
73
3
74
0
42
0.000000001
43
0.0000000001
44
0.0000000001
40
0
40
0
40
0
40
1
40
1
40
1
10
136.71148305468736
20
224.44377059113688
30
0
10
136.80057166432385
20
224.0174941229451
30
0
10
137.09145583797832
20
223.77552604704135
30
0
0
LINE
5
888
100
AcDbEntity
8
0
100
AcDbLine
10
137.89595903801549
20
226.71662308510025
30
0
11
141.26069347414233
21
226.71662308510025
31
0
0
SPLINE
5
889
100
AcDbEntity
8
0
100
AcDbSpline
70
0
71
2
72
6
73
3
74
0
42
0.000000001
43
0.0000000001
44
0.0000000001
40
0
40
0
40
0
40
1
40
1
40
1
10
136.73419505211714
20
225.29019235450536
30
0
10
136.6896374186619
20
225.15392036992679
30
0
10
136.67741505854272
20
224.98795218213601
30
0
0
ARC
5
890
100
AcDbEntity
8
0
100
AcDbCircle
10
-137.52079846811293
20
225.0516810745749
30
0
40
0.82196871273200356
210
0
220
0
230
-1
100
AcDbArc
50
16.868179002135864
51
48.986096497935641
0
ARC
5
891
100
AcDbEntity
8
0
100
AcDbCircle
10
-137.99041592271257
20
224.90093440910181
30
0
40
1.9767430780891746
210
-0
220
0
230
-1
100
AcDbArc
50
332.00131542571734
51
354.13168560501452
0
ARC
5
892
100
AcDbEntity
8
0
100
AcDbCircle
10
-163.9773503834939
20
50.591406148458034
30
0
40
2.750668927053217
210
0
220
0
230
-1
100
AcDbArc
50
127.37851951829474
51
165.42701714846956
0
ARC
5
893
100
AcDbEntity
8
0
100
AcDbCircle
10
-162.31831499302859
20
45.154233832442841
30
0
40
8.4896003567515148
210
0
220
0
230
-1
100
AcDbArc
50
82.10476261281157
51
90.294593193171067
0
SPLINE
5
894
100
AcDbEntity
8
0
100
AcDbSpline
70
0
71
2
72
6
73
3
74
0
42
0.000000001
43
0.0000000001
44
0.0000000001
40
0
40
0
40
0
40
1
40
1
40
1
10
165.6472208834231
20
52.777203956976038
30
0
10
164.81215511876951
20
53.421853481441275
30
0
10
163.40231854122632
20
53.586945311349993
30
0
0
ARC
5
895
100
AcDbEntity
8
0
100
AcDbCircle
10
-137.87944483347448
20
223.1344150214241
30
0
40
3.5822461292348717
210
0
220
0
230
-1
100
AcDbArc
50
82.291297683222211
51
90.264135277021239
0
ARC
5
896
100
AcDbEntity
8
0
100
AcDbCircle
10
-137.69612788228432
20
224.71919377370233
30
0
40
1.6308348546536047
210
-0
220
0
230
-1
100
AcDbArc
50
299.84899972654921
51
330.64237831841854
0
ARC
5
897
100
AcDbEntity
8
0
100
AcDbCircle
10
-138.37681627467848
20
227.80500990879321
30
0
40
4.3771364663633712
210
0
220
0
230
-1
100
AcDbArc
50
269.94853163646076
51
270.05146836353958
0
ARC
5
898
100
AcDbEntity
8
0
100
AcDbCircle
10
-137.9028487484149
20
224.77973172707527
30
0
40
1.2910412475669033
210
-0
220
0
230
-1
100
AcDbArc
50
288.7422374460682
51
308.93802898199431
0
SPLINE
5
899
100
AcDbEntity
8
0
100
AcDbSpline
70
0
71
2
72
6
73
3
74
0
42
0.000000001
43
0.0000000001
44
0.0000000001
40
0
40
0
40
0
40
1
40
1
40
1
10
137.488022774321
20
223.55714965860867
30
0
10
137.84790930166906
20
223.42874156985374
30
0
10
138.37288432676661
20
223.42787520844945
30
0
0
ARC
5
900
100
AcDbEntity
8
0
100
AcDbCircle
10
-138.47421607719963
20
224.96898273076215
30
0
40
2.4650326959532936
210
-0
220
0
230
-1
100
AcDbArc
50
-6.2919715899896342
51
0.03507285013090556
0
SPLINE
5
901
100
AcDbEntity
8
0
100
AcDbSpline
70
0
71
2
72
6
73
3
74
0
42
0.000000001
43
0.0000000001
44
0.0000000001
40
0
40
0
40
0
40
1
40
1
40
1
10
136.45903867011003
20
226.28160303104349
30
0
10
136.78572356271778
20
226.59781161497764
30
0
10
137.3989341646845
20
226.68428781176425
30
0
0
SPLINE
5
902
100
AcDbEntity
8
0
100
AcDbSpline
70
0
71
2
72
6
73
3
74
0
42
0.000000001
43
0.0000000001
44
0.0000000001
40
0
40
0
40
0
40
1
40
1
40
1
10
60.152212040213911
20
33.942680299677178
30
0
10
59.747781208047584
20
33.035979775524567
30
0
10
58.906590934697391
20
32.421033118589989
30
0
0
LINE
5
903
100
AcDbEntity
8
0
100
AcDbLine
10
136.88443544826052
20
223.26714517499542
30
0
11
136.88443544826052
21
223.30470527403133
31
0
0
SPLINE
5
904
100
AcDbEntity
8
0
100
AcDbSpline
70
0
71
2
72
6
73
3
74
0
42
0.000000001
43
0.0000000001
44
0.0000000001
40
0
40
0
40
0
40
1
40
1
40
1
10
136.00918384308417
20
224.97049166768005
30
0
10
136.00918384308417
20
225.56097694358002
30
0
10
136.21357849131508
20
225.95054634550326
30
0
0
LINE
5
905
100
AcDbEntity
8
0
100
AcDbLine
10
141.26069347414233
20
222.64608400584206
30
0
11
137.90556898528476
21
222.64608400584206
31
0
0
ARC
5
906
100
AcDbEntity
8
0
100
AcDbCircle
10
-138.48642136097129
20
224.86183033874281
30
0
40
1.8133975078860163
210
-0
220
0
230
-1
100
AcDbArc
50
-0.26511391546141805
51
3.9881426035108238
0
LWPOLYLINE
5
907
100
AcDbEntity
8
0
100
AcDbPolyline
90
4
70
1
43
0.0
10
146.37567563018112
20
86.789117409045417
10
167.10143501144569
20
86.789117409045417
10
167.10143501144569
20
14.572799564951637
10
146.37567563018112
20
14.572799564951637
0
SPLINE
5
908
100
AcDbEntity
8
0
100
AcDbSpline
70
6
71
5
72
61
73
55
74
0
42
0.000000001
43
0.0000000001
44
0.0000000001
40
0
40
0
40
0
40
0
40
0
40
0
40
0.02
40
0.040000000000000001
40
0.059999999999999998
40
0.080000000000000002
40
0.10000000000000001
40
0.12000000000000001
40
0.14000000000000001
40
0.16
40
0.17999999999999999
40
0.19999999999999998
40
0.21999999999999997
40
0.23999999999999996
40
0.25999999999999995
40
0.27999999999999997
40
0.29999999999999999
40
0.32000000000000001
40
0.34000000000000002
40
0.36000000000000004
40
0.38000000000000006
40
0.40000000000000008
40
0.4200000000000001
40
0.44000000000000011
40
0.46000000000000013
40
0.48000000000000015
40
0.50000000000000011
40
0.52000000000000013
40
0.54000000000000015
40
0.56000000000000016
40
0.58000000000000018
40
0.6000000000000002
40
0.62000000000000022
40
0.64000000000000024
40
0.66000000000000025
40
0.68000000000000027
40
0.70000000000000029
40
0.72000000000000031
40
0.74000000000000032
40
0.76000000000000034
40
0.78000000000000036
40
0.80000000000000038
40
0.8200000000000004
40
0.84000000000000041
40
0.86000000000000043
40
0.88000000000000045
40
0.90000000000000047
40
0.92000000000000048
40
0.9400000000000005
40
0.96000000000000052
40
0.98000000000000054
40
1
40
1
40
1
40
1
40
1
40
1
41
1
41
1
41
1
41
1
41
1
41
1
41
1
41
1
41
1
41
1
41
1
41
1
41
1
41
1
41
1
41
1
41
1
41
1
41
1
41
1
41
1
41
1
41
1
41
1
41
1
41
1
41
1
41
1
41
1
41
1
41
1
41
1
41
1
41
1
41
1
41
1
41
1
41
1
41
1
41
1
41
1
41
1
41
1
41
1
41
1
41
1
41
1
41
1
41
1
41
1
41
1
41
1
41
1
41
1
41
1
10
141.16212046141155
20
94.069668605876473
30
0
10
141.19141819609229
20
93.942577114957672
30
0
10
141.14225238165503
20
93.585646301717148
30
0
10
140.7631659918319
20
92.70796481238861
30
0
10
139.77155216298362
20
90.805201914804542
30
0
10
138.17462796868526
20
87.37585035388517
30
0
10
136.68748717008822
20
83.238612107860291
30
0
10
135.67309730461093
20
78.782614869296197
30
0
10
135.25095702573486
20
74.310073646630727
30
0
10
135.34973499352367
20
70.024694453363622
30
0
10
135.78596191551043
20
66.03950793311239
30
0
10
136.33535419894937
20
62.376648145704351
30
0
10
136.80215673614597
20
58.97220276649756
30
0
10
137.10114092986348
20
55.673976716135925
30
0
10
137.29610437427499
20
52.25723315906491
30
0
10
137.52698649895757
20
48.485062097653405
30
0
10
137.95999078703852
20
44.158744817262416
30
0
10
138.72615148957382
20
39.175076918100821
30
0
10
139.87062003884535
20
33.574212365628796
30
0
10
141.2821431545471
20
27.609276071762608
30
0
10
142.72287487750339
20
21.700637790028409
30
0
10
143.89381947419895
20
16.348743114194161
30
0
10
144.48721829951216
20
12.062338878368756
30
0
10
144.24693441941224
20
9.2769573963027803
30
0
10
143.019452962065
20
8.2852754882558077
30
0
10
140.82402432715077
20
9.1427446206705323
30
0
10
137.86080378204193
20
11.653501811695392
30
0
10
134.43504773668761
20
15.464894196016296
30
0
10
130.90353659585543
20
20.133394703894133
30
0
10
127.60967725208187
20
25.204551479298392
30
0
10
124.82929199500111
20
30.280363977406303
30
0
10
122.69715171644549
20
35.108218674591242
30
0
10
121.20442850105233
20
39.591188149789566
30
0
10
120.24954064712534
20
43.739427821904911
30
0
10
119.67269779557378
20
47.639328396501632
30
0
10
119.29821314336681
20
51.414685022106298
30
0
10
118.97046540160696
20
55.193569737980269
30
0
10
118.59982744819717
20
59.067530147938427
30
0
10
118.17664910401389
20
63.074295457546008
30
0
10
117.75119473920662
20
67.205181367704213
30
0
10
117.42261323450874
20
71.406026347179491
30
0
10
117.32456657648216
20
75.580326752296671
30
0
10
117.61193810048374
20
79.592025707106046
30
0
10
118.44840662420886
20
83.266353226765943
30
0
10
119.97053325797602
20
86.427428461059179
30
0
10
122.24788851443996
20
88.941711655130732
30
0
10
125.24747098251842
20
90.754951923067637
30
0
10
128.78902288460077
20
91.942459177447319
30
0
10
132.52494793441352
20
92.723589750598137
30
0
10
136.03166325047303
20
93.336449565966234
30
0
10
138.88649441554969
20
93.91439465416623
30
0
10
140.3757008092044
20
94.301146253932572
30
0
10
140.96646597357039
20
94.348195247229995
30
0
10
141.13282272673081
20
94.196760096795316
30
0
10
141.16212046141155
20
94.069668605876473
30
0
0
SPLINE
5
909
100
AcDbEntity
8
0
100
AcDbSpline
70
6
71
5
72
51
73
45
74
0
42
0.000000001
43
0.0000000001
44
0.0000000001
40
0
40
0
40
0
40
0
40
0
40
0
40
0.025000000000000001
40
0.050000000000000003
40
0.075000000000000011
40
0.10000000000000001
40
0.125
40
0.14999999999999999
40
0.17499999999999999
40
0.19999999999999998
40
0.22499999999999998
40
0.24999999999999997
40
0.27499999999999997
40
0.29999999999999999
40
0.32500000000000001
40
0.35000000000000003
40
0.37500000000000006
40
0.40000000000000008
40
0.4250000000000001
40
0.45000000000000012
40
0.47500000000000014
40
0.50000000000000011
40
0.52500000000000013
40
0.55000000000000016
40
0.57500000000000018
40
0.6000000000000002
40
0.62500000000000022
40
0.65000000000000024
40
0.67500000000000027
40
0.70000000000000029
40
0.72500000000000031
40
0.75000000000000033
40
0.77500000000000036
40
0.80000000000000038
40
0.8250000000000004
40
0.85000000000000042
40
0.87500000000000044
40
0.90000000000000047
40
0.92500000000000049
40
0.95000000000000051
40
0.97500000000000053
40
1
40
1
40
1
40
1
40
1
40
1
41
1
41
1
41
1
41
1
41
1
41
1
41
1
41
1
41
1
41
1
41
1
41
1
41
1
41
1
41
1
41
1
41
1
41
1
41
1
41
1
41
1
41
1
41
1
41
1
41
1
41
1
41
1
41
1
41
1
41
1
41
1
41
1
41
1
41
1
41
1
41
1
41
1
41
1
41
1
41
1
41
1
41
1
41
1
41
1
41
1
10
165.2685460976663
20
96.329646009275365
30
0
10
165.11078376917641
20
96.075756568020637
30
0
10
165.02649987755154
20
95.441925388013047
30
0
10
165.6012562467277
20
94.110581233760996
30
0
10
167.63943903215932
20
91.636843921340585
30
0
10
171.47186291159684
20
87.74032752220613
30
0
10
175.5444052840881
20
83.439643932177944
30
0
10
178.88019399978015
20
79.027828545643388
30
0
10
180.90306953061938
20
74.50165021310157
30
0
10
181.42708695506656
20
69.628485715635094
30
0
10
180.54824825877748
20
64.085469348866567
30
0
10
178.5700025634618
20
57.575627854997329
30
0
10
175.91667238866523
20
49.949724791868391
30
0
10
173.05048229098648
20
41.33550660395764
30
0
10
170.39410415735674
20
32.237776891329787
30
0
10
168.3172317916441
20
23.391033963659609
30
0
10
167.11612832335206
20
15.635312658388505
30
0
10
166.99636736743795
20
9.7865344213425125
30
0
10
168.05198089339717
20
6.5027587325004665
30
0
10
170.24983486410281
20
6.1665712293964914
30
0
10
173.40080783456904
20
8.7225121368091454
30
0
10
177.17411975985871
20
13.667917579106669
30
0
10
181.16763584184127
20
20.242963123883833
30
0
10
184.96310270834636
20
27.567775891751076
30
0
10
188.18869264734647
20
34.803517595672929
30
0
10
190.5754252995095
20
41.295500409116983
30
0
10
192.02407730568785
20
46.742786497027367
30
0
10
192.64609737079226
20
51.303787801574373
30
0
10
192.67461652541752
20
55.389221317884846
30
0
10
192.38975451159263
20
59.486812076129965
30
0
10
192.04420216638826
20
63.992380497158265
30
0
10
191.77548591479177
20
68.994513355093801
30
0
10
191.57264748228408
20
74.237949267886549
30
0
10
191.31631459861725
20
79.312366764419494
30
0
10
190.79668146775802
20
83.792189443195454
30
0
10
189.74662107050648
20
87.376789435353302
30
0
10
187.85159433186806
20
90.078942061998006
30
0
10
184.8504668546405
20
92.162566087991507
30
0
10
180.69807063882749
20
93.920727491987336
30
0
10
175.69520324491538
20
95.513926372181459
30
0
10
170.67035375894986
20
96.75530760856779
30
0
10
167.47948436744497
20
97.16213551227348
30
0
10
165.97307384849051
20
96.9652620355414
30
0
10
165.42630842615608
20
96.583535450530107
30
0
10
165.2685460976663
20
96.329646009275365
30
0
0
CIRCLE
5
910
100
AcDbEntity
8
0
100
AcDbCircle
10
198.61943193719139
20
93.694465469563667
30
0
40
7.4078928327742064
210
0
220
0
230
1
0
CIRCLE
5
911
100
AcDbEntity
8
0
100
AcDbCircle
10
190
20
20
30
0
40
5.0473268786071044
210
0
220
0
230
1
0
ENDSEC
0
SECTION
2
OBJECTS
0
DICTIONARY
5
C
100
AcDbDictionary
3
ACAD_GROUP
350
D
3
ACAD_MLINESTYLE
350
17
0
DICTIONARY
5
D
100
AcDbDictionary
0
DICTIONARY
5
1A
330
C
100
AcDbDictionary
0
DICTIONARY
5
17
100
AcDbDictionary
0
ENDSEC
0
EOF
