<?xml version="1.0" encoding="UTF-8"?>
<svg id="_レイヤー_1" xmlns="http://www.w3.org/2000/svg" version="1.1" viewBox="0 0 1000 1200">
  <!-- Generator: Adobe Illustrator 29.3.1, SVG Export Plug-In . SVG Version: 2.1.0 Build 151)  -->
  <defs>
    <style>
      .st0 {
        fill: #8f8dc9;
        isolation: isolate;
        opacity: .1;
      }
    </style>
  </defs>
  <path class="st0" d="M269.8,1166.5c-104,0-221.3-27.7-349.7-82.7l11.8-27.6c141.7,60.7,268.9,87.2,378.2,78.8,95.7-7.4,178-41.6,244.4-101.7,44.9-40.7,82.5-93,111.6-155.6,26.7-57.3,45.9-122.1,57.1-192.5,14-87.8,14.5-181.7,2.4-266.6-57.2,5-118.6-6.8-178.4-34.4-36.4-16.8-65.7-45.4-82.4-80.4-15.6-32.6-19.4-69.2-10.4-100.3,7.4-25.7,22.7-46.4,44.3-59.8,23.6-14.6,53-19.9,87.3-15.5,31.4,4,60.4,22.6,86.1,55.4,23.2,29.6,42.8,69.6,58.3,118.7,8.1,25.6,14.8,53.3,20.1,82.5,44.1-8.9,82.9-29.4,112.8-59.8,35.4-35.9,56.7-84.1,61.7-139.3,5.5-60.9-9.4-129.9-43-199.6l27-13c36.5,75.6,51.9,148,45.8,215.3-5.6,62.1-29.9,116.6-70.2,157.6-34.5,35-78.9,58.5-129.4,68.4,3.3,22.7,5.7,46.1,7.2,69.8,4.3,69.1,1.1,138.4-9.6,205.8-11.7,73.2-31.7,140.7-59.5,200.5-30.9,66.3-70.8,121.9-118.7,165.2-71.5,64.7-159.7,101.5-262.2,109.4-13.9,1.1-28.1,1.6-42.6,1.6v-.2h0ZM563.7,156.6c-41.4,0-70.2,19.5-80.4,55-13.7,47.7,11.2,115,76.6,145.2,46.8,21.6,94.4,32.7,139.6,32.7s14.3-.3,21.3-.8c-5-27.2-11.3-53.3-19-77.6-28.8-91.5-72.4-147.4-119.6-153.4-6.4-.8-12.6-1.2-18.6-1.2h0Z"/>
</svg>